<?xml version="1.0" encoding="UTF-8"?>
<svg xmlns="http://www.w3.org/2000/svg" fill="none" viewBox="0 0 226 78"><path d="M13.59 65.88c-.09-.28.39-.52 1.34-.66.08.28-.41.51-1.34.66m48.73-6.69-.09-.57 1.65-.24c.54-.08 1.17-.25 1.2-.03-.64.1-1.23.14-1.63.39s-.06.36-1.13.45m-.88.57-1.06-.58-2.31.64c.18-.52 1.21-.82 2.74-.99zm-5.28.35-.95-.02 1.42-.21.4-.5.14.86-.94.14zm-3.79.4c-.11-.13.24-.51.88-.57l.07.43zm14.67-1.99q-.02-.04 0-.08l-.97.07c.6-.49 2.04-.6 3.26-.84.75-.15.91-.18 1.44-.05l-1.19.23-.17.33c-.8.13-1.17.04-1.7-.05l.28.25-.94.13zM43.8 61.37l.47-.08.05.29-.47.07zm126.51-38.46c-1.08.14-2.02.3-2.89.23-.53.52-1.42.46-2.12.65-1.95.52-3.95.99-5.59 1.25s-1.41.17-3.01.56c-1.17.28-2.89.54-4.15.79.03-.1.11-.22.15-.33-.66.2-1.4.39-2.08.58-.17.05-.34 0-.46.03-.95.3-1.67.69-2.73.9-.72-.03-.66-.35-1.72-.05l.55.32c-.69.16-1.39.17-2.1.34-.39.09-.7.29-.92.35-1.83.5-2.96.54-4.26.43l-1.26.75-1.68.11 1.01.2c-.63.23-1.03.16-1.58.28-.4.09-.47.24-.92.35-1.37.34-2.9.73-4.23 1.09l-.12-.42q-.78.36-1.44.71l.08-.48c-.39.27-.95.58-1.34.86q-.5-.3-1.06-.58c-.44.23.06.5-.32.81-.24.23-.49.15-.52.17.01 0 .24-.02.81-.41l.25-.19c.12-.1.14-.09.46-.46.46-.58 1.6-1.93 1.36-4.57a6.3 6.3 0 00-1.24-3.04 6 6 0 00-1.22-1.19c-.76-.55-1.29-.71-1.59-.81l-.05-.02c.5.12 2.42.54 3.3.79 1.11.31 1.64.67 2.73.91 1.34.29 2.34.51 3.76.85.35.08 1.43.57 1.71.77.51-.24 1.87.21 2.5.22s.09-.33.92-.23c.09.11.27.26.36.37.35.04.09-.11.66.01.58.13 2.4.6 2.97.78.92.3.7.48 1.69.64q.01-.15.06-.28l2.09.43-.06.29a14 14 0 017.02 1.31c.66.06 1.25.01 1.99.15 1.88.34 4.1 1.07 5.87 1.5 1.34.33 2.21.51 3.36.56l1.02.95.11-.57c.72.06 1 .31 1.61.45s.29-.16 1.17-.02c.33.05 1.83.38 2.65.54q2.21.42 4.75.86c1.41.26 2.83.82 2.75 1.36-.02.08-.6-.15-.28.15.49.45 1.67 1.1-1.28.5q-.01.23-.08.44c-1.2-.57-2.66-.43-1.11.04.59.18 2.85.23 3.23.1.94-.32-.42-.96.2-1.4.1-.07 2.55.06 2.98.13.62.1.62.23.98.32.64.17.74 0 1.41.16.78.17 1.57.56 2.5.66l-1.05.38c1.56.33 1.63-.17 2.7-.18l.94.48 1.13.16c1.17.6 2.67 1.67-.58.55-.13.27.02.51-.24.77-.19.18-.69.2.22.57l.34-.52c1.43.25 1.81-.16 2.28-.43.2-.1-.53-.44-.12-.46.33-.01.71.13.96.29.75.26 1.17.59.91.59.47.16.87.33 1.3.55q.06-.12.15-.25a9.5 9.5 0 014.73 5.96c.37 1.89.19 2.09-.04 3.89a11 11 0 01-1.33 3.68 8.3 8.3 0 01-3.84 3.45c-.57.27-1.71.65-2.97.73-1.07.03-2.68.05-3.51.13-.29.02-.41.18-.9.18-1.1 0-2.41-.22-2.23-.65l-.7.35c.62.13 1.28.18 1.27.47-1.25-.09-2.23.27-3.53.32-.3.01-.87-.25-1.24-.15-.01.14.06.29.02.43-.37.12-1.41.04-1.55.05-.95.09-1.77.04-2.41.08-.66.05-1.02.37-1.4.39-1.1.06-1.71-.2-2.48-.32l-.21.32-1.4.14-.04-.29c-1.04.35-1.64.5-3.09.61-.83.07-1.19-.05-1.81.33l-.98-.16c-2.29.53-4.09.22-6.4.36l-.06-.28-.95.17 1.02.4c-.75.14-1.46.04-2.1.09-1.02.07-1.66.29-2.61.43l-.07-.28-2.13-.07-1.82.79-1.03-.17-.88.24.16-.61-2.47 1.31-1.03-.62-1.11.71-1.91.07-.06-.28-1.14.27-.03-.29c-.72.25-1.25.48-2.32.55-.6.03-2.76.15-3.17.25-1.35.3-1.24.53-2.72.6q-.01-.14-.06-.28l-3.1-.08.07.28.69.07-2.6.6c-1.64-.05-2.94.33-4.71.39-.76.03-1.49-.23-2.59.06-.02.09.01.19 0 .29-1.14.19-2.81.14-3.8.1-.73-.02-.59-.17-1.42.11l-.78-.35-.16.61a4.4 4.4 0 00-2.58.47l-.72-.13c.65-.29.36-.38-.31-.47-.4.07-.24.23-.43.35-.78.45-1.26.37-2.31.48-1.73.18-3.04.42-4.74.54-.32.02-.74-.08-1.19.03l-.08-.43c-1.15.3-1.9.71-3.23.86l-.07-.28-1.85.24.03.29-1.22-.13-2.09.57c-.21-.41.88-.33 1.6-.66.3-.14.39-.37.64-.52l-2.36.31c-.14.26-.23.52-.39.78-.56.14-2.1.13-2.51.19-3.3.45-5.88.95-9.13 1.25-.44.04-.68.25-1.37.33-.88.1-2.43.07-3.29.02l-1.36.47-2.01-.14c-.91.15-1.82.43-2.74.52-1.13.12-1.55-.02-2.58.37l-.28-.25c-1.58.51-3.16.57-4.73.53l-.17.47c-1.16.26-1.54 0-2.68.13-.57.06-.96.36-1.85.36-.57 0-.96-.19-1.83.14-.8-.08-.58-.39-1.81-.18.24.85-2.01.54-2.31.57-1.75.15-2.3.38-3.72.49q.05.14 0 .29c-.93.26-2.7.27-3.42.37-1.88.26-3.64.53-5.17.8-1.82.33-2.4.21-3.93.33-1.3.11-2.36.41-3.71.54-.29.03-.76-.05-1.18.06l-.09-.28c-1.63.61-2.96.73-4.83.91-1.07.1-1.9.24-3 .36-.43.04-.7.27-1.27.32-.44.04-1.08-.02-1.66.14l-.08-.28c-1.2.45-1.7.34-3.05.5-.98.11-1.14.23-2.49.45-1.55.24-4.56.65-6.37.86-.98.11-2.14 0-2.89.1-.76.11-.49.27-1.24.32.33-.45-.56-.42-.98-.66-1.1-.64-1.29-1.58-1.52-2.37-.05-.2.58-.34.42-.47q-.7.14-1.4.24c.12-.24-.48-.38-.6-.54-.15-.2.3-.36.34-.53l.01-.01c.06-.25-.28-.29-.1-.58.05-.06-.08-.19.04-.27.76-.53 2.15-.61 2.36-.19l1.16-.2-.05-.29 2.16-.07-1-.2.64-.48c.78.01 1.51-.18 2.35-.22s.88.16 1.9-.19c.5-.01 1.06.2 1.5.17 1.33-.09.1-.55.13-.74l-2.32.53-.09-.43c-.68.09-1.95.03-2.36.34l.04.2-.47.08-.52-.29-1.44.18-.11-.58c-.86.14-1.6.01-2.36.33l1.95.12c.18.44-.42.86-1.44 1.35-.69-.1-1.37-.08-1.24-.46.05-.13.76-.57.69-.7-.13-.24-1.1-.19-.96-.51l2.77-.63 1.11-.62c.35.14-.62.42-.84.58-.26.21.4.21.3.4a5 5 0 002.06-.65c.69.03.63.18.81.37.14.13.93-.07 1.2.04.25-.24-.46-.21-.25-.49.12-.15 1.03-.45.78-.64 1.51-.27 2.39-.01 3.84-.2l-1.47-.12 2.63-.22c.91-.48.25-.7 2.02-.92l-1.04-.42c1.17-.31 2.13-.16 3.12-.25 1.73-.16 2.21-.34 3.11.04l-1.25 1.02 1.41-.32c.04-.43 1.14-.28 1.66-.18l-.4.51c1.24-.56 1.71-.91 1.46-1.42l.91-.15-.05-.43 1.88-.3-.39.28.7.11.89-.42 1.2-.06c-.4-.29-.1-.66-.17-1.01.87-.15 1.75-.25 2.61-.4.59-.11.76-.29 1.42-.38.8-.11 1.66-.02 2.57-.25-.03.2-.65.32-1.21.47-.57.15-.74.17-.57.4-.87.06-1.51.16-2.35.36.01-.27-.1-.3-1-.13.28.16-.26.37-.25.55s.57.14.37.38c-.09.11-1.03.42-.84.51l1.64-.4.16-.47c1.69-.19 2.41-.73 3.92-1.06l.52.21.11-.75c1.47-.24 3.04-.6 3.39-.08l-1.92.15-.38.64-4.68.88.62.79-2.34.52-.08-.43-4.52.43-1.1.61 1.92-.09c-.62.35-1.34.46-2.32.6.76.27-.31.74.89.89l-.34-.54 1.4-.23v-.28c1.12-.17.92-.3.83-.58.68-.14 1.05-.19.98.06-.05.15-.52.33-.17.4.6-.37 1.09-.16 1.81-.3.52-.11.54-.31 1.01-.43.84-.2 1.69-.34 2.53-.56-.03.22.27.34-.45.59-.41.15-.97.05-1.32.36l1.2.02 1.6-.54-.54-.36 1.85-.43c.05.28-.12.59.61.72l-.92.29 3.81-.37-2.92-.07.41-.43c1.29-.24.57.17 1.47.07l-.03-.3 1.87-.28-.76-.18a6 6 0 01-3.37.23l-2.07.47-.6-.65c.5-.12.78.12 1.34.08.25-.02 1.13-.21 1.53-.23-.05.1-.05.28.28.25.43-.05 1.14-.06 1.4-.11.77-.14.91-.32 1.69-.37.23.43 1.63.24 2.7.32.11-.14-.17-.35-.56-.35-.55.02-.64.16-1.23.1-.59-.07-1.1-.41-1.93-.42l3.22-.87c.26.4 1.32.39 2.61.05 1 .04 3.08-.3 3.63-.04.08.05-.35.11-.26.2.03.04.37.37.87.22l1.28-1c-.41-.07-.72.29-.94.13-.12-.08.2-.26-.1-.35.57-.07.96-.14 1.46-.21l-1.25-.25-.23.03c-.01.14.1.29.01.43-.11-.03-1.34 0-1.33-.16 0-.06.34-.11.22-.19-.22-.13-1.38-.18-.14-.48.45-.11 1.08-.03 1.18.11l-.91.29c2.28-.37 3.51-.13 5.09.12.47-.19.64-.37.88-.57.33-.28.14-.36 1.13-.46.02.15.31.45-.16.6-.66.21-1.24.54-1.76.67s-.44-.1-.97.05c-.42.12-.62.27-1.2.32l.46.15-.64.32-1.62.31a8 8 0 002.05-.24c.49-.13.74-.44 1.21-.46.34.14-.33.4-.28.55.08.2.96.06.83.34l.87-.59-.46-.45 1.46.08-1.02-.29c1.14-.13 2.18-.46 3.28-.48l.41-.44 2.34-.7-1.33.71c-.07.39.01.3.99.23.03 0 .04.12.26.08.21-.03.18-.14.21-.15.32-.09.63-.08.95-.15l-.99-.37c.47-.29.27-.43 1.29-.57l.02-.27 1.81-.57 1.29.55 1.08-.82-1-.22.94-.13.01-.01c.24.19.43.32.09.58l.88-.57c.67-.11 1.03-.19.96.07l1.45-.12-1.39.35c-.08.48-.76.85.61 1.02l-.84.63-1.25-.26-.89.57c-.69-.1-.63-.4-1.7-.2l.14-.61-1.18.17.56.57-1.78.86 2.29-.7c-.01.17 0 .55.84.44.32-.03.64-.23 1.13-.13l-.06-.44 1.41-.2.04.21.94-.2-.62.68-1.01-.3-.17.47-1.45.06c.27.17-.23.36-.26.55-.03.12.38.11.41.24.03.2.03.44.08.65l2.39-.2c.12.25.02.42-.64.68l-1.38.06-1.17.46-.61-.8c-1.15.28-.82.58-1.38.93-.1.07-1.02.15-1.06.31l-.77-.18 1.37-.5-1.68.1-.65.54-3.73.69.91-.28-.56-.51-1.12.46c-.75.03-.37-.23-.88-.29-.5-.07-1.73.12-2.3.03l-1.43.21.98.15-.38.65c.43-.05.86-.33 1.22-.46s1.17-.44 1.56-.32a8.5 8.5 0 01-4.91.95l.07.43-1.29-.47 2.26-.93c-.59-.01-.3-.42-1.25-.16-.48.13-1.22.72-1.72.8-1.05.18-1.72.17-2.68.29l2.28.39-.22.33c2.71-.21.77.69-.35.79l-1.29-.54c-.9.34-.5.35-.22.55.46.33-1.22.28-1.8.35l-.08-.43-1.86.43.99.15c-1.91.25-3.18.76-3.15 1.37l1.08-.76.82.61-.89.43 1.38-.44.81-.56-.47-.3 1.37-.35.07.28 3.26-.64.07.43h-.96l-.65.54-.29-.25-1.87.28c.64.58 1.94.31 3.58-.23l.99.12 1.61-.53-.21.33 1.69-.11-.56-.5.9-.15v-.28c1.03-.13 1.49-.37 2.29-.65l-.38.65c-.91.11-1.25 0-1.87.35l.77.11-.19.47 1.36-.5.57.51 1.41-.21c-.01-.24-1.29.11-.97-.22.32-.32.74-.24 1.35-.28q.01-.14-.01-.29l1.41-.21c-.71-.22-1.41-.22-.35-.69.58.08.96.13 1.27.34.07.05.43.29.41.36-.07.23-.52.38-.28.57l.44-.36c.62-.07 1.03-.3 1.59-.39.42-.07.6.02.98-.03s.4-.21.9-.22c.6-.02.89.21 1.72.03l-1.04-.51.42-.43 1.4-.21-.32-.54 1.7.12c-.31.2-.66.35-.77.57-.16.31-.02.67.51.87l-.93.14.06.43 1.9-.13-.61-.79c.93.04 1.09-.17 1.86-.42l.06.29 1.15-.31c-.06.1-.15.21-.18.32.65-.16 1.58-.06 2.07-.16.97-.19.51-.51.7-.65s.4-.06.63-.13q2.42-.73 4.65-1.53l.8.49c.34-.22 1-.15 1.34-.37.33-.23.1-.62 1.11-.86l-.15.61 1.59-.66 2.41-.04q-.15-.13-.27-.26c.72-.17 1.23.06 1.66.05.96-.02 1.59-.39 2.26-.42.9-.05.81.23 1.8.03l-.07-.43 2.38-.17.02.15.94-.13.11.72.43-.35 1.44.03-.89.41c.03.17.71-.08.92-.04.42.1-.36.44-.13.6l2.31-.75.71-.09.07.43 1.89-.1-.97-.09c.02-.27.27-.51.37-.79.05-.14-.04-.32.69-.3.28 0 .57.18.96.13.6-.08 1.03-.18 1.64-.18l.08.27 1.43-.11.51.31 1.38-.32.06.28c1.15-.11 1.75-.29 1.82-.67l3.76-.63-.31 1.22 1.38-.33-.05-.43c.79-.12 1.12-.01 1.68.08l1.62-.57-1.44.11-.07-.43-2.1.11-1.3-.57 1.16-.29.31.55 1.87-.24-.02-.29.95-.12.05.29 1.63-.35.71.58-.35.4-.92.19c1.01.24 2.23.1 3.59.07 1.02-.4.16-.53.12-.89h1.17l.96-.41 1.71.23c.47-.79 2.5-.78 4.38-1.14.75-.15.92-.55 1.86-.64l.78.49c-1 .03-1.81.2-2.82.34l.03.43-.93.12c-.3.33 1.15.46 1.97.35-.18-.33.95-.66.36-.92l1.94.21 1.23-1.62.79.65 2.94.23.05.44c.59-.27 1.33-.5 1.05-.78-.24-.25-1.33.01-1.8-.03-.46-.05-.16-.29-.76-.31v-.01h-.01l.84-.4 1.49.41 1.63-.34.55.52-.96.04.05.36c1.08-.02 1.8-.1 2.85-.33l-1.06-.75 1.94.21-.11-.87 1.05.69.01.22c-1.37.14-.99.34-.16.46l2.11-.39-.52-.31 1.37-.52c1.2.1 1.12.57 2.46.6.13-.27-1.44-.34-.98-.61.28-.15 1.01.08 1.36-.09-.46-.02-.27-.3-.78-.27-.88.05-1.25.2-1.16-.17.96-.15 1.23.09 1.92.15.5.04.89-.21 1.42-.23l-.94.25.59.81 3.29-.51c.17-.2-.39-.19-.45-.34-.11-.26.6-.43-.15-.62l1.91-.06-.38.26.43.16-.94.12.05.43 1.42-.16-.07-.58 2.87-.16-.29-.26c.53-.68-.05-.92-2.22-.64l1 .33-1.17.27c-.68-.09-.83-.23-.79-.49l-1.41.15-.05-.29-1.89.06 2.8-.45-.05-.44c.89-.12.99-.1 1.02.17l.93-.09-.44.34 2.35-.33c-.66-.17-1.98-.08-1.98-.44a7 7 0 00-3.02.77l-.46.05c-.72-.12-1.16-.31-2.19-.19.16.13.38.24.5.38-1.03.08-2.6.78-3.36.8-1.57.03-.14-.69-.49-.95-1.64.04-1.53.58-2.52.84-.84.22-1.64.18-2.35.29-.52.08-.61.21-.99.25-1.82.18-3.17-.2-5 .01l1.48.41-2.35.13-.07-.28-2.36.27.06.44-.52-.23c-.82.25-1.25.48-2.31.57l1.46.26-1.88.07-.08-.26-2.17-.2-.21.32c-.51.12-.87.01-1.24.02-.6.03-.74.26-1.31.28-.42.01-.68-.09-1.21.01l-.07-.28c-.53-.02-.75.22-1.15.25-.96.08-1.51-.14-2.55.04l.32-.32c-.45.08-1.22.05-1.38.27-.16.21-.07.23-.9.32v.28c-.92.14-1.73.19-2.59.17-.55-.01-.25-.26-.33-.39l2.38-.3c-.01-.5-1.59-.48-1.58-.98l1.43-.1-.53-.31c-.37.21-1.4.38-1.77.53-.38.14.07.22-.08.35-.08.08-.33.15-.37.23-.06.17.5.16.44.36-.03.08-.39.22-.4.35-.01.19.11.45.11.65-.66.12-1.05-.02-1.67.06s-.96.31-1.63.35l.89-.48-.99-.24c.01.14.26.33-.18.46-.25.08-.7.22-.89.24-.77.06-1.17-.05-1.96.13l-.43.35q-.39-.17-.75-.35c.54-.01 1.96-.49 1.27-.58-.53-.08-1.38.44-2.04.26l-2.07.69c-.19-.1.25-.45.43-.55.63-.33 1.46-.37 1.31-.71l-2.34.45-.06-.43-1.43.19c.03-.1.22-.25.47-.36.05-.02.46-.05.43-.13s-.41 0-.44-.01c-.2-.07 0-.2-.08-.29l-.24.03c-.05.11-.15.21-.18.32l.47-.06.02.14-.49-.08c-1.31.41.18.58.41.73s-.33.22-.31.35c.02.21.92.38.53.59-.3.15-1.32.12-1.16-.15.17-.26-.33-.56-1.26-.55-.14.26 1.38.3.52.58-.68.23-1.54.08-2.32.24 0 .29-.4.51-1.37.62.7-.54.15-.94-1.57-.82l.42-.49-3.34.14-.53-.22-.4.5 3.31-.3.64 1.09-.92.27 1.91-.1c-1.25.31-2.16.42-3.28.37-1.13-.05-.64.01-1.74.15-.58.07-1.38-.03-2.09.13-.14-.41.28-.83.77-1.28l-1.21.01c-.55.22-.04.3-.26.57-.04.05-.7.5-1.02.64-.59.25-2.12.65-3 .7l-.06-.28c-.82.29-1.64.34-2.58.49-.6.1-.76.28-1.43.35-1.12.12-1.91-.01-3.02.42l.87-.56c-.82.15-1.42.18-2.16.16l-.43.01-.22.37-3.28.61c.24-.36 1.12-.89-.58-.66l.56.51-2.32.48-.45.36.18-.47c-.28-.12-.87.06-1.14 0-.57-.15-.34-.41-1.57-.2.5-.26.06-.21.07-.38s1.25-.68 1.72-.54l-.87.49c.51-.09 1.44-.26 1.82-.4-.08.02-.45.37-.76.46l.61-.14.5.06c.65-.26 1.08-.73-.35-.38.38-.14.25-.31.73-.39 1.05-.2 1.59-.02 2.56-.38-.11.14.53.43.97.3.45-.13.56-.28.95-.42l-1.28-.41-1.13.45-.32-.54-.9.42-.74-.11c.94-.56-1.26-1.13.55-1.6.2-.05.87.05 1.07-.26-.14-.14-.37-.28-.55-.43l-.92.13.64-.53 2.32 1 .41-.5c1.1-.17 1.86-.07 2.84-.4l.12.72c.51-.11.75-.04 1.19-.05.18-.01.3-.14.44-.15.8-.04 1.38.04 1.96.14l.13-.75 1.47.09.73-1.58.53.22c.97-.32 1.62-.04 2.58-.35.39.09-.39.36-.62.46-.35.15-.64.06-.92.22s-.26.45-.91.62l.95.31-.36.42c.69-.24 1.13-.18 1.89-.26-.12-.26-.01-.48.85-.71.35.37 1.21.58 1.12 1.03.47-.32 1.07-.79 1.51-1.07s.73-.37 1.15-.62l-.95.13c-.14-.38.24-.81-.17-1.15.96 0 .79.38 1.95.18l-.52-.22 1.85-.55c.09.29.29.43-.88.56l.54.37-1.16.3-1.22-.13c.22.37 1.25.51 1.05.96-.04.1-1.06.4-.84.49 1.79-.21 2.23-.69 2.23-1.18l1.41-.19-.19.32c-.47-.11-.95-.06-.68.17.09.08.42.28.55.34.42.17.91.23 1.68.17l-.73-.06c-.44-.53-1.17-.7 1.3-1.05l-.07-.43-1.39.48c-.28-.53 1.14-.65 2.04-1.18.13-.07-.09-.44.14-.57.67-.07 1.19.21 1.7.18 1.21-.06 1.9-.41 3.06-.52.16.4-.86.4-1.85.53q-.16.54-.34 1.07c-.5.07-1.78.2-1.75.47.02.15.67.23-.03.5.66-.07 1.26-.16 1.9-.24l.15-.61 2.17.01-1.04-.45 1.42-.19.88-.7c-.35.59-1.17 1.06.18 1.38l-1.58.71c-.9-.08-2.64-.21-2.59.34.93-.3 1.64-.05 2.59-.19 1.59-.23 1.02-.09 2.63-.21.45-.03 2.49-.56 3.06-.23.31-.14.47-.25.72-.38l-2.37.15-.08-.43-.68.22-.77-.33 2.64-.46 2.53-.42a6 6 0 00-2.15.05c-.62.09-1.59.67-2.03.53-.64-.2 1.68-.86.72-1.09l1.43-.18-.42.34c.87-.1 2.51-.23 3.06-.1.64.15.01.25.46.48.37.19 1.56.47 2.15.66l-.31-.54.92-.26-1.4.32c-.04-.26-1.14-.46.28-.76.39-.08 2.23-.02 2.92-.23.09.09.05.18.09.28l2.36-.29c.16.1-.68.33-.79.47-.04.05.34.03.27.11-.19.22-.95.36-.76.6l1.32-.9 1.46.12-.53-.44.41-.43 1.42-.03-.01-.28c.74-.08 1.52-.37 2.13-.27l-.28-.32c1-.42 2.46-1.02 2.37-.23l1.13-.43-.16.61 1.45-.03c.01-.21-.05-.39-.32-.55-.39-.22-1.21-.29-1.27-.58 1.24-.17 1.74.22 2.7.24.68.01 1.06-.17 1.68-.1.5.06.63.31 1.22.36.87-.13 1.11-.31 1.12-.57h.01l.94-.11.07.43 1.91-.08c.13.26-.01.32-.91.4l.57.67 1.89-.22-.87.69 1.85-.51c-.01.29-.12.73.8.77.92.03.59-.2.71-.36l1.42-.17c.1-.35-.62-.43-1.11-.66l-.01-.53 1.02.32.91-.1.07.43 2.3-.56.63-.95.32.55c.32-.02.62-.1.95-.1.03 0 .03.12.25.1.22-.03.18-.14.22-.15.24-.08.42-.02.66-.1.75-.24 1.11-.46 2.13-.52-.22.17-.37.21-.92.25l.56.67-1.43.02c.43.15.24.26.07.5.53.15 1.08.12 1.88.02l.07.27 1.42-.15-.05-.44c-1.38.43-2.56.2-1.2-.14.56-.15 1.22-.09 1.86-.24.55-.14.84-.42 1.63-.46l-.55-.67-1.42.16.03.29-.96.1.91-.47-.98-.33 1.1-.63c.76.22 1.63.05 2.66.07l.42.1-.35.19c.5.16 1.07.12 1.89.01 0 .44-.27.69-1.61 1.06-.28.08-1.3.22-.85.38l1.79-.33.8.05c-.17-.15-.06-.7.92-.51.09.01.2.37.74.32l1.15-.41.59.11c.45-.26.47-.4-.17-.53l1.11-.06 2.2-.51-2.38.26.88-.69-2.32.69.85-.75 1.46-.08-1.98-.38 2.89-.02 1.78.84 1.64-.32.56.68-2.37.25c0-.29.16-.5-.99-.33.8.34-.14.68-.83 1.11l2.32-.54.05.44c-.95.14-1.41.33-2.35.25.02.1 0 .19.04.29.38-.12.98.02 1.15 0 .83-.12 1.59-.6 2.28-.65 1.59-.1.24.7.43.78.66.25 1.04-.24 1.13-.36.23-.32 0-.49 1.15-.57l-1.94-.09 3.3-.35c-.54-.26-1.23-.33-2.39-.19.03-.37-.26-.63-1.07-.84l1.43-.07c-.02.25.06.41.78.48l.46-.17.27.26 1.84-.7c-1.3-.13-.53.36-1.65.37-.71.01-.82-.28-.77-.48l.92-.25c-1.53 0-2.73.13-4.26.45-.04-.24.8-.21 1.17-.43.34-.2.19-.48.86-.66 1.44-.26.24.34.35.36.9.2 2.06.19 3.09.3q-.01-.22-.04-.43.48.07.98.17c.5-.29.96-.1 1.39-.16.94-.13.61-.55 1.63-.72q.14.29.3.56c.54-.15-.21-.29.7-.29q.69.02 1.42-.07c.11.42-.26.86.84 1.09l2.11-.58-1.45.14.37-.18c-.84-.17-1-.37-.95-.71l1.91-.2-.01-.28c.66-.15 1.17-.02 1.69-.04.7-.03.89-.26 1.61-.29.08.29.26.44-.88.53l-.4.91c1.22-.11 3.28-.64 3.26-1.05l.72.07.89-.52c.69.12.92.19-.01.43-1.03.28-1.84.3-1.52.75 1.93-.18 2.02-.89 3.89-1.08 1.43-.15 1.6-.35 3.01-.59.4-.06 1.01-.15 1.63-.2-.18 0-.53.13-.72.33-.43.44-.2.77-.37.91q.36.13.72.08v.03l.58.09q-.16.1-.29.05c.08.05.07.04.1-.02s.08-.14.1-.13c-.04-.3-.25-.06-.19.09a1 1 0 00-.43-.13c0-.05.05-.18.19-.31.14-.12.33-.2.38-.22l-.32.02-1.11.83 1.49-.14h.02q.04.22.17.4-.04-.04-.16-.1l-1.5-.01.07.72q.77-.07 1.48-.17c.2-.04.27-.09.41-.12a2 2 0 00-.48-.56c.1.02.22-.06.33 0q.17.07.3.37c.18-.12.01-.66-.11-.73-.1-.09-.25-.01-.29-.05-.24-.19-.17-.15-.2.09q.13-.35.4-.61c.09.04.23.19.29.47.19-.03.23-.21.17-.35-.07-.16-.23-.23-.33-.2l.15-.26c-.08-.07-.17-.16-.28-.07-.05.04-.19.2-.2.23-.03.28-.03.34-.14.47l-.43.04.34.39v.03l-.01.01-1.37-.14.55-.33-1.91-.17.95.12-.64.76-1.35-.5.95.05-1.74-.96.53-.26.91.33.08-.42a16 16 0 00-3.73-.77l-.09.43-1.12-.39-.75.07.9.34-2.17-.08-.19-.33-1.4-.13-1.09.51c-1.33-.43-.15-.34-.41-.68-.03-.05-1-.25-.88-.09q-.04.1-.05.19l-.93-.19.04-.29-2.79-.58 1.05.66-.01-.01v.01l-1.8-.22c-.42-.07-.41-.1-.76-.16l.54-.25c-.58-.34-1.5-.5-1.3-.8-.5-.07-1.04-.01-1.45 0l-.21-.19c-.2-.06-.21.09-.25.08-1.22-.04-2.24-.5-3.5-.71l-.42-.39.13.62-1.4-.29c.21-.41-.08-.81-.72-1.34l1.9.25-.38-.53-1.85-.53c-.11.15-.5.24-.55.41s.33.44.6.64c.47.34.83.38-.09.43l-1.99-1.01-.1.42-.9-.17-.09.41c-.88-.18-.54-.41-.91-.61-.37-.19-1-.19-1.56-.36-.28-.09-.41-.24-.98-.33-.87-.14-2.53 0-3.52-.29-.16-.39 1.09-.46.66-.84l.95-.02c.94.23.14.4-.14.47-.27.07-.98.05-.95.2 1.55.31 2.94.42 2.94-.14l1.83.54-.33-.82c-.65-.13-1.16-.06-1.63-.34-.39.03.63.56-.55.17a6 6 0 01-1.03-.56c-.15-.4 1.56.06 1.48-.37-.73-.17-.28.14-.79.13-.72-.03-1.3 0-2.11-.14l-.12.57-.92-.27.56-.4-.89-.2c-.01-.1.02-.18-.01-.28-.98-.21-2.64-.67-3.21-.45-.56.21 1.59.52 2.02.77l1.1.25.41.46-.57.4-.85-.63-.94-.12-.14-.55-1.01.23c-.66-.23-.32-.35-.69-.57-.38-.22-1.67-.54-2.21-.63-.06.09-.07.18-.11.27l-.88-.17c-.29.23-.37.55-1.53.26l-.15-.47-1.14-.39 1.94-.04c-.79-.09-1.54-.02-2.22-.05-.89-.03-1.71-.25-1.69.12-.76-.09-1.86-.62-2.52-.81-.64-.19-1.02-.21-1.6-.36a7 7 0 012.37.2l.1-.26c1.83.27 1.66-.27-.15-.63-.4-.08-.41.21-.76.2l-1.41-.22c-.18.22-.62.34-.63.61a13 13 0 01-1.36-.44l-.1.42c-.96-.19-1.41-.15-1.49.13l-1.83-.54.46-.27c-.37-.51-.7-1-1.08-1.5-.87-.22-1.28-.51-2.09-.47l-.35-.67c-.76.06-.81.07-.31.46.4.33 1 .81 1.68 1.11.43.19.65 0 .96.21l-.55.26-1.12-.54c-1.12-.28-1.55-.05-2.61-.28l.05-.2-1.4-.4.38.53-.69-.15-.72-.17-.12.58c-.81-.15-.07-.38-.69-.45q-.91-.11-2.03-.34c-.42-.12-.92-.22-1.68-.85a3.4 3.4 0 01-1.13-2.27 3.5 3.5 0 01.79-2.51l.31-.35.21-.2a8 8 0 01.93-.76c.52-.12.91-.22 1.41-.37l1.39-.41c.78-.21 2.18-.53 2.87-.72 2.42-.67 4.27-1.05 6.67-1.59 1.44-.32 3.48-.99 4.42-.7.6.18-.95.34-.77.56 1.46-.22 2.24-.01 3.81-.46l-1.88.3.33-.68c.64-.16.99-.13 1.65-.23.41-.06.86-.25 1.38-.31.62-.07.92.13 1.7-.12l-.06-.28 1.67-.24c.2-.13.76-.34.37-.38-.94-.08-2.06.73-2.15.19l5.33-1.23c.88 0 .88.24.9.54l.41-.39c1.22-.49 2.58-.28 3.49-.41.9-.13.8-.41 1.67-.48-.14.22-.22.45-.33.67l1.25-.66-.5-.26 1.1-.24c1.12-.23 1.49-.23 2.54-.31.31-.03 1.18-.22 1.55-.2q-.23-.47 1.24-1.04l.14.57 2.71-.93-.86.5.83.41-.33-.38 3.71-.86-.11-.43 1.39-.32c-.38.31.02.35.14.56l-1.19.15-1.06.61 1 .14-1.88.29.95-.07.12.42c1.27-.3 2.24-.87 3.47-.82l-.44-.79c1.14-.32 1.57-.24 2.41-.2.59.03 1.04.05 1.36-.33.35-.41-.58.1-.94.08.55-.28.25-.39.58-.67.37-.31.87-.41-.12-.41l-2.4 1.17c-.11-.28-.34-.4.8-.65l-.09-.42 2.3-.54.08.27c1.02-.18.75-.38 1.67-.68.48-.15 1.41-.52 2.23-.65.81-.14 1.91-.02 3-.48q-.39.33-.81.65l1.58-.68 1.62-.25-.54-.17 1.85-.46-.32.68.67-.31.07.28 2.06-.51.1.27 1.17-.15c1.01-.61 2.45-.92 3.81-1.41l-.82-.24-1.1.43-.11-.43 1.11-.42.99.03 2.46-.93-.15.34.68-.18.16-.34c2.08-.59 4.15-.84 5.9-1.72 1.59-.02 2.88-.57 4.75-1.05.46-.12.92-.41 1.47-.4l-.05-.29 2.11-.33c1.19-.81 1.76-.77 3.2-.98.86-.13 1.45-.2 2.37-.43.41-.1-.14-.44.96-.59l.19.55c.65-.36 1.03-.45 1.41-.31-.93.29-1.5.42-1.27.72l-.86.29c-.05.3-.47.54.39.48 1.19-.48 2.53-1.03 3.72-1.54.31.27-1.26 1.15-1.45 1.57 1.18-.37 1.51-.27 1.55.09.53-.14.75-.3 1.05-.51.59-.44.38-.63 1.46-.98l-.1.5c.65-.05.1.34.07.5s.53-.04.67 0c.4.11.31.24 1.18-.11l.28.67-.71.11.37.33a32 32 0 01-3.35 1.34c-.34.12-.73.14-.92.2-1.71.48-2.1.7-3.81 1.33-.33.13-1.51.27-2.21.57-.25.1-.35.35-.94.56-.7.25-2.28.53-3.15.79-.73.22-1.5.57-2.25.8l-.08-.28-2.19 1.05-3.03.71-.1-.28c-.78.35-1.25.33-2.07.56-.82.22-1.36.6-2.27.76l-1.04-.18.38.5c-.61.26-1.56.3-2.05.43-1.52.4-2.56.91-3.97 1.05-.56.05-1.31-.14-1.72-.07-1.68.28-1.72.7-2.71 1.09-.57.22-.57.04-.94.14-1.93.5-3.6 1.24-5.47 1.74s-3.87.54-5.64.92c-1.4.3-1.75.68-3.06.71q.04.15.05.29c-.64.15-1.47.36-2.07.49-.41.1-.68.05-.95.11-.8.19-1.44.65-2.22.76-.93.14-1.12-.11-2.21.23l-.05-.19-.7.21-.52-.17-.59.59 1.42-.18-1.82.5-1.41.24-.1-.26-1.36.31c.15.33-.38.4-1.35.61l-1-.07.57.32-1.32.6-1.76-.19.34.36c-.51.18-.77.08-1.18.17-.41.08-.49.22-.92.33l-2.07.47-.08-.28-.47.1.06.29c-1.21.4-2.07.65-3.39.92-3.65.75-7.13 1.81-10.7 2.24-1.26.53-2.41.91-3.89 1.26l1.04.19-1.84.31-.83-.23-.45 1.02c-1.38.14-.56-.36-.68-.72a97 97 0 00-3.33.94c-.4.13-.66.07-.85.14-.52.19-.9.42-1.18.59l-.47.25-.14.04q-.1.03.01-.09c.08-.03.17-.06.38-.25.18-.17.44-.47.64-1.05a3.2 3.2 0 00-.29-2.6l-.18-.26a3 3 0 00-.83-.79c-.26-.17-.39-.23-.45-.27l.38-.04c.22.12.32.21.49.32l.26.16.28.15c.57.27 1.03.28.84.56l1.8.56.11-.42.88.19.11-.42 1.36.45c.17-.31 1.52-.39 1.42.16l-.94-.13.9.27-.07.43c.9.3 1.97.09 1.97-.17l1.11.53c1.35.07 1.86.01 1.79-.5l1.34.44v.28l1.55.64.78-.28-.89-.2-.67-.58-3.01-.64c.33.5.32.66-.86.71l-.06-.91-1.74.22.29-.23c-1.27-.3-2.05-.68-3.25-.71.19-.42.13-.72-.96-1.26-.51-.01-1.14-.06-1.66-.07l1.35.45-.21 1c-1.12-.34-2.28-.59-3.34-.93-.36-.11-.44-.27-.65-.36l-.54-.23c.15.01.5.13.75.25.26.11.37.13.27-.06a4 4 0 011.25 1.42c.7 1.16.51 3.03.03 3.79q-.34.6-.61.85c-.11.11-.16.16-.23.21l-.29.22c-.28.15-.16.03-.1-.02-.11-.29-.43-.47.36-.93l.17.4.75-.24.12.26.78-.24.13.25 1.28-.38-.05-.28 1.52-.57c.8-.02 1.03.34 2.15.03l-.07.62 1.54-.55c.11-.52-1.62-.35-1.66-.78 1.13-.09 2-.54 3.21-.81l-.88.45q.67.01 1.29.05l1.07-.34c-.73.52-1.15.93.01.98l.04-.76 1.85-.45.31-.68c1.51-.09.71.18.22.63 1.39.38-.5.42-1.17.35-.34.08-.32.24-.17.27.73.13 1.77-.2 2.79-.44l-.57-.32 1.35-.54-.03-.15-1.03-.13 2.77-.65c.38.21-.89.82-1.68 1 .12.35.83.28 1.93-.01l-.11-.42c1.3-.2 2.42-.59 3.7-.87l1.4-1.37 1.71.06c-.42.13-1.18.06-1.39.25s-.36.42-.34.6c1.28-.35 2.04-.77 2.86-1.26.58.06 1.23.02 1.7.16.31.09.19.22 1.02-.04l-.57-.32 1.61-.51-.32-.23 1.41-.32-.3.81 1.71-.99-.09.62.44-.21.79.23-1.85.42 2.19-.05c.56-.36 1.64-.62 1.53-.94l.87-.21-.09-.42.94-.15-.3.75 1.95-1.19c.72-.16 1.57-.41 2.23-.51.43-.06.71.07 1.01.02.86-.16.73-.1 1.6-.2.71-.08 2.98-.61 3.45-.42l-.78.78c.56.02.89.12 1.52.1s1.09-.21 1.01.13l.93-.21q.04.1.03.21c-.71.46-1.18.7-2.5.96-.89.18-1.17.12-1.81.58M77.73 57.45l-.02-.29-1.17.23.52.3-1.89.26-.56-.51 1.89-.26-.06-.44 2.11-.29.29.26.43-.27 1.41-.28-1.29.84.97.23c-.96.14-1.37.34-1.34.63zm-3.18-.37.23-.1.74.11-.22.11zm-2.85.4c.02.09-.43.16-.44.07s.43-.16.44-.07m-16.53 2.39c.01.1-.44.16-.45.07s.43-.16.45-.07m-4.26.57.94-.14.02.14-.94.14zm-8.49 1.36c.01.09-.44.16-.45.07s.43-.16.45-.07m42.55-6.01c.01.09-.44.15-.45.06s.44-.15.45-.06m-20.34 2.85c.02.09-.43.16-.44.06-.02-.09.43-.15.44-.06m42.12-5.65.96-.12c-.07.19.31.24.53.37l-1.43.18zm-12.7 2.24-.07-.28-.91.12-.04-.29.94-.13.56.52-.47.06zm-66.23 9c-.66.35-1.45.6-1.42.16l.73.02zm44.47-6.16c-.12-.14.23-.52.87-.57l.06.43zm41.11-5.78.96-.12.02.15-.96.11zm-67.6 9.49c-.4.21-1.62.06-1.44-.03.38-.21 1.62-.07 1.44.03m59.13-8.12-.04-.29.94-.12-.66.38zm-1.46-.1.47-.07.07.44-.48.06zM28.78 64.15l.94-.15.07.44-.94.14zm-4.61 1.22c-.27.12.23.37-.93.4-.03-.35 1.48-1.03 2.71-1.17l.1.58c-.62.1-1.26-.11-1.88.19m62.26-9.56c.51-.1.93-.1 1.42-.12s.99-.1.99.09l-1.89.26-.44.35zm32.75-3.51c.32-.23.53-.42.4-.63l1.44-.18.07.58zm-7.64.37.98.17-.94.12zm-8.52 1.17c.01.09-.44.14-.45.05s.43-.15.45-.05m-59.1 8.25c.13.47-1.69.53-2.78.72l1.14-.62zm14.73-1.62c.31-.25.51-.44.38-.65l.47-.07.09.58zm57.17-8.11c.02.09-.43.14-.45.05-.01-.09.44-.14.45-.05m-6.15.77c.01.1-.44.15-.45.06s.43-.15.45-.06m30.82-3.66 2.39.02-2.34.41zM16.2 68.41c.44-.09.02-.23.46-.37.26-.08.59-.23.94-.29.96-.17 1.31.04 2.04-.42l-.94.07-.15-.85.92-.23c-.61-.12-.42-.35-1.48-.13.04.11.56.09.3.24-.63.38-.89.3-1.25.74-.33.41-2.33 1.09-.84 1.24m116.7-18.05c.54 0 .84.08 1.44-.02l.08.58-.95.11zm-2.38.28.47-.05c.06.2.45.32.55.52h-.01l-.93.11zM48.67 61.58c.02.1-.43.16-.45.07-.01-.09.44-.16.45-.07m-4.11.99c-.5-.05.49-.56.72-.54.51.05-.49.57-.72.54M19.9 66.03c.01.29.55.36 1.48.2zm97.85-13.7.95-.11.02.14-.94.12zm-6.16.85c.02.09-.43.14-.44.05s.43-.14.44-.05m-4.26.47 1.91-.24.02.14-1.91.24zm44.58-5.17c.82.07 1.2-.03 2.07-.22l2.25.12c-1.19.49-2.46.23-3.78.63zm-2.86.32.96-.11.02.15-.96.1zm-52.53 6.69c.94-.11 1.43-.33 1.36-.62-.95.12-1.44.34-1.36.62m-7.49 1.59c-.6.07-.77-.13-1-.23-.4-.19-.69-.31-.58-.59 1.22-.21.81 0 1.01.23s.68.31.57.59m71.96-9.01 1.84-.63-.87.68zm-45.58 4.78c.01.09-.44.15-.45.06s.43-.15.45-.06m-67.64 9.09.95-.14.05.29-.95.14zm98.96-12.52.92-.32.05.44-.23.02zm-46.48 5.29.47-.06.04.29-.47.06zM8.17 68.35c.01.09-.43.16-.45.07s.43-.16.45-.07m155.14-20.81 1.5.28-1.44.15zM63.88 59.78c.01.09.46.03.44-.06-.01-.09-.46-.03-.44.06m49.17-6.49c.01.09-.44.15-.45.06-.01-.1.43-.15.45-.06m-3.3.42c.01.09-.44.15-.45.06s.43-.15.45-.06m-5.68.65.47-.06.04.29-.47.06zm38.84-4.51c.01.09-.44.15-.44.05-.02-.09.43-.14.44-.05m-1.88.22c.01.09-.44.14-.44.05-.02-.09.43-.14.44-.05m-54.49 7.05c-.21.08-1.31-.13-.85-.32.21-.09 1.31.13.85.32m41.27-5.27-.04-.29-.95.11.03.29zm-4.76.35c.01.09.46.04.45-.05s-.46-.04-.45.05M39.39 63.89c-.39.13-1.03.12-1.44.15l-.04-.29.94-.15zm144.5-17.6-.25.03-.65-.36.25-.03zm-67.87 7.44-.52-.3.68-.31.76.28-.91.33zm27.89-3.77.99.11-.69.3-.24.03zm47.49-2.24c.02-.09.46.01.44.1s-.46-.01-.44-.1m-35.98 1.92c.47-.16.35-.22-.04-.29-.72-.13-1.56 0-1.5-.35l2.4-.11.09.72zM15.02 68.61l-1.09-.56-2.84.25c1.35.29 1.55.76 3.93.31m88.16-13.69.95-.12v-.01l.02.15-.95.12zm41.32-4.14 1.42-.16c0-.11-.43-.07-.39-.19s.51-.26.33-.39l2.08-.39 1.27.38c.13.27-.26.21-.93.32l-.26-.12-1.64.04-.46.35h.01c-.05.12-.43.22-.44.34l-.48.05zm-68.73 7.97-.02-.14-.94.13.02.15zm56.37-6.83-.04-.29c-.49.03-1.54.28-1.38.46zm-5.99 3.95c.33-.14.31-.4.72-.51s1.11.17.88-.19-.7-.12-1.42-.23c-.33-.05.12-.42-.59-.41l1.39-.4.34-.85c-1.04-.19-1.81-.46-3.36-.25.08-.09.54-.28.43-.35l-1.87.38-.03-.29-2.38.29.02.14 2.39-.14.04.29c.62-.05.87-.2 1.4-.32-.08.27.12.41.78.49l1.17-.21-2.32.5 1.02.46c-.81.09-.5-.27-1.3-.27-.42 0-1.32.15-1.83.21-.51.07-.78.06-.7.24 1.52-.21.79.41 1.53.62l-1.41.25.54.37 1.67-.07c.6-.24 1.16-.44 1.1-.71l.95-.04c-.08.28-.95.48-.85.76 1.07-.17 1.01.13 1.69.24m-78.4 7.4c.46-.2.76-.34.64-.54l-1.42.22c-.05.22.27.27.78.32m82.53-10.84-.05-.43-.95.11.06.44zm-55.84 7.1-1.25-.26-1.15.3 1.24.26zm-13.05 1.42.26.11-.47.07zm-14.82 2.5-.05-.28c-.91.11-1.55.24-1.84.57zm106.99-13.1c-.01-.23-.2-.49-.56-.67l-1.41.08zm32.67-4.55.65.36-.01.07-1.4-.29zm-65.42 7.78-.04-.29-.95.12.75.2zm-62.47 7.97-1.41.2.01.08.74.11zM172.9 43.19l-.93-.19.02-.15.94.2zm-32.19 8.02-.02-.15 1.88-.21.04.29zm35.94-7.32-.72-.07-.02-.01h.01l.72.08zm2.03 3.31c.01.1.46.05.45-.04s-.46-.05-.45.04M22.07 67.38l-.98-.07.08.43.23-.03zm60.88-9.11c.02.09.47.03.45-.06s-.46-.03-.45.06m48.27-6.02c.02.09.46.04.45-.05s-.46-.04-.45.05m-3.76.67-.03-.29-.48.06.04.29zm-43.34 6.89q.45-.39.85-.78c-.29-.08-.76-.22-.98-.3-.37-.13-.11-.2-.31-.34l-.63.68-1.89.26c-.28-.36 1.02-.31.83-.63-.06-.11-.98.05-1.17-.06-.22.32-.38.65-.59.96-.8.19-1.11-.05-1.69-.03-.89.03-1.36.22-2.1.41-.02-.33-.71-.46-.12-.86l-1.43.2c.67.39 1.13.79 1.17 1.31 1.21-.18 1.48-.45 1.33-.78 1.28-.03 2.95.29 4.33-.01q.1-.23.17-.46c.9.02.46.3.88.45.2.07 1.08-.11 1.35-.02m107.8-13.09c.07-.05.04-.12-.04-.08-.09.02-.04.13.04.08m-28.79-5.71-.94-.19.76-.14.24.05zm-55.54 14.52c0-.3-.54-.38-1.47-.25 0 .29.52.38 1.47.25m-12.33 1.23c.01.09.46.03.45-.06s-.46-.03-.45.06m41.67-4.84c-.39.2-1.59.01-1.42-.08.39-.19 1.59-.01 1.42.08m19.72-12.48c.02-.09.46 0 .44.09-.01.09-.46 0-.44-.09m35.43 7.11c.05.05-.01.19.09.36l.19-.22-.15-.19zm-62.96-13.01-.47-.1.06-.29.47.11zM22.73 68.38c1.18-.16.93-.3.87-.59l-.48.08-.57-.5zm1.26-1.17c.02.09.46.02.45-.07s-.46-.02-.45.07m147.12-24.84c-.22.07-.28.12-.46-.09zM86.77 58.05c.01.09.46.03.44-.06-.01-.09-.45-.03-.44.06m48.27-5.96c.01.09-.44.15-.45.05s.44-.14.45-.05M4.7 70.42c.01.09.46.01.44-.08-.01-.09-.46-.01-.44.08m115.21-16.29-.03-.29-.91.41zM60.79 61.7c.02.09.47.03.45-.06s-.46-.03-.45.06m-1.36.65h1.45l-.96-.01-.08-.42-1.19.04q-1.04.31-2.06.66l.96-.01-.02-.11.92-.23 1.03.44zm-6.66.54c.01.09.46.02.45-.07s-.47-.02-.45.07m97.46-12.46.95-.11-.92.4zm38.46-3.76c.01.09.44.05.44-.04-.02-.09-.45-.05-.44.04M86.34 58.47l-.04-.28-.95.12.05.29zm56.84-22.15c.01-.09.46 0 .44.09s-.46 0-.44-.09m4.63 1.05-1.39-.29.03-.15 1.39.3zm-18.73 16.82c1.51-.14 1.85-.61 3.24-.82q.02.13.07.28c.92-.06 1.81.06 2.3-.35.43-.35-.92-.06-1.37-.06l-.06-.01c-.11-.03.09-.13-.05-.17-.58-.17-1.12-.24-1-.56-1.47.16-2.32.65-3.76.59l-.36.93 1.4-.32zm43.48-5.71c-.09.47 1.89.19 2.39-.17-.46 0-.33-.31-.74-.28-1.43.13.02.6-1.65.45m12.58-3.28c.01-.09.46 0 .44.09s-.46 0-.44-.09m-32.2-6.76.06-.28.93.19zm39.53 8.03c.01.09-.43.13-.44.04-.01-.1.43-.14.44-.04m-52.33-10.86-1.13-.4-.01.01.06-.29 1.87.39zm39.56 12.16.91-.24c-.62.06-1.11.27-1.64.16-.78.23-.46.25-.28.41.27.24-.43.43-.33.68zM25.46 67.34l-1.91.17.05.28.68-.11.55.21zm119.61-30.77c.02-.09.46 0 .44.09s-.46 0-.44-.09m6.59 1.01c.06.16-.4.4-1.02.23l.08-.43zm-22.42-4.53c.01-.09.47.01.45.09-.01.1-.48 0-.45-.09m40.29 7.5.84.63-1.86-.39-.09.43 3.22.97c-.06-.19.36-.19.3-.39-.09-.31-.68-.72-.52-1zm17.31 6.74-1.47-.08.01.14 1.23.03zm-6.86-5.61c-1.57-.23-1.65.31-3.37-.1l.82.76c-.99-.31-1.94-.43-2.99-.6-.23-.04-.32.05-.62-.01-.87-.19-1.57-.66-1.57-.16l1.86.38-.14.72c.61.02.81.05 1.38.28l.11-.26.88.17.12-.42.88.17.09-.27.94.19-.39-.3.7-.07 1.14.38c-.9-.58-.88-.68.17-.86zM32.34 66.69c.2 0 .66-.09.69-.11.33-.21-.37-.29-.74-.32l-1.13.47c.55-.13.8-.06 1.18-.04m-10.6 1.55-.05-.29-.94.16.05.28zm108.62-15.23 1.41-.16.02.14-1.41.17zm57.74-8.17q.01.65-2 .34l.12-.58zM9.92 69.98c.02.09-.42.16-.44.07s.43-.17.44-.07m156.17-29.24-.03.14 1.45.08-.22-.12zm-36.35-7.81a4 4 0 00-1.2-.13l-2.01-.87 3.27.72zm13.99 3.06c.02-.09.46 0 .44.09-.01.09-.46 0-.44-.09M17.14 69.59c.02-.4-.08-.7-1.55-.49l-.84.73zm-2.46-.26c.01.09.46.02.44-.07s-.46-.02-.44.07m157.44-20.51-.02-.15-.94.1.02.15zm-22.35-11.49-.94-.19.06-.29.23.05zm-29.32 17.18-.02-.15-1.89.23.02.15zm-2.81.49-.04-.29-.47.06.04.29zm-19.85 2.68c-.25-.49-1.53-.26-2.9-.06l.06.44 1.45-.12zm83.83-9.67-.02-.14-.94.09.02.15zM30.73 67.09l-.99-.13.05.28zm107.24-14.68.95-.11.04.29-.96.11zm78-51.42.09.27-.9.29zm-90.4 24.68c-.84-.1-.2-.36.19-.75.2-.21-.31-.18.03-.37.38-.21 1.09-.36 1.26-.61q-.5-.12-1.07-.22l-.68.34c-.91.08-.4-.19-.41-.47l-.53.28-.61.32-.57.32-.26.15-.34.2.17.4c.45-.13.67-.16 1.03-.23l-.65.35q-.42.22-.75.43c.96-.3 1.7-.4 2.56-.55-.8.33-1.47.62-2.3 1.08l.77-.29.67-.2-.34.43c.55-.21 1.27-.44 1.83-.61m33.76 24.64c.06-.13-.17-.13-.53-.1zM65.22 62.32l-.69-.05-.34-.4-.42.5-.93.14.05.29zm-9.5.87c.02.09.46.02.45-.07s-.46-.02-.45.07m48.73-6.08-.08-.58-.94.12.55.52zM44.68 66.7c-.08-.32-.78-.34-.51-.75.18-.28 1.86-1.05 1.61-1.34-1.12.48-1.82.48-3.26.64-.02.23.53.04.99.07.67.05.52.36.56.58l-1.01-.29-.33.86q.98.1 1.95.23m94.77-46.71 1.37-.32.03.14-1.36.32zm38.89 22.69-.09.43c.67.16.99.13 1.44.07-.4-.23-.68-.39-1.35-.5m-.55.26c.01-.09-.43-.18-.45-.09s.43.18.45.09M134.8 21.18c.02.09.47-.02.44-.1s-.46.01-.44.1M20.39 68.83l-.74-.1-.23.11.75.1zm111.31-46.2c-.62-.14.04-.6-1.09-.47l.11.5zm-3.15 1.13 1.29-.58-.64-.51-1.9.37c.52.03 1.08.05 1.55.1.19.31-.63.34-1.34.6.15.36-.58.82-1.1 1.29l2.38-.43zm-5.23 30.54c.56-.07.81.15.94.27.13.11.07.22.1.34l-1.42.17zm31.39-2.47c.13-.14-.29-.6-.58-.63-.78-.07-1.04.17-.97-.22-1.21.01-2.28.84-2.25 1.13l.68-.37c1.05.03 2.05.08 3.12.09m7.24-12.33c.02-.09-.42-.18-.44-.09s.42.18.44.09m-6.37 11.51-.03-.29-.48.05.03.29zm-42.13 5.1-.54-.37-1.89.09c0 .53.88.51 2.43.28m-3.15 1.43c-.06-.13.2-.33.18-.46-.01-.15.16-.56.1-.64-.23-.25-.67-.21-.51-.49l-1.4.32.54.44-1.36.62.95-.13zm38.99-39.39-.06-.29-.47.11.07.29zm-6.56 1.22.92-.21.04.14-.92.21zM99.19 57.35l-.94.12.74.2.24-.03zm-62.28 9.07-.05-.29-.47.07.05.29zm-7.07 1.11c-.03.31.27.32 1.25.09.88-.2 1.58-.52 1.53-.82-1.15.15-1.55.21-1.35.57zm111.95-47.87c.02.09-.42.2-.44.11s.42-.19.44-.11m-4.5 14.45c-.08.02-.05.12-.26.07s-.2-.12-.21-.18zm38.74 15.34c.25-.48-1.62-.19-2.32-.21-.69-.03-.59-.13-1.1-.18l1.06.63zm27-43.01c.84-.46 1.89-.66 2.93-.96-.87-.05-1.56-.31-2.53-.28-.45.02-.44.14-.71.26l-.29-.22-.85.47.71.7zm-12.62 38.95c.01-.09-.42-.18-.44-.09s.42.18.44.09m-30 5.83c.05-.52-1.27-.49-2.48-.61-.02.51 1.06.57 2.48.61m30.56-42.89c.03.09-.41.2-.44.11-.02-.09.42-.2.44-.11m-84.18 48.26c.02.09.46.03.44-.06-.01-.09-.45-.04-.44.06m80.31-6.91c.01-.3.18-.48-1.01-.34l1.14-.68.71.06c.13-.45 1.31-.66 2.3-1.02-1.15-.25-2.01.02-3.33.24l.52.39c-.95.06-1.49.21-2.12.48l-1.19-.02.51.25-1.88.4c.85.2 1.75.05 2.84-.05-.07.34.69.24 1.51.29m-48.05-29.22c.02.09-.43.2-.45.11s.43-.2.45-.11m70.44-16.44-.08-.28-1.32.53q-.02-.17-.3-.22c-.47-.07-.48.09-.95.22-.47.14-.66.03-1.17.23l.13.42q1.5-.76 1.92-.24zm.31-.63c.03.09.45-.03.43-.12s-.45.04-.43.12M77.97 60.43c.02.1.46.03.45-.06s-.46-.03-.45.06m82.75-22c.18.14.28.47.62.57.65.19 1.06.25 1.6.49l-.16-.49zM55.79 63.69l-.02-.14-.95.14.03.14zm122.15-50.73c-.08-.18-.18-.35.34-.6.41-.2.29-.03.72-.14.31-.08.66-.32 1.1-.37l-.87-.55.38.51-3.26.71 1.48.02h.01l-1.86.44zm-42.23 40.38c.01.09.45.04.44-.05-.01-.1-.46-.04-.44.05m72.55-46.85c1.05-.34.54-.56.83-.81s1.06-.32 1.21-.61l-1.05-.22 2.37-.39-.6-.28 1.38-.41-.31-.98-1.37.41.13.41.92-.26.06.2-1.28.62.04.28-1.14.19c-.72.42-.79.63-.09.71-.7.47-1.32.81-1.1 1.14m-75.19 15.57c.02.09.48-.02.45-.11-.01-.09-.47.02-.45.11m50.88 21.7.22.12.74-.07-.22-.12zM78.55 61.09a10 10 0 004.24-.59l-1.05-.51-.43.35-2.4.04.1.58c-.32-.02-.11.01-.56-.01-.44-.02-.35.12.1.14m-47.98 9.42c.78-.02.77-.25.91-.43.18-.22.18-.4.63-.62l-1.48-.13c1.33-.24 2.2-.18 2.46.2l.42-.36 1.9-.16-.03-.28 2.34-.22.08.28 1.4-.22.38-.79.88-.15q-.06-.08-.04-.17l-.89.25c-.24.17-.88.05-.94 0-.19-.16-.01-.33-.1-.5l.93-.22-1.46-.07c.28-.21 1.06-.37.83-.58-.14-.12-.81-.14-1.17.12-.46.33-.71.67-.55.96-1.04.24-1.82.22-2.84.3-.08-.08-.28-.1-.46-.15l.83-.5c-1.79.3-2.58.75-2.68 1.31-.45.03-.7-.05-1.19.04l-1.51 1.06 1.05.57-.91.29c.39.02.84.18 1.21.17m140.22-20.82-.02-.15-1.89.35.27.26zm-49.2-19.75q.28.18.54.26c.18.14.53.3.71.43l.07-.29-.77-.19a3 3 0 01-.55-.21M53.92 64.12l-.02-.15-.95.15.02.14zm79.29-31.48-.06.28.47.1.05-.28zm34.89 7.69c.02-.09-.42-.18-.44-.09s.42.18.44.09m.93.2c.02-.09-.42-.18-.44-.09s.42.18.44.09M99.31 58.22l-.06-.44-.47.06.06.44zm-62.82 8.56-.03-.15-.94.15.02.14zm-12.66 2.46c-.09.17.35.43 1.01.1.13-.07.06-.4.63-.51l1.02.27c.42-.21.91-.49 1.05-.7.08-.12-.15-.11-.22-.18l-.2.34-1.02-.28c-.99.12-1.47.31-2.11.63l-1.63.12-.4.51q.93-.16 1.87-.3m116.63-16.31c.01.09.46.04.45-.05s-.46-.04-.45.05m-5.44-30.82c-.15-.16.19-.33.35-.54l-1.38.34c-.05.16.41.39 1.02.2M20.95 69.18c.02.09.46.02.44-.07-.01-.09-.46-.02-.44.07m-6.51 1.59c-.73-.55-2.38-.48-2.35.39zm176.63-26.21c-2.62-.57-1.68.24.36.67zm-66.01-13.89-.68-.2c.51.3.93.6 1.79.78-.47-.32.01-.25.08-.43zm2.08.64-.03.15 1.4.31.03-.15zm25.61-13.06-.1-.43.95-.14-1.45.11.14.57zm-97.86 45.8c.02.09.47.02.45-.07s-.46-.02-.45.07m92.8-44.49c.09.6.96-.12 1.58-.3.83-.24.61 0 1.17-.43.16-.11.56-.5.36-.58l-2.37.4.62.53zm-1.04 33.03-.03-.29-.48.06.04.28zm35.56-3.61-.03-.29-.96.1.75.22zm-1.89.19-.03-.29-.91.38zm33.9-45.19c.4-.06.56.07.89-.29.32-.35-.07-.5.05-.84.09-.24.84-.69.63-.89l-1.34.5.34 1.04-2.26.68c.44.18.88-.09 1.69-.2m-77.81 17.56c.02.09.45-.01.43-.1s-.45.01-.43.1m2.18 32.19-1.68-.31c-.3.18-.67.2-1.15.28l-.39.78c1.23-.39 1.58-.1 2.85-.19zM17.68 69.87c.02.09.46.01.45-.08s-.47-.01-.45.08m66.97-9.91c.01.09.46.03.45-.06-.02-.1-.46-.03-.45.06M201 6.24l-.42.25-.7.13c.62.02 1.05.11 1.93-.15zm-81.85 49.31c-.67.19-1.02.33-1.65.2l-.22.1c.61.11 1.03.26 1.93.13zm-59.97 8.23-.05-.28-.47.06.05.29zm107.58-24.02c.02-.09-.43-.18-.44-.09s.42.18.44.09m-59.89 17.4c.02.09.46.04.45-.05s-.46-.04-.45.05m61.28-17.11c.02-.09-.42-.18-.44-.1-.02.09.43.19.44.1M36.56 67.21l-.99-.14.05.29zm105.97-32.67c.02-.09-.41-.18-.44-.09-.01.09.42.18.44.09m40.64 8.02-1.95.27c1.12.29.8-.02 1.45-.08.27-.02.65.07.95.12.35-.12-.31-.41-.23-.56.16-.29 1.07-.31-.51-.63zM.7 72.85c.02.09-.43.17-.44.08s.43-.17.44-.08M132.09 55.3l-.98-.1-.07-.65 1.74.07 2.09-.16c-.6-.08-.25-.37-1.24-.22-.76.12-1.3.26-2.1.24q-.04-.13-.06-.28c-1.16.1-.97.26-.88.55l-.53-.38-1.89.23c.28.28.53.43.1.79l.74.13.44-.34.77.34zm15.11-19.77c.02-.09-.43-.19-.45-.1-.01.09.43.19.45.1M5.07 72.5c.62-.27.77-.14 1.41-.24l-.08-.43-1.39.38zm157.72-21.39-.03-.29c-.48.03-1.54.27-1.38.45zM65.81 62.97l-.05-.29-.47.07.05.29zm128.23-16.43q-.1.2-.26.36l.05.13q.15-.15.28-.35zm-39.73 5.93c1.08-.11 1.22-.28 1.38-.59.42-.03 1.08.04 1.43-.08l-1.46-.21c-.01.1.06.19.03.29q-1.46.16-1.38.59m38.57-4.52q.17.3.42.55.42-.12.74-.45c-.45.16-.85.08-1.16-.1m-1.14.41-.97-.2.03.29zm-39.79 4.3c-.77-.05-.2-.31-.62-.44-.17-.05-.98.13-1.11-.03l-.25.1 1.74.47zm16.26-12.82v-.01l1.14.39.25-.02-1.36-.51zm1.86.38 3.71.92-.36-.6c-.8-.25-1.11-.24-1.41-.57-.14-.16-.2-.44-.81-.56zm-26.73 12.82c.02.09.47.04.46-.05s-.47-.04-.46.05m33.85-12.09c-1.22-.08-2.36-.15-2.48.31.84.36.08-.06.65-.09.56-.02 2.05.23 1.83-.22M217.72 1.8l1.77-.73.1.27-1.77.74zM28.09 68.47c.01.1.46.02.44-.07-.01-.09-.46-.02-.44.07m101.86-45.01c.02.09.48-.03.45-.12s-.48.03-.45.12m31.16-7.14-.04-.14-.92.21.03.14zm35.68-8.36-.07-.28-.92.24.77.1zm-81.38 48.35.48-.06.03.29-.47.05zm45.85-18.22-.06.29.99-.09zm-99.7 25.42c.02.09.47.02.45-.07s-.46-.02-.45.07m51.53-6.55-.52-.3-.9.41 1.19-.01zm33.75-36.9.37-.46-1.45.11-.01.01.62.45zm1.26 32.59c.01.09.45.04.44-.05s-.45-.04-.44.05m-7.22-31.79c-.25.19.72.22.09.41-.74.24-1.38.29-2.11.36.64.52 2.2-.32 3.83-.45zm-2.51.81-.75-.04-.21.12.75.05zm7.56 12.92-.08.43.93.2.09-.43zm1.32.72 1.4.3h-.01l.02-.08-.66-.36zm19.93-20.25-.03-.14-.93.21.03.15zm41.2-9.81c-.03-.29-.69-.22-1.32-.23-.73.42-.6.61-.47.89zm-58.79 30.48c.01-.09-.43-.18-.45-.09s.43.18.45.09m49.98-28.32c.67.11.78.42 1.92-.32l-1.75-.06-1.09.51c.13.18.57-.19.92-.13m-40.71 9.66.74.05.23-.05-.11-.43zm-.56 20.11-.33.38 1.43.14-.36-.67zm-34.48-7.52c-.52.01-.85.03-.82.26l.94.22.1-.43zm1.13.41-.07.29.48.11.06-.29zm62.52-19.28 1.63-.26-.04-.28.86-.38-2.29.57-1.01-.04.61.45-1.33.55.98-.01zm-21.1 28.44c.02-.09-.42-.18-.44-.09s.42.18.44.09m24.04 9.99 1.41-.06-1.25-.54.05.43-1.2.12.42-.63c-2.43.47-1.59 1.07.59.97zm-8.84-37.43-.03-.14-.93.22.04.14zM32.24 68.63c-.47.06-.32-.13-.32-.24.98-.16 1.34-.5 2.31-.66.05.26-.53.45-.84.73l.99.14zm109.27-14.87-.03-.29-.95.11.04.29zm-48.49 5.88.66-.39-.94.13.04.29zm43.95-37.71-.87.44.76.04.22-.05zm7.98 12.68c.02-.09-.42-.19-.44-.1s.42.19.44.1m25.48 16.14-.03-.29-.48.05.04.29zm-6.23.8c.47-.18-.65-.43-.85-.35-.46.18.62.43.85.35M159 17.63c-.68-.03-.59-.28-.63-.53l-.94.22c.5.14.58.41 1.35.44zm32.77-8.22-.04-.15-.92.24.04.14zM38.01 67.35c.02.09-.43.16-.44.07s.43-.16.44-.07m143.77-17.89-1.38.36.95.12zm6.54 2.74c.86-.07 1.59.11 2.38-.15l-1.93-.04c-.05-.16.64-.3.42-.48l.96-.09-.01-.07-.98-.13.03.29-.46.05-.05-.44-1.41.21c.65-.25.38-.44.41-.7.39-.02.74-.02.92-.17.33-.29.5-.56.39-.83-1.12.3-1.2.62-1.31 1-1.27.09-1.19-.2-1.96-.32-1.56-.25-2.13.05-2.32.59a7 7 0 00-3.8.37c.17-.26-.72-.29-.96-.42-.23-.14.33-.24.34-.34.03-.18-.43-.2-.42-.36 0-.08.39-.14.35-.2-.11-.16-.92-.16-1.42-.08.44.24-.55.59-.29.81.39.36 1.41.38.98.88-1.02-.08-1.18.28-2.11.24l-1.63.5.97.04v-.2l2.79-.44c.06.29.67.4 1.5.44l-.02-.29 1.4-.14-.47-.17c.14-.14.27-.05.42-.05.68.01.85-.07 1.44-.21l-.88.82 1.65-.45 1.69.27.37-.55-.93-.27 2.39-.09-.42.63 1.91-.04zm-14.1-1.83-.01-.15-.97.1.02.14zm-44.16-26.49c.03.09.48-.03.46-.12-.03-.09-.48.03-.46.12m35.33-8.1-.03-.15-.93.22.04.14zM74.34 62.12c.01.09-.44.16-.45.07-.02-.1.44-.16.45-.07m89-10.33c-.22-.14-.59-.19-.52-.39l-.91.32c.45.1.77.17 1.43.07m16.03-39.02-.08-.28-.85.51zM39.48 67.27c.02.09.46.02.45-.07s-.46-.02-.45.07M24.91 69.8c.09-.2-1-.19-1.46-.06l.05.29zM204.72 6.21c.02.08.46-.04.43-.12-.03-.09-.46.03-.43.12M36.5 68.25c-.84.3-.95.32-1.67.19l2.76-.8c.2.28-.41.37-1.09.61m103.87-35.06c.01-.09-.41-.18-.44-.09-.01.09.42.18.44.09m2.67.04c-.68.03-.83.16-.8.43l.46.1.56-.4zM28.21 69.19c.02.09.46.02.44-.07-.01-.09-.46-.02-.44.07m105.32-45.36c-.02-.1-.08-.18-.08-.29l.92-.22c.01-.29-.11-.31-1-.06.01.1.08.18.08.29l-.95.23c-.01.29.13.3 1.03.05m-9.02 32.24-.02-.15-.94.12.02.14zm65.82-12.7-.08.42.93.2c.12-.13-.23-.54-.85-.62m-35.01-7.11-.03.14.93.19.03-.14zm-35.97 20.32-.07-.02.11-.02zl.94.3-1.41.17zm42.64-4.21-.55-.53-1.42.16c.1.18.94.28.49.52-.13.07-1.48.1-.63.23zm-7.25-33.08c.39-.21-.33-.1-.25-.31.04-.14.55-.47.27-.59-1.22.49-1.1.85-.02.9m39.67 28.61c.08.05.24-.27.15-.3s-.22.25-.15.3m-26.01-9.07-.05.29.46.1.06-.29zm-62.82 19.53c.01.09-.43.15-.44.06s.43-.15.44-.06m34.12-3.8c.98-.09 1.75-.43 2.59-.3l.23-.1c-.98-.2-2.2-.07-2.82.4m34.7-16.65 1.6.53 1.18.13-.46.12.62.34.7.01c-.15.23.55.43.76.68.06.07-.32.02-.27.09.11.17.41.29.27.43l-1.58-.62-1.51.13-1.12-.38c.22.26-.39.25-.42.43-.04.19.54.42.23.57l.96.13-.4-.46c1.12.26 1.84.37 2.62.25l.23.04c-.1.19.55.71 1.29.87-.08-.48.74-.75.25-1.29l3.73.77c.15-.37-1.03-.64-2.02-.87-.66-.12-1.21-.02-1.87-.25-1.13-.38-.11-.6-.08-.89 1.07.29 2.69.95 2.83.43l-1.41-.38.06-.2-1.22.05-.65-.43c-.12.17.24.33.39.53q-.46-.11-.92-.19l-.08.28c-1.56-.36-1.32-.81-1.92-1.3zM17.89 71.02c.01.09.46.01.44-.08-.01-.09-.46-.01-.44.08m131.83-36.01c.02-.09-.42-.18-.44-.09s.43.18.44.09m49.34-26.89.71-.12-.75-.02-.63.39zm-39.18 28.34-.74.07-.02.15 1.33.65-.33-.82zm34.97 11.7c-.56.66-1.34.93-2.07.84h-.03l.03.01q.56.1 1.13-.08-.3.27-.69.44.34.07.72.04c.44-.33.74-.78.91-1.25m-59.94-16.8-.09.43.48.1.08-.43zm40.81-17.54c-.17.11 1.06.15 1.43-.09.16-.11-1.06-.15-1.43.09M140.89 33c.01-.09-.42-.18-.44-.09s.42.18.44.09M218.1 2.91l-.09-.28c-.89.28-1.32.58-1.2.85zM171.24 51.7a19 19 0 002.44-.39c.56-.12.82-.12.6-.36l-2.38.09.05.44-1.91.05c-.11.35.35.26 1.2.17M55.62 65.64l2.31-.64.07.43zm80.31-41.95-.07-.29-.9.22-.1-.27-.46.11.61.45zm9.65 10.15c.02-.09-.42-.18-.44-.09s.42.18.44.09m23.24-18.11-.04-.15-1.82.58.31.23zm16.96 26.1.35.67.81-.43-.26-.12zm-21.15-25.2c.03.08.46-.02.44-.11s-.46.02-.44.11m-4.59 1.29-.07-.29-.46.11.07.28zm-98.2 47.39c-.88.2-.72.07-1.03-.04-.45-.16-1.02-.12-.98-.4.47-.05 1.11-.25 1.41-.13.38.16.61.34.6.57m95.87-46.86-.07-.28-1.39.32.02.07c.45.05.78.07 1.44-.11m-12.77 2.95.63-.44-.93.21.07.29zm-7.68 1.59c.02.09.45-.01.43-.1s-.45.01-.43.1M20.31 71.14l-.02-.15-.94.16.02.14zm147.38-19.22-.02-.15-.94.1.01.15zm-45.17-24.7c.01.04.19-.03.27-.07s.17-.11.15-.15-.13-.02-.21.03c-.09.04-.25.16-.21.19m71.4-17.16-.08-.28-.46.12.08.28zm-22.73 28.16c-.61-.01-.69.26-1.25.26-.85-.02-1.55-.37-1.48.07l2.37.18zm-28.8-16.29c.02.08.46-.02.44-.11s-.47.02-.44.11M94.82 60.5l.68-.31.25.04-.68.31zm47.56-27.63c.02-.09-.43-.18-.45-.09s.43.18.45.09m3.31.48-.06.28.46.1q.04-.14.06-.29zm19.05-16.22-.06-.29-.93.22.76.12zM67.93 64.21l.67-.32.47-.06.76.18-1.89.27zM197.14 9.15c.03.09.46-.03.44-.11s-.46.02-.44.11m-29.58 28.98c.01-.09-.43-.18-.44-.09s.42.19.44.09m7.43-23.26c.07-.22-1.01-.09-1.46.05.14.16-.2.32-.36.53zm-83 45.93.23-.03.75.2-.94.12zm-63.65 9.19-.47.07.05.29.47-.08zm182.6-64.5c.03.09.47-.04.44-.13s-.47.04-.44.13m-42.41 47.52c.51-.05.85-.23 1.41-.3.65-.09 1.45-.13 2.13-.22.09-.37-.5-.26-1.45-.14l.44-.34-2.18-.07c-.35.06-.53.3-.66.35-.75.29-1.42.41-1.36.74.67-.1 1.03.04 1.67-.02M155 35c-.21-.1-1.32.04-.87.26.2.1 1.32-.03.87-.26m6.86 18.12c.63-.02 1.94-.1 2.07-.37l-2.85.02c.28.07.32.36.78.35m33.33-8.44-.12.08q.25.39.37.84l.15-.04a3 3 0 00-.4-.88m-38.26-9.34c-.14-.17-.93-.29-1.35-.37.17.21.65.47 1.06.67.6.28.74.27 1.2.18h-.01c-.59-.26-.65-.16-.9-.48m-22.31-11.03-.07-.29-.45.12.08.28zm29.97 29.84c.22-.26.53-.48.74-.75s.36-.65.49-.91c.08-.15-.84-.03-.91.02-.41.3-.21.47-1.41.58l.02.15.94-.1zm7.42-2.31c.01.09.45.04.44-.05s-.45-.04-.44.05M1.1 74.66l1.41-.24.03.14-1.42.25zm123.43-47.58-.1-.27-.43.15.11.27zM70.3 63.95l.95-.14.02.15-.95.13zM197.96 9.46l.6-.46-.91.24.08.28zm-4.67 33.62-.06.29h.03q.23.05.44.12l.09-.27q-.22-.09-.47-.13zm-69.79-15.3c-.16.16-.41.3-.6.45l.47.12c.32-.12.73-.22 1.05-.35zM58.51 65.65l.94-.14.02.15-.93.14zm92.64-11.58c.01.09-.44.14-.45.05s.43-.14.45-.05M138.61 31.1c-.68.03-.84.16-.81.43.76.25 1.64.1 1.94-.04zm8.28 23.37.47-.05.03.29-.47.05zm-3.5-21.76.57-.47-.94-.05-.86-.63zm-5.54-9.26c.03.09.46-.02.44-.11s-.46.02-.44.11m1.46 31.96c.01.09-.44.15-.45.06-.01-.1.44-.15.45-.06m28.89-3.11.95-.09.03.29-.94.09zm19.93-10.21c.02-.09-.41-.18-.43-.09s.42.18.43.09m-23.7-5.28-.06.29.93.2-.64-.44zm-13.21 17.76-.03-.29 1.86-.35c.02.38-.7.55-1.83.64M54.77 66.43c.01.09-.44.15-.45.06s.43-.15.45-.06m135.76-16.12c.01.09.46.05.45-.04-.01-.1-.46-.05-.45.04M49.12 67.27c.01.09-.44.16-.45.07s.43-.16.45-.07m139.97-16.83c.01.1.45.05.44-.04s-.45-.05-.44.04m36.02-49.1c.03.08-.38.24-.41.15-.04-.09.38-.24.41-.15M33.58 69.6l-.94.15c.08.15-.01.26-.41.43l.98.07zM222.45 2.29c.03.09.47-.06.44-.15-.04-.09-.47.07-.44.15M27.49 70.71l-.02-.14-.94.15.02.14zm147.4-18.87c.01.09.46.04.45-.05s-.46-.04-.45.05M71.76 64.03l.47-.06.05.28-.48.07zm91.28-10.81c-.38-.16-1.74.15-2.38.16-.06 0-.29-.19-.72-.05-.19.06-.21.09-.22.17.29-.06.65-.05.94-.12.03.08.02.1.02.16-.4-.02-.38.18-.43.19-.36.08-.64.05-1 .12l.03.01c.05.04-.03.12.26.1l.46-.05c.36-.05.08-.11.25-.18s.55-.06.44-.19l.95-.1-.9.46.98.26zM70.35 64.31c.01.09-.44.15-.45.06s.43-.15.45-.06m46.8-5.87c-.9.14-1.55.18-1.94-.05.91-.14 1.55-.18 1.94.05m-55.77 7.09.95-.14.05.29-.95.13zm134.66-19.56c.1-.01-.01-.52-.1-.5-.08.03.02.51.1.5M60.91 65.67c.02.09-.43.15-.45.06-.01-.09.44-.15.45-.06m93.26-45.73c.02.09.46-.01.44-.1s-.46.02-.44.1m-58.8 41.08c.01.09-.44.15-.45.06s.43-.15.45-.06m-8.84 1.99c-.04-.14-.01-.37-.08-.5-.13-.29-.62-.1-1.22-.2l.32.54-.92.28zm-67 9.07c.01.09.46.02.44-.07-.01-.1-.46-.02-.44.07m63.64-9.05-.05-.29-1.2.02-.23.11.53.29zm47.19-6.27c.01.09-.43.14-.45.05-.01-.09.44-.14.45-.05m58.54-16.07.36.67.76-.14 2.83 1.62h.01l-.38-.66-.91-.2.38-.67-1.36-.56zM67.53 64.86c.01.09-.43.15-.45.06-.01-.09.44-.15.45-.06m91.34-29.43.66.36.25-.02-.66-.36zM38.85 69.36l-.76-.17-.66.32.01.07zM144.09 55.3c.01.1-.44.15-.46.06-.01-.1.45-.15.46-.06m-3.71-31.63-.11-.42-.95.22c.14.16-.2.33-.36.54zm-2.41 32.56-.03-.29 1.43-.17.02.15c-.61.04-.89.19-1.42.31m-46.33 5.5-.01-.14-.95.13.02.14zm-2.36.32-.02-.14-.95.12.02.15zm94.94-22.18.27 1.1.58-.48c.77.31 1.33.5 2.1.44l.61.35-.44.05.91.26-.36-.59-1.39-.36.08-.43zm2.6 1.51c.02-.09-.42-.19-.44-.1s.42.19.44.1m-27.57 12.47c.05-.07-.06-.1 0-.16-.19.05-.4.03-.44.13-.04.09.32 0 .44.03m1.48-18.03c.01-.09-.43-.18-.45-.09-.01.09.43.18.45.09m4.39-.05c-.12.24.57.49.26.72-.24.17-.93.22.48.47l.51-.56zm25.96 15.29c.68-.03.98-.16 1.38-.35a3 3 0 00-1.43-.08zM96.83 61.12c.02.09-.43.15-.45.06-.01-.09.44-.15.45-.06m-69.26 9.95c.01.09.46.02.44-.07-.01-.09-.46-.02-.44.07m97.15-13.41.04.29-.94.11zm32.36-22.97-.06.28.47.1.05-.28zM198.2 45.2c-.28-.8-.4-.33-.52-.28-.06-.4-.24-1.1-.55-1.55q-.72-.56-1.53-.81a4.8 4.8 0 011.66 2.5c.15-.03.27-.12.42-.13.18 1.42-.08 1.7-.36 1.55-.05-1.06-.36-1.53-.6-1.78-.25-.25-.47-.32-.8-.51.42.73.57 1.54.52 2.31q.15.14.29.31c-.09.46-.19.4-.26.44-.09.04-.09.18-.35.96v-.01q.66-.7.98-1.71c.32 1.59-.47 2.06-.71 1.82-.16.6-.48 1.22-.92 1.72.73-.23 1.63-1.72 1.9-2.47.41-1.1.82-.75.83-2.36m-88.59 14.34.47-.06.04.29-.47.06zm58.14-22.41c.02-.09-.42-.18-.44-.09s.42.18.44.09m-16.04 17.61c.01.09-.44.14-.45.05s.44-.14.45-.05m20.78-17 1.32.72.08-.43zm-74.68 23.4.23-.11.76.34-.47.06zM222.25 3.21l-.1-.27-.89.3.1.28zM30.88 70.69c.01.09.46.02.44-.07-.01-.09-.46-.02-.44.07m107.15-46.54c.03.09.46-.01.44-.1s-.46.02-.44.1m-3.11 32.44h.06l-.01.01h.02l-.73.35zm32.86-39.2c.02.09.46-.01.44-.1s-.46.01-.44.1M10.21 74.07c.01.09.46.02.44-.07s-.46-.02-.44.07m111.7-15.85c.01.09-.44.15-.45.06s.44-.15.45-.06m71.49-15.79c.02-.09-.42-.18-.43-.09s.42.18.43.09m-75.6 17.25c.33-.46.03-.96 1.74-1.24-.54.39-.77.61-.36.93zm28.69-36.99-.03-.14-.92.21-.09-.28-.46.11-.35.53zm-4.25.62c.02.09.46-.02.44-.1s-.47.01-.44.1m26.52 13.66c.86.14 1.26.3 1.83.6.39.2.66.07.96.05l-1.58-.69zM87.92 62.6c.01.09.46.03.45-.06s-.47-.03-.45.06m-8.5 1.17-.24-.04-.67.31.24.04zm72.11-30.54-.05.29.93.19.06-.28zm17.81 20.57-1.44.08-1.48-.51.58.82c.36-.01.81-.12 1.13-.12.55-.01.03.25.54.24zm-12.12-19.83c-1.45-.27-1.55.03-1.54.43 1.03.04 1.58-.05 1.54-.43m36.89 8.28c-.18.09 1.12.83 1.54 1.34l.21-.2a4 4 0 00-1.75-1.14m-74.08 16.28.47-.06.04.29-.47.06zm39.86-23.33-.02.07 1.87.39c.12-.19-.16-.34-.61-.57zM105.2 60.69l-.75-.2.95-.12.04.29zm-13.61 2.08a8 8 0 002.03-.64l-3.8.29zm89.74-23.12c.02-.09-.42-.18-.44-.09s.42.18.44.09M76.14 64.3c-.99.37-1.51.15-2.6.38-.45.1-1.39.59-1.08.72l1.59-.51 2.22.27zm49.36-36.79-.03.14.93.21.03-.14zM82.78 63.6c.02.09.46.03.45-.06s-.46-.03-.45.06m86.53-10.16c0 .09.46.04.45-.05s-.47-.04-.45.05M125.48 28.3l-.15-.41-.86.3.16.41zm24.3 3.97c.05.21-.22.72.87.6.06 0 .07-.29.51-.25.36.03 1.05.2.98-.01l-1.83-.53zM51.7 68.29l-.05-.29-.89.43zm134.19-16.37c.01.09.47.05.46-.04s-.47-.05-.46.04M139.5 30.25l-.06.28.47.1.06-.28zm2.84-6.52c.02.09.47-.01.44-.1s-.46.02-.44.1m-16.09 34.55c.01.09.46.04.45-.05-.01-.1-.46-.04-.45.05m31.93-24.26-.09.43.94.2c.11-.13-.22-.53-.85-.63M63.5 66.69l-.04-.29-.95.14.05.29zm132.21-15.83c.54-.35.98-.96 1.3-1.49a5 5 0 01-2.31 1.46l-.2.14c-1 .52.01.65 1.21-.11m-45.33 4.69.95-.11.02.15-.95.1zm40.76-3.98c.01.09.46.05.45-.04s-.46-.05-.45.04m-83.81 9.07c.01.09-.43.14-.44.05s.43-.15.44-.05m64.78-23.42-.03.14 1.41.29.02-.14zm12.38 14.91-1.43.14.02.14c.6-.08.91 0 1.44.01zM89.9 63l-.02-.15-1.88.4.02.15zm43.07-4.71c1-.29 1.49-.55 1.33-.9l-.45.35-1.42.17zm41.59-5.1c.01.09.46.05.45-.05-.01-.09-.46-.04-.45.05m-90.3 10.72-.98-.16.04.29zM193.08 41.7l.51.1q.31.07.61.17l.09-.28-.36-.11-.29.01zm-28.89 13.23-.09-.73-1.4.15.16.07c.34.18.43.36.4.61zm-7.62.16c.01.09.46.04.45-.05s-.46-.05-.45.05m-53.43 6.23c.01.09.46.04.45-.06-.02-.09-.46-.03-.45.06m39.31-37.09-.07-.28-.92.22.07.28zm-2.35.33-.25-.01-.65.38.25.01zm38.75 28.57-.04-.29-.96.09.03.29zm-47.64-25.11-.06.29.47.1.05-.29zm-21.44 32.6c.01.09.46.03.45-.06s-.46-.03-.45.06m76.29-21.56c-.97.18-1.97-.15-3.29-.38-.48-.08-.33.23-.79.2l1.35.51-.18-.34 1.2.1-.04.29 1.38.29c.13-.32 1.37-.17.37-.67m-36.63-7.46-1.05.37 1.4.3.11-.58zM80.97 64.51l-.01-.14-.94.13.02.14zm-7.74 1.23c.49-.25.96-.13 1.64-.23l-1.22-.12-.67.31zm-2.14.08c.01.09.46.03.44-.06-.01-.09-.46-.03-.44.06m51.92-6.56-1.43-.04c-.1.21.16.38.3.54l.08.14c.08.14.17.27.7.21zm1.69-32.61c.02-.09-.38-.19-.42-.1 0 .09.4.19.42.1m35.45 7.19 1.37.43h.01l.38.53.11-.57zm4.09 1.37c.02-.09-.42-.18-.44-.09s.42.18.44.09m-62.71 26.84.68-.39-.96.13.05.29zm85.42-9.28-1.25-.32-.23.1c.43.06.56.14.51.32zm-50.48-27.04-.25-.01-.63.38.24.02zm-2.55.56-.05.76 1.4-.27q-.65-.26-1.35-.49m-50.58 37.9c-.98.12-1.72.2-2.33.54l.69-.15.95-.01zm83.99-45.57-.63.45 1.44-.19zm-36.7 9.11.3-.68c-.85.33-.9.55-.75.8zm34.18 7.08 1.55.77.25-.03-.37-.59zm-59 26.83.67-.38-.94.12.04.29zm30.53-32.59c.02-.09-.43-.18-.45-.09s.43.18.45.09m46.34 24.14-.03-.29-.49.04.04.29zm-.97-.05-1.89.04.03.29a8 8 0 011.89-.04zM88.15 64.27l-.06-.44-1.19.02-.23.1 1.01.38zm-2.39.03-.04-.29-.9.41zm51.31-38.19c.87-.17 1.78-.79.58-.57-.39.07-.82.53-.58.57m37.07 27.78-.02-.14-.95.09.02.15zm-43.06 4.62-.02-.15-.94.12.02.14zm-51.94 6.55-.02-.14-.94.13.02.14zm78.92-31.66-.76.14.94.2.05-.29zm35.44 7.34c-1.36.01-2.5-.55-3.96-.81l1.08.64 3.06.51zm-4.52-27.02.46-.11.08.28-.46.11zm-37.5 42.95-1.89.29.4-.63-1.87.36c-.11.67 1.03.64 2.95.54zM139.01 26.1c.85-.29 1.61-.46 2.49-.77.9-.32 1.32-.51 1.03-.81-.86.24-1.15.65-2.06.91-.94.26-1.52.16-1.46.67m2.5 31.26c.01.09.46.04.44-.05-.01-.09-.45-.04-.44.05m1.37-26.99.47.1c.13-.26.06-.48-.82-.77h-.01zm38.67 8.13c.02-.09-.42-.18-.44-.09s.43.18.44.09m-46.17 19.8-.04-.29-.95.11.04.29zM15.16 74.72c.02.09.46.02.44-.07-.01-.09-.46-.02-.44.07m145.76-19.37c.01.09.46.04.45-.05s-.46-.04-.45.05m33.73-2.61c1.06-.34 1.06-.57 1.84-1.16 1.38-1.17 1.82-2.5.92-1.48a5.8 5.8 0 01-3.29 2.65 5.5 5.5 0 002.09-1.92 5.5 5.5 0 01-3.07 1.65l-.04-.29-.04.01-.9.08.03.29.9-.08.05-.01c-.14.2.08.6 1.51.26m-27.5-17.45-.03.15 1.87.38.05-.28zm4.16.99c.2-.03-.89-.59-1.33-.52-.2.02.9.59 1.33.52M146 56.92l-1.17.28.02.15 1.91-.07zm30.16-2.2-.55-.38-.96-.21 2.39.06c-1.21-.47-2.94-.28-3.78.44l.51.33zm-23-22.41c.02-.09-.42-.19-.44-.1s.43.19.44.1m-27.23 27.26-.04-.29-.93.11.04.29zm29.09-26.88c.02-.09-.42-.18-.44-.09s.43.18.44.09m-31.45 26.95c.01.09.46.03.44-.06-.01-.09-.46-.04-.44.06m-3.78.68-.04-.29-1.41.17h.01l.01.07c.45.1.76.16 1.43.05M163 34.13l-.05.29.99-.09zm-51.41 27.51c1.32-.21 1.69-.38 1.55-.79l-.88.55-1.9.1c-.05.33.27.28 1.23.14m-1.25-.36c.02.09.47.03.45-.06s-.46-.03-.45.06m61.6-25.66c.59.31.4.5.34.74 1.2.24 1.53.08 1.51-.28zm-31.75-6.42.88.49.06-.29zm36.22 7.12c-1.35.11-.07.65 1 1.1l.58-.48c-.35-.09-.82-.13-1.13-.23-.53-.16.05-.25-.45-.39m2.04 17.5c.01.1.47.05.46-.04s-.47-.05-.46.04m-32.26-23.13c.02-.09-.41-.18-.43-.09s.42.18.43.09m26.15 24.12-.06-.43-.46.04.05.44zM81.56 65.09c.01.09.46.03.44-.06-.01-.09-.46-.03-.44.06m-2.35.33c.01.09.46.03.44-.06-.01-.09-.46-.03-.44.06m20.34-2.23c-.11-.17.23-.31.4-.5l-.94.13.07.43zm35.88-4.46-.98-.18.04.29zm-5.65.82-.05-.44c-.64.04-1 .42-.89.55zm-51.49 6.14c.01.09.46.03.44-.06-.01-.09-.45-.03-.44.06m75.86-33.48c.01-.09-.42-.18-.44-.09s.42.18.44.09M167.6 55.3l-.97-.19.03.29zm-5.26.7c.47-.18-.63-.42-.84-.34-.47.18.63.42.84.34m5.41-21.33c-.61-.16-1.08.08-1.01.24l1.4.29c-.18-.2-.52-.36-.39-.53m13.61 19.79c.77.16 1.06-.21.95-.35l1.42-.15.19-.45-1.17.34c-.73-.21-1.41.06-2.36.16.45.01.83.42.97.45m-48.3 4.48c.01.09.47.03.45-.06s-.46-.04-.45.06m27.46-2.74-.03-.29-.48.05.03.29zm-56.25 6.3c.01.09.46.03.45-.06s-.46-.03-.45.06m82.28-8.96-.02-.14-.95.09.01.15zM144 29.56l-.05.29.46.1.06-.29zm40.08 8.49c-.62-.96-2.66-.88-1.22.05l.58-.19zm6.98 1.47c-.37-.23-1.59-.15-1.42-.05.39.24 1.59.15 1.42.05m-57.48 19.65c.01.09.46.04.45-.05-.02-.1-.46-.04-.45.05m26.55-27.72c-1.32-.27-1.37.14-2.44.09l-.15-.48-1.42-.17-1.58-.61.38.53-5.15-.93-.57.4c1.24.68 2.24.48 3.74.71l.41.46 1.4.22.18.33c1.75.42.65-.32 2.18.01l.4.46.69.22 1.98-.18c1.04.44 2.54.66 3.67.9 1.01.22 1.38.31 2.39.5h-.01c.53.09 1.46.31 2.07.44.19-.15.34-.02.53-.23s-.46-.36-1.36-.63c-.37-.11-.7-.44-1.07-.58l-.82.42c-1.96-.37-3.22-.26-3.17-1.11l-1.88-.23-1 .08zm-38.34 29.36-.99-.17.03.29zm49.08-25.94-.74.07.89.41.08-.43zm-28.06-6.6.41.38-2.36-.35.59.72 4.48.65.05-.09c.09-.17-.11-.17-.68-.34-.64-.19-.97-.35-1.6-.49l.04-.29zm56.3 15.08-.18.11c.28 1.04.29 2.04.14 2.95q.5-.48.93-1.1a8 8 0 00-.89-1.96m-39.98 13.22c.01.09.46.04.45-.05s-.46-.04-.45.05m17.98-20.11.93.2.06-.29-.23-.05zm-31.82-8.42-1.07.45 1.4.22-.03.29 2.29.63-.59.48 1.4.29c.25-.23-.16-.44-.58-.71-.27-.18.05-.2-.25-.34s-.8-.18-1.09-.39.11-.28-.2-.49c-.15-.1-1.06-.27-1.28-.43m-14.04 31.77-.02-.14-.94.11.02.14zm47.81-23.39-.06.29.99-.1zm9.82 1.88-.08.43 1.4.29.08-.43zm6.61 15.06-.19-.39c-1.35.52-2.18.81-1.97.96a8 8 0 002.16-.57m-59.45 6.33c1.16-.13 2.24-.18 2.78-.62-1.01.16-1.76.39-2.8.47zm45.84-22.83-.05.28.47.1.05-.29zm5.16.91-2.3-.62-.11.57 3.32.39-.33-.81zm-59.17-7.99c.02.09-.42.22-.44.13s.41-.22.44-.13m29.73 2.19-.46-.1.05-.29.47.1zm35.89 7.5c.02-.09-.42-.18-.43-.09s.42.18.43.09m-26.43-18.88c.03.09-.41.19-.43.1s.41-.19.43-.1m-41.04 4.42c.03-.09-.39-.19-.42-.1-.01.09.4.19.42.1m41.41 8.85-1.2-.1-.22-.12 1.45.08zm5.24.49c-1.71-.4-2.9-.38-3.41.04 1.95.46 3.16.61 4.31.3l-1.89-.24zm15.92 20.32-.06-.58-.47.04.06.58zM136.92 27.5l.95-.23.07.29-.94.22zm53.83 11.19-.03.14.93.19.03-.14zM168.5 20.41c.02.09-.42.19-.44.1s.42-.19.44-.1m-8.77 2.24-.07-.28.93-.22-.62.45zm-8.55 35.38c.01.09.46.04.45-.05s-.46-.04-.45.05m35.49-3.32-.03-.3-1.42.14.03.29zm-9.92 1.04-.51-.31-.94.1 1.23.31zM83.67 66.28c.01.09.46.02.44-.07-.01-.09-.46-.03-.44.07m43.09-35.48c-.18-.1-.33-.2-.54-.28-.43.21-.72.4-1.03.6.44.05.86-.07 1.57-.32m-.63-6.27c-.37-.24-1.54-.18-1.38-.07.34.24 1.56.18 1.38.07m73.69 25.03-.55-.2a7 7 0 01-.88 2.01l.11.08q.64-.63 1.1-1.37zM144.4 26.1c.02.09-.43.19-.45.1s.43-.19.45-.1m30.52 9.09c.02-.09-.42-.18-.44-.09s.42.18.44.09m7.04 20.27-.05-.44-.9.31.72.15zm1-19.13-.58.48.93.19.11-.57zm-12.31 20.42a7 7 0 002.31-.61 5 5 0 00-1.9-.02zm18.39-19.31-.6.62c1.02.04 1.59-.05 1.54-.43zm-32.26-6.17c.02-.09.46 0 .44.1-.01.09-.45-.01-.44-.1m7.71-9.26-.11-.43-.47.11.11.42zM64.38 69.14c.02.09.46.03.45-.06s-.46-.03-.45.06m98.82-37.19c-.68-.31-.89-.18-1.64-.35.72.55 2.07.6 1.72 1.1l1-.16c-.34-.18-.74-.44-1.08-.59m28.72 22.55-.03-.29-.47.05.03.28zm-59.29-28.7-.06.28.93.2-.63-.43zm51.23 29.32-.01-.14-1.44.14.02.14zm-42.55 4.54-2.41-.01.05.43zm-4.24.64-.06-.43c-.68.05-.97.18-1.38.38.45.1.77.16 1.44.05m41.58-4.74c.01.1.46.05.45-.04s-.46-.05-.45.04m-3.77.6-.99-.19.03.29zm-44.6-26.3c-.21-.02-.49-.02-.74-.02l-.21.13.76.02zm-10.7 32.4-.04-.29-.9.4zm78.77-21.33a6 6 0 00-1.95-1.42c-.33-.13-.33-.06-.15.09.38.3 1.34 1.13 1.79 1.64zm-35.3-18.82c.02.09.46-.01.44-.1s-.47.02-.44.1m2.13 10.76c.02-.09-.42-.18-.44-.09s.42.18.44.09m22.01 22.01c.01.09.46.04.45-.05s-.46-.05-.45.05m-44.82-26.93c.01-.09-.42-.18-.44-.09s.42.18.44.09m34.88 27.9c.01.09.45.05.44-.04s-.45-.05-.44.04m-43.49 4.84-.03-.29-.48.06.04.29zm-1.91 0c.02.1.46.04.45-.05s-.46-.04-.45.05m36.22-39.06 2.06-.63a6 6 0 00-2.83.23c-.52.24.35.43.77.4m-42.77 2.38-.03.15.9.21.04-.15zm33.05 34.04-.04-.29-.93.1.74.21zm-7.77-32.7-.07-.29-.47.11.07.28zm23.49 9.22c.01-.09-.43-.18-.44-.09s.42.18.44.09m.93.19c.02-.09-.42-.18-.44-.09s.42.18.44.09m3.69 21.31-.03-.29-.48.05.03.29zm-53.44-31.89-.1.11c-.71-.5-1.04-.55-1.21-.61l.5.13.03-.14-.49-.13c.18.06.52.11 1.27.64m69.36 30.25-.04-.13q-.66.16-1.3.22l-.4.04.01.14.4-.03q.66-.06 1.33-.24m-42.63-29.41-.03-.14-.94.22.03.14zM130.5 61.37l-.04-.29-.47.06.04.29zm-5.28-29.39-.14-.26c.04-.03.2-.08.63-.48l.19.23c-.45.41-.63.47-.68.51m36.07-9.01c.02.09.46-.02.44-.1s-.46.01-.44.1m14.26 11.53 1.37.44.05-.29-1.37-.43zm-33.27 25.34-.94.11.75.21.23-.03zm40.73-23.8-.03.15.93.19.03-.14zm-22.77-5.16c-1.09-.26-1.85-.33-1.95.04 1.12.26 1.85.32 1.95-.04m-33.91-7.23-.07.29.99-.08zm74.59 23.81-.29-.02a9 9 0 01-.53 2.21 9 9 0 00.74-1.61zm-48.2 11.5-.02-.14-.94.1.02.14zm16.77-25.79c.01-.09-.43-.18-.44-.09s.42.18.44.09m-34.02-3.81-.07-.28c-.44.07-1.5.47-1.31.62zm38.52 27.48-.02-.14-.94.09.02.15zm-8.94 1.22-.04-.29c-.61.1-.89.01-1.43.01l.05.43zm35.03-15.23.18.61q.42.81.67 1.69l-.04-.61a9 9 0 00-.81-1.69m-36.86-20.01c.02.09.47-.01.44-.1s-.46.01-.44.1m-56.75 41.82-.03-.29-.94.12.74.2zm33.26-38.08-.91-.18-.03.14 1.39.29.35-.52zm5.92 33.27c.01.09.47.04.45-.06-.01-.09-.46-.04-.45.06m-3.31-32.2c.02.09.46-.01.44-.1s-.46.01-.44.1m-1.85.44-.25-.01-.64.37.25.02zm43.56 7.59c-.71-.04-1.08.09-1.92-.09l-.03.14h.01l1.86.38zm-6.71 21.14-.03-.29-.91.38zm-16.86-33.2c.02.09.45-.01.43-.1s-.45.01-.43.1m30.11 31.83c.01.09.47.05.45-.04 0-.09-.46-.05-.45.04m-49.64 5.08c.01.09.46.04.45-.05s-.46-.04-.45.05m39.25-3.85-.03-.29-.47.04.03.29zm-54.76-24.3-.06-.14q-.09.04-.03.02c.07-.04.25-.11.73-.54l.09.11c-.49.44-.68.51-.75.56zm75.5 16.29-.23.56q-.15.9-.52 1.81l.35-.55q.31-.92.4-1.82m-4.67 6.28a10 10 0 003.25-2.76q-.75.74-1.67 1.29c-1.04.98-1.93 1.37-1.58 1.47m-54.63-28.18c.02-.09-.42-.18-.44-.09-.01.09.43.18.44.09m7.5 1.36.88.48.05-.29zm-19.47 2.98c.02.08.46-.04.44-.12-.03-.09-.46.03-.44.12m25.01-1.6c.02-.09-.42-.18-.44-.09s.42.18.44.09m-30.41-6.7.16.11c.26-.01.41-.05.67-.06l-.2-.12c-.2.03-.46.04-.63.07m40.46.13c.02.09.46-.01.44-.1s-.46.02-.44.1m17.34 33.55-.92.09.03.29.23-.02zm-3.75.45c.01.09.46.04.45-.05s-.46-.04-.45.05m-3.71-35.77c-.08-.15-.32-.22-.57-.31l.92-.22.03.2 1.01.01zm-6.13 1.06c.02.09.47-.02.45-.1-.03-.09-.47.01-.45.1m-39.74 1.39-.03.14.92.2.03-.14zm47 9.9-.05.29.46.09.06-.28zm7.88 1.85c.01-.09-.43-.18-.44-.09s.42.18.44.09m17.88 9.63c.11-.02-.17-1.23-.28-1.19a3 3 0 00.28 1.19m-63.93-19.62-.94-.2.03-.14.93.2zm33.81-3.38c.02.09.46-.01.44-.1s-.47.02-.44.1m-35.19 2.94-1.38-.3.02-.14 1.39.3zm33.83-2.47c.02.09.46-.01.44-.1s-.46.01-.44.1m-1.86.43c.02.09.46-.01.44-.1s-.47.01-.44.1m8.83 35.05c.01.09-.44.14-.45.05s.44-.14.45-.05m1.42-.07.48-.05.03.3-.48.04z" fill="#E3CDB7"/></svg>