<?xml version="1.0" encoding="UTF-8"?>
<svg xmlns="http://www.w3.org/2000/svg" fill="none" viewBox="0 0 17 16"><path d="M13.97 8H3.31" stroke="black" stroke-width="1.2" stroke-linejoin="round"/><path d="M6.14 12.22a.2.2 0 01-.28 0L1.78 8.15q-.06-.07-.05-.15t.06-.14l4.07-4.08a.2.2 0 01.28 0l.66.66c.08.08.08.21 0 .28l-2.99 3a.4.4 0 000 .56l2.99 3a.2.2 0 010 .28zm4.72-8.44a.2.2 0 01.28 0l4.08 4.07q.05.07.05.15a.2.2 0 01-.06.14l-4.07 4.08a.2.2 0 01-.28 0l-.66-.66c-.08-.08-.08-.21 0-.28l2.99-3a.4.4 0 000-.56l-2.99-3a.2.2 0 010-.28z" fill="black"/></svg>