<svg width="91" height="69" viewBox="0 0 91 69" fill="none" xmlns="http://www.w3.org/2000/svg">
<path d="M20.6295 64.0142V65.574C20.1232 65.8408 19.5588 65.9742 18.9363 65.9742C17.9374 65.9742 17.1028 65.6561 16.4324 65.0199C15.7003 64.3152 15.3343 63.443 15.3343 62.4031C15.3343 61.2948 15.7003 60.402 16.4324 59.7247C17.0754 59.1227 17.9135 58.8217 18.9465 58.8217C19.5486 58.8217 20.1095 58.9619 20.6295 59.2424V60.8022C20.1848 60.2891 19.6341 60.0326 18.9773 60.0326C18.3069 60.0326 17.7596 60.2686 17.3354 60.7407C16.9181 61.2059 16.7094 61.7669 16.7094 62.4236C16.7094 63.142 16.942 63.7132 17.4072 64.1374C17.8725 64.5547 18.4129 64.7633 19.0286 64.7633C19.6717 64.7633 20.2053 64.5136 20.6295 64.0142ZM25.0064 59.8274C25.6905 59.1569 26.5696 58.8217 27.6437 58.8217C28.7177 58.8217 29.5934 59.1569 30.2707 59.8274C30.9548 60.4978 31.2969 61.3564 31.2969 62.4031C31.2969 63.4498 30.9548 64.3084 30.2707 64.9788C29.5934 65.6424 28.7177 65.9742 27.6437 65.9742C26.5696 65.9742 25.6905 65.6424 25.0064 64.9788C24.3291 64.3084 23.9904 63.4498 23.9904 62.4031C23.9904 61.3564 24.3291 60.4978 25.0064 59.8274ZM26.0018 64.1066C26.4259 64.5444 26.9732 64.7633 27.6437 64.7633C28.3141 64.7633 28.8614 64.5444 29.2856 64.1066C29.7097 63.6619 29.9218 63.0941 29.9218 62.4031C29.9218 61.7121 29.7063 61.1443 29.2753 60.6996C28.8511 60.2549 28.3073 60.0326 27.6437 60.0326C26.9801 60.0326 26.4328 60.2549 26.0018 60.6996C25.5776 61.1443 25.3655 61.7121 25.3655 62.4031C25.3655 63.0941 25.5776 63.6619 26.0018 64.1066ZM36.3232 65.8203H34.9892V58.9756H35.9128L40.0791 63.5422V58.9756H41.4131V65.8203H40.4896L36.3232 61.2435V65.8203ZM50.4059 64.0142V65.574C49.8996 65.8408 49.3352 65.9742 48.7127 65.9742C47.7138 65.9742 46.8792 65.6561 46.2087 65.0199C45.4767 64.3152 45.1107 63.443 45.1107 62.4031C45.1107 61.2948 45.4767 60.402 46.2087 59.7247C46.8518 59.1227 47.6899 58.8217 48.7229 58.8217C49.3249 58.8217 49.8859 58.9619 50.4059 59.2424V60.8022C49.9612 60.2891 49.4105 60.0326 48.7537 60.0326C48.0833 60.0326 47.536 60.2686 47.1118 60.7407C46.6945 61.2059 46.4858 61.7669 46.4858 62.4236C46.4858 63.142 46.7184 63.7132 47.1836 64.1374C47.6488 64.5547 48.1893 64.7633 48.805 64.7633C49.4481 64.7633 49.9817 64.5136 50.4059 64.0142ZM57.8921 58.9756V60.125H55.4292V61.654H57.7895V62.8033H55.4292V64.671H57.8921V65.8203H54.0952V58.9756H57.8921ZM61.6489 58.9756H63.6397C64.0639 58.9756 64.4094 59.0132 64.6762 59.0885C64.9498 59.1569 65.2064 59.2937 65.4458 59.499C65.911 59.9094 66.1436 60.4602 66.1436 61.1511C66.1436 61.7942 65.9555 62.3039 65.5792 62.6802C65.1756 63.0838 64.5975 63.2856 63.845 63.2856H62.983V65.8203H61.6489V58.9756ZM62.983 60.125V62.1363H63.5269C63.9168 62.1363 64.2076 62.0645 64.3991 61.9208C64.6454 61.7292 64.7685 61.4624 64.7685 61.1204C64.7685 60.7851 64.642 60.5252 64.3889 60.3404C64.1836 60.1968 63.8689 60.125 63.4448 60.125H62.983ZM73.6185 60.125H72.0792V65.8203H70.7451V60.125H69.2059V58.9756H73.6185V60.125Z" fill="white"/>
<path d="M12.6172 54.0938L11.8359 52.1562L4.28906 52.1523L3.32422 54.0977L0.357422 54.1378L8.08877 39.1758L15.9075 54.0928L12.6172 54.0938ZM5.63281 49.4688L10.3047 49.4648L7.96218 44.7797L5.63281 49.4688Z" fill="white"/>
<path d="M24.8105 39.3887L24.794 45.023L31.994 45.0171L31.9757 39.377L34.8795 39.3857L34.871 54.0961L31.9802 54.0971L31.9857 47.5063L24.793 47.5058L24.8242 54.0996L21.9154 54.1046L21.9043 39.3926L24.8105 39.3887Z" fill="white"/>
<path d="M52.6953 39.4219L52.6827 42.1114L46.6705 42.113L46.6893 54.1406L43.7852 54.1495V39.3906L52.6953 39.4219Z" fill="white"/>
<path d="M68.9577 39.3927L68.9497 42.0948L62.9417 42.1045L62.9374 45.0098L68.9524 45.0055L68.9492 47.5234L62.9453 47.5195V51.5898L68.9531 51.5859L68.9409 54.1059L60.0508 54.0938L60.0469 39.3906L68.9577 39.3927Z" fill="white"/>
<path d="M75.1602 54.4964L78.2092 54.4809L82.5734 45.6554L87.1724 54.4734L90.3406 54.4576L82.6603 39.4141L75.1602 54.4964Z" fill="white"/>
<path d="M42.848 0.584657L42.8184 5.31494L42.8206 9.5875L42.8295 12.4237L42.7963 14.9352L42.5969 20.2059L42.4419 22.5865L42.1762 25.1333L41.8991 27.2023L41.3732 30.3113M42.848 0.584657L42.8516 0M42.848 0.584657C42.9575 0.566443 43.0674 0.550197 43.1776 0.535936M42.848 0.584657C42.5224 0.63881 42.2004 0.710361 41.8834 0.798869M39.4368 26.3303L39.375 26.3062L39.3245 26.2832C38.2325 25.7858 37.1822 25.2015 36.1839 24.5359C35.1969 23.655 34.2779 22.7007 33.4347 21.6813L33.2242 21.4268L32.2371 19.923C32.0601 19.6535 31.9037 19.371 31.7692 19.078C31.6249 18.7635 31.5061 18.4379 31.4142 18.1043L31.2294 17.4335L31.0896 16.441L31.0139 15.2747L31 14.1422L31.0165 13.7995C31.0436 13.2358 31.1135 12.6749 31.2255 12.1218C31.3793 11.3622 31.6118 10.6208 31.9192 9.9094L31.9316 9.88073C32.1533 9.36751 32.4124 8.8712 32.7066 8.3958L33.5457 7.04008C33.8607 6.55534 34.2129 6.0958 34.5991 5.6656L34.9368 5.28947L35.6455 4.60399L36.0709 4.20048C37.0963 3.3185 38.2094 2.54384 39.3927 1.88864L39.5468 1.80327L39.9621 1.57755C40.5724 1.2458 41.217 0.984885 41.8834 0.798869M39.4368 26.3303L41.6674 27.2038M39.4368 26.3303L38.5564 25.0716C38.3077 24.716 38.1053 24.33 37.9542 23.9231C37.7149 23.2785 37.6082 22.5922 37.6407 21.9053L37.6818 21.0359M39.4368 26.3303L39.5673 26.5171M41.8834 0.798869L42.2039 0.690233M41.8834 0.798869L41.2016 1.02993C40.6716 1.20953 40.2717 1.64967 40.1435 2.19436L39.9271 3.03915L39.7417 3.93545L39.6284 4.82144L39.5577 5.70572L39.489 6.63782M39.489 6.63782L39.4581 7.05691L39.4572 8.35681L39.544 9.61052L39.8165 11.0685L40.1669 12.4062L40.6128 13.6165L41.0004 14.3813C41.4368 15.2424 41.9786 16.0458 42.6132 16.7732M39.489 6.63782L39.6853 6.03594C39.9552 5.34723 40.3464 4.71247 40.8403 4.16176L40.8727 4.12559C41.3695 3.69156 41.9195 3.32242 42.5093 3.02703L42.671 2.94609M39.489 6.63782L39.4767 6.67539M36.0462 4.39726L35.604 6.49675C35.5441 6.92665 35.5078 7.5057 35.4861 8.00608C35.4553 8.717 35.5078 9.42804 35.6124 10.1319L35.6261 10.2242C35.6418 10.3296 35.6588 10.4347 35.6771 10.5396M42.4429 20.2254L41.8428 19.7871C41.1111 19.2527 40.4217 18.6625 39.781 18.0218L39.6406 17.8813C39.0404 17.2811 38.4915 16.6317 37.9996 15.9398L37.8337 15.7064C37.2804 14.9282 36.8168 14.09 36.4517 13.2076C36.0964 12.3491 35.8367 11.4543 35.6771 10.5396M35.6771 10.5396L35.6802 10.5359M35.6771 10.5396L35.2676 11.0186C34.8868 11.4641 34.5765 11.9652 34.3476 12.5046C34.1129 13.0575 33.9666 13.6438 33.9139 14.2421L33.8756 14.6765C33.8506 14.9608 33.8462 15.2466 33.8625 15.5316C33.9247 16.6164 34.2851 17.663 34.9041 18.556L34.9998 18.694M31.6837 10.5359L31.8672 12.2015L32.0274 13.1302C32.1314 13.7327 32.2911 14.3243 32.5046 14.8973C32.8819 15.9101 33.4231 16.8541 34.1065 17.6915L34.7228 18.4467L35.6777 19.3539C36.2779 19.924 36.933 20.4334 37.6334 20.8745L37.8336 21.0006C38.399 21.3566 38.9981 21.656 39.6223 21.8944C40.2087 22.1183 40.8146 22.2875 41.4322 22.3995L42.1837 22.5359M45.5134 0.619813L45.5429 5.35009L45.5407 9.62266L45.5318 12.4588L45.5651 14.9704L45.7644 20.241L45.9194 22.6217L46.1851 25.1684L46.4622 27.2375L46.9881 30.3465M45.5134 0.619813L45.5097 0.0351562M45.5134 0.619813C45.4039 0.6016 45.294 0.585354 45.1837 0.571093M45.5134 0.619813C45.8389 0.673967 46.1609 0.745517 46.4779 0.834025M48.9246 26.3655L48.9863 26.3413L49.0368 26.3183C50.1288 25.821 51.1791 25.2367 52.1775 24.5711C53.1644 23.6901 54.0834 22.7359 54.9266 21.7165L55.1371 21.462L56.1243 19.9582C56.3012 19.6887 56.4576 19.4062 56.5921 19.1131C56.7365 18.7987 56.8552 18.4731 56.9471 18.1395L57.1319 17.4687L57.2718 16.4762L57.3474 15.3099L57.3613 14.1774L57.3448 13.8347C57.3177 13.2709 57.2478 12.7101 57.1358 12.1569C56.982 11.3974 56.7496 10.6559 56.4422 9.94455L56.4298 9.91589C56.208 9.40266 55.9489 8.90636 55.6547 8.43095L54.8157 7.07523C54.5006 6.5905 54.1484 6.13095 53.7622 5.70075L53.4245 5.32462L52.7158 4.63915L52.2905 4.23564C51.265 3.35365 50.1519 2.579 48.9687 1.9238L48.8145 1.83843L48.3992 1.61271C47.7889 1.28096 47.1443 1.02004 46.4779 0.834025M48.9246 26.3655L46.6939 27.239M48.9246 26.3655L49.8049 25.1068C50.0537 24.7511 50.256 24.3652 50.4071 23.9583C50.6465 23.3136 50.7531 22.6273 50.7207 21.9405L50.6796 21.0711M48.9246 26.3655L48.794 26.5522M46.4779 0.834025L46.1574 0.725389M46.4779 0.834025L47.1598 1.06509C47.6897 1.24469 48.0897 1.68482 48.2178 2.22952L48.4342 3.07431L48.6196 3.9706L48.7329 4.8566L48.8037 5.74088L48.8724 6.67297M48.8724 6.67297L48.9033 7.09207L48.9042 8.39197L48.8174 9.64567L48.5448 11.1036L48.1944 12.4413L47.7485 13.6516L47.3609 14.4165C46.9245 15.2775 46.3828 16.081 45.7481 16.8083M48.8724 6.67297L48.676 6.07109C48.4061 5.38238 48.0149 4.74762 47.521 4.19691L47.4886 4.16075C46.9918 3.72672 46.4419 3.35757 45.852 3.06219L45.6903 2.98125M48.8724 6.67297L48.8846 6.71055M52.3151 4.43242L52.7573 6.53191C52.8172 6.9618 52.8535 7.54086 52.8752 8.04124C52.9061 8.75216 52.8535 9.4632 52.7489 10.1671L52.7352 10.2594C52.7195 10.3647 52.7025 10.4699 52.6842 10.5747M45.9184 20.2605L46.5185 19.8222C47.2503 19.2878 47.9396 18.6976 48.5803 18.0569L48.7207 17.9165C49.321 17.3162 49.8699 16.6668 50.3617 15.975L50.5277 15.7416C51.0809 14.9634 51.5445 14.1251 51.9096 13.2428C52.2649 12.3842 52.5246 11.4895 52.6842 10.5747M52.6842 10.5747L52.6811 10.5711M52.6842 10.5747L53.0938 11.0538C53.4745 11.4992 53.7848 12.0004 54.0137 12.5398C54.2484 13.0927 54.3947 13.679 54.4474 14.2773L54.4857 14.7116C54.5107 14.996 54.5151 15.2818 54.4988 15.5668C54.4367 16.6515 54.0762 17.6981 53.4572 18.5911L53.3615 18.7292M56.6776 10.5711L56.4941 12.2366L56.3339 13.1653C56.2299 13.7679 56.0702 14.3594 55.8567 14.9324C55.4794 15.9453 54.9382 16.8893 54.2548 17.7267L53.6385 18.4819L52.6836 19.389C52.0834 19.9592 51.4284 20.4685 50.7279 20.9097L50.5277 21.0357C49.9624 21.3918 49.3632 21.6912 48.7391 21.9295C48.1527 22.1535 47.5467 22.3226 46.9291 22.4347L46.1776 22.5711" stroke="#C69635"/>
<path d="M36.5879 30.1484H51.6738V31.7728H36.5886L36.5879 30.1484Z" fill="#C69635"/>
</svg>
