<svg width="91" height="40" viewBox="0 0 91 40" fill="none" xmlns="http://www.w3.org/2000/svg">
<path d="M21.6203 30.1863V31.7156C21.124 31.9772 20.5707 32.1079 19.9603 32.1079C18.9811 32.1079 18.1628 31.7961 17.5055 31.1723C16.7878 30.4815 16.429 29.6263 16.429 28.6068C16.429 27.5203 16.7878 26.645 17.5055 25.981C18.136 25.3907 18.9576 25.0956 19.9704 25.0956C20.5606 25.0956 21.1106 25.2331 21.6203 25.5081V27.0373C21.1844 26.5343 20.6444 26.2828 20.0005 26.2828C19.3432 26.2828 18.8067 26.5142 18.3908 26.977C17.9817 27.4331 17.7771 27.9831 17.7771 28.6269C17.7771 29.3312 18.0052 29.8912 18.4613 30.3071C18.9173 30.7162 19.4472 30.9208 20.0509 30.9208C20.6813 30.9208 21.2045 30.676 21.6203 30.1863ZM25.9114 26.0816C26.5821 25.4243 27.4439 25.0956 28.497 25.0956C29.55 25.0956 30.4085 25.4243 31.0725 26.0816C31.7432 26.7389 32.0786 27.5806 32.0786 28.6068C32.0786 29.633 31.7432 30.4748 31.0725 31.1321C30.4085 31.7826 29.55 32.1079 28.497 32.1079C27.4439 32.1079 26.5821 31.7826 25.9114 31.1321C25.2474 30.4748 24.9154 29.633 24.9154 28.6068C24.9154 27.5806 25.2474 26.7389 25.9114 26.0816ZM26.8873 30.2769C27.3031 30.7062 27.8397 30.9208 28.497 30.9208C29.1543 30.9208 29.6908 30.7062 30.1067 30.2769C30.5225 29.8409 30.7304 29.2842 30.7304 28.6068C30.7304 27.9294 30.5192 27.3727 30.0966 26.9367C29.6808 26.5008 29.1476 26.2828 28.497 26.2828C27.8464 26.2828 27.3098 26.5008 26.8873 26.9367C26.4714 27.3727 26.2635 27.9294 26.2635 28.6068C26.2635 29.2842 26.4714 29.8409 26.8873 30.2769ZM37.0064 31.957H35.6985V25.2465H36.6039L40.6886 29.7236V25.2465H41.9965V31.957H41.091L37.0064 27.47V31.957ZM50.8129 30.1863V31.7156C50.3165 31.9772 49.7632 32.1079 49.1528 32.1079C48.1736 32.1079 47.3553 31.7961 46.698 31.1723C45.9804 30.4815 45.6215 29.6263 45.6215 28.6068C45.6215 27.5203 45.9804 26.645 46.698 25.981C47.3285 25.3907 48.1501 25.0956 49.1629 25.0956C49.7531 25.0956 50.3031 25.2331 50.8129 25.5081V27.0373C50.3769 26.5343 49.837 26.2828 49.1931 26.2828C48.5358 26.2828 47.9992 26.5142 47.5834 26.977C47.1742 27.4331 46.9697 27.9831 46.9697 28.6269C46.9697 29.3312 47.1977 29.8912 47.6538 30.3071C48.1099 30.7162 48.6397 30.9208 49.2434 30.9208C49.8739 30.9208 50.397 30.676 50.8129 30.1863ZM58.1523 25.2465V26.3733H55.7377V27.8724H58.0517V28.9992H55.7377V30.8302H58.1523V31.957H54.4298V25.2465H58.1523ZM61.8355 25.2465H63.7872C64.2031 25.2465 64.5418 25.2834 64.8034 25.3572C65.0716 25.4243 65.3232 25.5584 65.5579 25.7596C66.014 26.1621 66.242 26.702 66.242 27.3794C66.242 28.0099 66.0576 28.5096 65.6887 28.8785C65.293 29.2742 64.7262 29.472 63.9884 29.472H63.1433V31.957H61.8355V25.2465ZM63.1433 26.3733V28.3452H63.6766C64.0589 28.3452 64.3439 28.2748 64.5317 28.134C64.7732 27.9462 64.8939 27.6846 64.8939 27.3492C64.8939 27.0206 64.7698 26.7657 64.5217 26.5846C64.3204 26.4438 64.0119 26.3733 63.5961 26.3733H63.1433ZM73.5703 26.3733H72.0612V31.957H70.7533V26.3733H69.2442V25.2465H73.5703V26.3733Z" fill="#1C1C1C"/>
<path d="M12.6172 20.0938L11.8359 18.1562L4.28906 18.1523L3.32422 20.0977L0.357422 20.1378L8.08877 5.17578L15.9075 20.0928L12.6172 20.0938ZM5.63281 15.4688L10.3047 15.4648L7.96218 10.7797L5.63281 15.4688Z" fill="#1B1B1B"/>
<path d="M24.8105 5.38866L24.794 11.023L31.994 11.0171L31.9757 5.37695L34.8795 5.3857L34.871 20.0961L31.9802 20.0971L31.9857 13.5063L24.793 13.5058L24.8242 20.0996L21.9154 20.1046L21.9043 5.39257L24.8105 5.38866Z" fill="#1B1B1B"/>
<path d="M52.6953 5.42188L52.6827 8.11136L46.6705 8.11304L46.6893 20.1406L43.7852 20.1495V5.39062L52.6953 5.42188Z" fill="#1B1B1B"/>
<path d="M68.9577 5.39272L68.9497 8.0948L62.9417 8.10452L62.9374 11.0098L68.9524 11.0055L68.9492 13.5234L62.9453 13.5195V17.5898L68.9531 17.5859L68.9409 20.1059L60.0508 20.0938L60.0469 5.39062L68.9577 5.39272Z" fill="#1B1B1B"/>
<path d="M75.1602 20.4964L78.2092 20.4809L82.5734 11.6554L87.1724 20.4734L90.3406 20.4576L82.6603 5.41406L75.1602 20.4964Z" fill="#1B1B1B"/>
</svg>
