<?xml version="1.0" encoding="UTF-8"?>
<svg xmlns="http://www.w3.org/2000/svg" fill="none" viewBox="0 0 210 17"><path d="M201.08 13.11q-.02.31-.8.24.02-.32.8-.24m-26.53-2.68-.02.41-.91-.05c-.29-.01-.65.03-.64-.13.35.01.67.06.92-.06.24-.13.07-.25.65-.17m.53-.28.5.55 1.3-.13c-.17.33-.74.4-1.57.32zm2.85.47.49.15-.77-.05-.28.29.04-.62.51.03zm2.04.24c.05.11-.19.33-.53.28l.02-.31zm-8.01-.57q.01.02-.01.05l.52.08c-.38.26-1.14.15-1.82.16-.41.01-.5.01-.77-.14l.66-.01.13-.21c.43.01.62.12.89.25l-.12-.21.51.03zm12.65 1.2-.26-.01.02-.21.25.02zM31.9 5.92c.6 0 1.12-.02 1.61.11.32-.32.81-.2 1.2-.27 1.06-.17 2.2-.32 3.11-.34.92-.03.79.02 1.71-.11.64-.09 1.58-.1 2.3-.15l-.1.22 1.16-.2c.1-.02.2.03.26.02.54-.11.98-.32 1.57-.36.4.1.36.31.95.21l-.29-.28c.39-.04.79.02 1.17-.02.21-.02.39-.13.52-.15a5 5 0 012.38.16l.75-.39.95.11-.56-.25c.37-.1.6 0 .92-.02.22-.01.26-.11.51-.13l2.46-.24.04.31.89-.29-.1.32.89-.4.59.57c.32-.08.02-.35.37-.5.3-.13.34-.01.65-.04s.3-.19.78-.25c.47-.07 1.5-.18 2.03-.19.64-.01.99.13 1.61.08.76-.07 1.34-.11 2.14-.16.19-.02.83.11 1.02.19.23-.26 1.01-.22 1.35-.32.33-.11-.01-.25.43-.34.07.06.19.12.26.19.19-.05.03-.1.35-.12.32-.03 1.38-.05 1.7-.03.53.03.47.19 1.01.12q-.02-.1-.02-.21l1.16-.09.02.21a6 6 0 013.91-.4c.36-.08.67-.22 1.08-.27 1.05-.1 2.32 0 3.32-.02a7 7 0 001.87-.22l.69.47-.03-.41c.39-.09.58.04.93.02.35-.01.13-.16.62-.22l1.47-.09 2.64-.24c.79-.07 1.64.07 1.67.46 0 .06-.34 0-.13.15.33.23 1.06.47-.6.57l.02.32c-.73-.18-1.48.17-.58.22a5 5 0 001.73-.49c.45-.39-.37-.59-.1-1.01.05-.06 1.36-.39 1.6-.42.34-.04.36.05.56.05.37.01.39-.12.77-.13.44-.01.91.12 1.42.04l-.5.44c.87-.04.84-.4 1.41-.59l.57.18.63-.08c.71.22 1.66.71-.24.48-.03.21.09.35-.02.57-.07.16-.34.26.2.36l.11-.42c.81-.07.94-.42 1.16-.68.09-.1-.35-.22-.13-.3.35-.12.86.13.77.27l.26-.01v-.2c.52.03.94-.14 1.41-.17.38-.03.42.09.8.08.7-.02.81-.2 1.69-.27.38-.03 1.88.09 2.51.08.17-.01.24-.11.51-.09.62.06 1.31.27 1.2.58l.39-.22c-.33-.13-.68-.2-.67-.4.66.13 1.24-.08 1.95-.05.16.01.47.23.67.17q-.02-.15 0-.3c.2-.07.79.05.87.04.53-.01.97.08 1.33.08.35 0 .58-.2.79-.2.62.02.94.24 1.35.37q.05-.1.13-.21l.76-.02.02.21c.59-.19.92-.26 1.72-.25.45.01.65.11 1.01-.12l.53.18c1.28-.23 2.3.1 3.55.16l.01.21.52-.06-.53-.36c.41-.05.8.07 1.15.09.57.02.93-.1 1.46-.12l.02.2 1.16.2 1.05-.43.56.2.5-.11-.13.42 1.44-.74.52.52.65-.42 1.04.1.02.21.64-.11v.21c.42-.12.72-.23 1.31-.2.33.02 1.51.12 1.75.09.77-.11.73-.28 1.54-.2l.02.2 1.68.33-.02-.21-.37-.11 1.46-.19c.89.18 1.62.02 2.6.14.42.05.8.3 1.43.2l.02-.2c.63-.03 1.55.16 2.09.28.39.09.3.19.77.07l.4.32.13-.42c.64.16.98.14 1.44-.07l.39.16c-.38.14-.23.23.13.37.22-.02.15-.15.27-.21.46-.24.71-.14 1.29-.11.95.05 1.71.02 2.64.11.17.02.39.13.65.11v.31c.65-.09 1.09-.3 1.83-.26l.01.2 1.03.03.01-.21.65.23 1.19-.17c.07.31-.51.13-.93.29-.18.06-.25.21-.4.29l1.31.05c.1-.17.17-.35.29-.51.32-.04 1.16.14 1.39.15 1.83.06 3.28.01 5.07.18.24.03.38-.09.77-.06.49.03 1.33.24 1.79.39l.79-.17 1.06.35c.51.01 1.04-.07 1.54-.02.62.06.84.21 1.44.07l.12.22c.9-.16 1.77.01 2.62.24l.14-.3c.66-.03.83.2 1.46.27.31.03.56-.13 1.04 0 .3.07.49.26 1 .14.42.18.27.36.95.38-.02-.63 1.14-.1 1.31-.07.96.14 1.29.06 2.06.18q-.01-.1.04-.2c.53-.05 1.48.2 1.88.23q1.58.15 2.87.21c1.02.04 1.31.22 2.15.36.71.12 1.32.08 2.06.2.16.02.4.15.64.14v.21c.96-.17 1.69-.04 2.71.13.58.1 1.04.14 1.64.24.24.03.41-.08.72-.02.24.04.57.19.91.18v.2c.7-.11.95.04 1.69.16.54.09.64.03 1.39.11.86.09 2.52.32 3.5.49.54.1 1.13.38 1.55.44.41.06.3-.1.7 0-.25.25.22.38.41.63.46.64.41 1.32.39 1.9 0 .15-.35.13-.3.25l.78.08c-.11.15.18.35.22.49.04.17-.22.19-.27.3h-.01c-.07.17.1.25-.04.42-.04.04.01.15-.07.18-.48.23-1.22.04-1.26-.28l-.64-.07-.02.21-1.14-.34.49.32-.42.22c-.4-.14-.81-.14-1.26-.26s-.43-.26-1.02-.19c-.26-.08-.52-.32-.75-.38-.72-.16-.14.36-.19.5l1.3.02-.03.31c.37.06 1.03.32 1.29.18l.01-.15.26.03.22.29.78.13-.04.41c.47.07.84.28 1.29.2l-1-.43c-.02-.34.36-.52.98-.68.34.2.7.3.57.54-.05.08-.5.26-.48.36.03.19.54.33.41.52l-1.54-.06-.68.24c-.16-.16.39-.18.53-.26.17-.09-.17-.21-.09-.32a2 2 0 00-1.18.09c-.35-.14-.29-.24-.36-.4-.05-.11-.49-.11-.62-.23-.17.12.21.22.05.38-.09.08-.61.14-.51.31-.82-.07-1.24-.4-2.03-.52l.75.34-1.41-.3c-.55.18-.24.44-1.19.31l.47.46c-.66.02-1.13-.25-1.66-.35-.93-.17-1.22-.12-1.63-.54l.81-.49-.79-.01c-.08.29-.63 0-.89-.15l.29-.29c-.74.19-1.04.36-.98.75l-.5-.04-.04.31-1.03-.09.25-.13-.35-.19-.53.15-.64-.14c.17.26-.04.47-.06.72l-1.42-.12c-.33-.01-.44.09-.8.05-.44-.05-.88-.24-1.39-.22.04-.14.39-.12.71-.14s.41-.01.35-.19c.47.08.82.11 1.29.1-.05.19.01.23.51.25-.13-.16.19-.22.2-.35s-.27-.18-.13-.32c.06-.06.6-.13.51-.22l-.92.02-.15.31c-.92-.13-1.37.13-2.22.14l-.24-.23-.17.51c-.8-.06-1.67-.04-1.78-.45l1.02.18.29-.4 2.59.1-.21-.64h1.3l-.02.31 2.44.41.67-.25-1.02-.25c.37-.14.77-.1 1.3-.04-.36-.31.27-.46-.33-.76l.1.43-.77-.07-.04.2c-.62-.06-.53.07-.52.27-.38-.01-.59-.03-.51-.19.04-.1.32-.15.15-.26-.37.17-.6-.06-1-.07-.29-.01-.33.14-.59.14-.48.01-.94-.02-1.42 0 .05-.14-.09-.27.32-.34.24-.04.52.12.75-.04l-.63-.2-.92.13.24.33-1.05.02c.01-.21.15-.39-.21-.59l.52-.06-2.06-.32 1.53.48-.28.24c-.71-.02-.27-.2-.76-.26l-.03.2-1.02-.07.38.23c.88-.09 1.2.04 1.8.35l1.16-.01q.1.27.23.54c-.28.01-.4-.2-.7-.26-.14-.03-.63-.03-.84-.07.04-.07.06-.19-.11-.22-.23-.03-.61-.13-.75-.14-.43-.01-.53.09-.94.01-.06-.33-.83-.41-1.39-.62-.08.08.05.27.25.32.3.08.36-.01.66.12s.53.45.97.58l-1.82.13c-.08-.32-.65-.47-1.37-.42-.52-.17-1.67-.23-1.93-.49-.03-.04.21-.02.17-.1-.01-.03-.15-.31-.44-.28l-.81.52c.21.11.43-.1.52.04.05.08-.14.15.01.26l-.8-.06.63.36h.13c.02-.09-.02-.21.04-.3.06.04.71.19.69.3-.01.04-.2.03-.14.11.1.12.71.31.01.35-.25.01-.57-.13-.61-.25l.52-.07c-1.26-.07-1.88-.4-2.68-.8-.27.07-.38.17-.53.28-.21.15-.12.24-.66.17.01-.11-.11-.36.16-.4.38-.06.72-.21 1.01-.23s.22.13.52.1c.24-.02.36-.1.68-.05l-.23-.17.38-.14.9.01a3 3 0 00-1.12-.11c-.27.01-.44.2-.7.15-.16-.15.23-.24.22-.35-.02-.15-.5-.18-.4-.36l-.53.3.19.38-.76-.26.5.35c-.62-.07-1.21.02-1.8-.11l-.27.25-1.32.17.78-.32c.09-.26.04-.21-.49-.29-.02-.01-.01-.09-.13-.1-.12 0-.11.08-.13.08-.18.02-.35-.02-.52-.02l.48.39c-.29.14-.19.27-.75.23l-.05.19-1.03.16-.62-.56-.67.44.5.28-.51-.02h-.01c-.1-.17-.19-.28.02-.42l-.53.29c-.37-.01-.57-.01-.5-.18l-.78-.1.78-.07c.09-.32.49-.5-.21-.79l.52-.34.63.35.53-.28c.36.16.3.35.89.36l-.14.41.65.03-.24-.47 1.06-.37-1.31.19c.02-.12.06-.38-.4-.42-.17-.02-.37.08-.61-.06l-.03.32-.77-.04.01-.15-.53.02.41-.4.51.34.14-.31.78.15c-.13-.16.16-.22.2-.35.03-.09-.19-.13-.19-.22l.03-.47-1.29-.18c-.04-.18.03-.29.41-.39l.75.14.68-.17.23.64c.65-.04.51-.29.85-.47.06-.03.56.03.61-.07l.39.23-.79.16.9.16.42-.29 2.07.02-.52.07.23.43.66-.16c.4.08.17.21.43.33.26.11.93.15 1.22.29l.79.05-.51-.24.29-.4c-.24-.02-.5.12-.7.16-.21.04-.68.14-.87 0a3.6 3.6 0 012.73.02l.02-.31.63.52q-.67.15-1.33.33c.32.09.11.34.64.29.28-.03.75-.33 1.03-.32.58.03.93.13 1.45.19l-1.15-.61.16-.19c-1.47-.25-.32-.6.29-.51l.61.57c.52-.11.31-.17.19-.35-.2-.3.69-.02 1 .02l-.01.31 1.05-.03-.51-.24c1.05.1 1.79-.06 1.86-.49l-.68.36-.35-.54.53-.17-.79.1-.51.27.21.28-.78.04v-.2l-1.82-.03.02-.31.52.14.41-.29.12.22 1.04.08c-.27-.5-1-.5-1.94-.36l-.51-.23-.93.14.15-.2-.91-.17.23.44-.5-.03-.04.2c-.56-.06-.84.04-1.3.12l.29-.39c.49.05.67.17 1.04.01l-.4-.18.16-.3-.79.15-.24-.43-.77-.05c-.03.17.7.1.49.28-.22.19-.43.08-.76.02l-.03.2-.78-.04c.35.24.73.34.11.53-.31-.14-.5-.23-.64-.42-.03-.04-.2-.26-.17-.31.06-.15.32-.19.21-.36l-.28.19c-.34-.03-.59.07-.9.06-.23-.01-.31-.1-.52-.11-.21-.02-.24.09-.51.03-.33-.07-.45-.26-.92-.24l.49.49-.27.24-.78-.04.11.43-.89-.31c.18-.1.39-.16.47-.3.13-.2.09-.47-.17-.67l.52.02.02-.31-1.04-.16.23.64c-.49-.15-.61-.03-1.04.04v-.2l-.65.07.13-.2c-.36.02-.85-.17-1.12-.16-.55.01-.34.29-.46.37-.11.07-.21-.01-.35.01q-1.38.2-2.66.49l-.38-.44c-.21.11-.55-.02-.76.1s-.12.42-.7.46l.15-.4-.92.27-1.3-.26.12.21c-.41.04-.66-.18-.89-.23-.52-.1-.9.09-1.26.03-.48-.07-.41-.25-.96-.23v.31l-1.3-.15v-.1l-.52-.02.01-.52-.27.2-.78-.18.53-.19c0-.12-.4-.02-.51-.08-.22-.12.23-.27.13-.4l-1.32.27-.39-.01.01-.32-1.04-.13.52.17c-.03.19-.19.33-.28.52-.04.09 0 .22-.39.13-.16-.03-.3-.19-.51-.19-.34-.01-.58.01-.9-.05l-.02-.2-.78-.08-.25-.27-.78.09v-.21c-.64-.04-.99.02-1.06.29l-2.08.06.27-.83-.78.09-.01.31c-.44.01-.62-.1-.91-.22l-.92.24.78.07v.31l1.16.13.66.53-.65.09-.13-.42-1.03-.01-.02.2-.52-.01v-.21l-.91.09-.34-.47.23-.25.51-.05c-.53-.27-1.2-.28-1.95-.39-.59.19-.13.36-.14.62l-.63-.11-.55.2-.91-.32c-.31.51-1.43.32-2.47.41-.41.03-.53.31-1.05.29l-.39-.42c.54.07 1 .02 1.56.01l.01-.31h.51c.18-.21-.59-.43-1.04-.42.08.25-.56.38-.26.62l-1.04-.32-.78 1.04-.38-.53-1.59-.41v-.32c-.34.14-.77.25-.63.47.12.2.73.1.98.17s.08.22.41.29h-.01.01l-.49.22-.79-.42-.91.11-.27-.42.53.05-.01-.26a6 6 0 00-1.56 0l.52.63-1.04-.31v.62l-.53-.57.01-.15c.76 0 .56-.17.12-.32l-1.17.11.27.26-.78.27c-.65-.17-.57-.49-1.31-.62-.08.18.77.35.5.51-.15.08-.55-.13-.75-.04.25.05.13.24.42.25.48.03.69-.05.62.21-.53.03-.67-.16-1.04-.25-.27-.07-.5.08-.79.05l.53-.1-.28-.63-1.83.13c-.1.13.2.16.23.27.05.19-.35.26.05.45l-1.05-.09.22-.16-.23-.15.52-.01v-.31l-.78.01v.41l-1.56-.08.14.2c-.33.45-.01.66 1.18.62l-.53-.31.65-.11c.36.11.44.23.4.41l.78-.01.01.21 1.04.09-1.56.12v.32c-.48.02-.54-.01-.54-.2h-.51l.26-.21-1.3.07c.36.17 1.08.2 1.06.45.8.03 1.18-.1 1.69-.33h.25c.38.14.62.31 1.18.3q-.14-.15-.25-.31c.56.02 1.47-.36 1.88-.31.86.09.04.5.21.71.89.09.86-.3 1.41-.4.46-.09.9 0 1.3-.02.28-.02.34-.1.55-.1 1 .02 1.69.4 2.72.4l-.79-.41 1.3.11.02.2h1.3v-.31l.25.21c.46-.11.72-.24 1.3-.2l-.78-.32 1.03.12.03.19 1.15.33.14-.21c.28-.03.46.08.67.1.33.03.43-.11.74-.08.23.03.36.13.66.11l.02.2c.28.06.42-.08.64-.07.53.04.8.24 1.38.21l-.2.2c.26-.01.67.08.77-.06.11-.13.06-.16.51-.14l.03-.2c.5-.01.94.03 1.4.13.29.06.12.21.15.31l-1.3-.02c-.03.35.82.5.77.85l-.78-.07.26.27c.22-.11.78-.13 1-.2s-.03-.17.06-.25c.05-.04.19-.07.22-.12.05-.11-.26-.16-.21-.29.03-.06.23-.12.24-.22.03-.13-.02-.32 0-.46.36-.02.57.11.91.12s.55-.12.91-.09l-.52.25.52.27c.01-.1-.11-.26.13-.3.15-.03.4-.09.51-.08.42.03.62.15 1.06.1l.26-.2.38.32c-.3-.04-1.1.15-.74.29.27.1.79-.18 1.14.02l1.17-.27c.09.09-.17.29-.28.34-.36.17-.82.11-.77.36l1.3-.07v.31l.78.02q-.06.12-.29.2c-.02.01-.25 0-.24.05s.22.05.24.06c.1.07-.02.14.02.21h.13l.12-.2-.26-.01v-.11l.26.11c.73-.14-.04-.42-.15-.55s.19-.13.2-.22c0-.15-.47-.37-.23-.47.17-.08.71.06.6.23-.12.17.13.43.63.52.1-.17-.72-.35-.23-.46.39-.09.84.11 1.28.08q.01-.33.79-.29c-.43.31-.16.65.77.75l-.27.31 1.81.27.26.21.27-.3-1.82-.17-.24-.84.52-.09-1.04-.13c.7-.09 1.21-.06 1.81.1s.35.06.95.09c.33.01.75.18 1.14.14.03.31-.23.56-.53.82l.64.13c.31-.09.05-.21.2-.37a3 3 0 01.6-.33 5 5 0 011.69-.15v.21c.47-.1.91-.04 1.43-.04.34 0 .43-.1.81-.07.62.05 1.03.24 1.67.07l-.53.29a4 4 0 011.41.2l.16-.23 1.82-.02c-.17.22-.7.48.23.54l-.24-.43 1.29-.05.28-.19-.14.31c.13.12.47.07.6.15.29.17.14.33.82.34-.3.12-.06.14-.09.26s-.74.31-.97.15l.52-.23c-.28 0-.8 0-1.02.05.05-.01.29-.2.46-.23l-.34.02-.26-.1c-.38.09-.66.37.14.31-.22.05-.16.18-.43.18-.58 0-.85-.19-1.41-.06.07-.09-.23-.37-.49-.33-.25.03-.32.13-.55.17l.63.45.66-.17.11.42.53-.18.38.17c-.56.28.55.95-.47 1.05-.11.01-.46-.14-.6.05l.24.37.51.03-.4.29-1.13-.99-.27.3c-.59-.03-.99-.19-1.56-.08l.02-.52c-.28.01-.4-.07-.64-.11-.1-.01-.18.06-.25.05a4 4 0 01-1.04-.33l-.15.51-.77-.24-.55 1.02-.26-.22c-.55.12-.87-.16-1.42-.05-.2-.11.25-.21.38-.25.2-.06.35.03.52-.05.16-.08.18-.28.54-.33l-.47-.33.23-.25c-.39.08-.62-.01-1.03-.04.04.2-.05.34-.53.4-.15-.3-.59-.55-.5-.85-.28.17-.64.43-.9.58-.27.14-.43.17-.68.3l.52.02c.04.28-.2.54-.02.83-.52-.11-.39-.36-1.03-.35l.26.21-1.05.18c-.02-.21-.11-.34.53-.3l-.26-.32.66-.07.64.22c-.08-.29-.62-.5-.47-.79.03-.07.61-.16.5-.25-.99-.06-1.27.23-1.32.58l-.78-.03.14-.2c.24.13.5.15.38-.04-.04-.07-.2-.25-.26-.3a1.6 1.6 0 00-.89-.31l.38.12c.19.42.57.62-.78.6l-.01.31.78-.19c.1.41-.66.34-1.19.61-.08.04 0 .32-.13.39-.36-.02-.62-.28-.89-.32-.66-.09-1.07.09-1.69.04-.05-.3.49-.19 1.04-.18l.28-.71c.28 0 .97.05.98-.15.01-.1-.34-.23.07-.35l-1.05-.03-.14.41-1.16-.24.51.43-.77-.01-.53.4c.24-.38.72-.63.03-.99l.9-.34c.47.15 1.41.43 1.43.03-.53.12-.9-.13-1.42-.14-.86 0-.55-.04-1.42-.13-.23-.02-1.39.14-1.68-.15-.18.07-.27.13-.42.2l1.3.13.01.31.39-.08.38.31-1.47.05-1.39.04c.27.17.74.19 1.15.19.35-.01.92-.32 1.15-.17.33.21-.98.44-.49.7l-.79-.02q.15-.1.26-.2a6 6 0 01-1.65-.24c-.33-.17.01-.18-.2-.38-.19-.18-.81-.5-1.11-.69l.12.42-.52.09.79-.09c0 .19.57.44-.22.51-.22.02-1.21-.2-1.59-.12-.04-.08-.01-.14-.03-.21l-1.28-.02c-.08-.09.39-.17.46-.26.03-.03-.18-.06-.14-.1.12-.15.54-.17.46-.36l-.78.51-.78-.22.25.36-.25.26-.78-.11-.01.2c-.41-.01-.84.12-1.17-.01l.13.26c-.57.2-1.4.5-1.3-.06l-.65.2.13-.41-.78-.11q-.05.21.14.41c.18.2.62.32.64.53-.69.01-.92-.31-1.43-.41-.37-.07-.59.03-.91-.08-.27-.09-.32-.28-.64-.36-.48.01-.62.12-.64.3h-.52v-.31l-1.04-.11c-.05-.19.03-.22.52-.21l-.26-.51-1.05-.01.52-.41-1.04.2c.03-.2.11-.51-.39-.61-.49-.1-.33.09-.41.19l-.77.01c-.08.24.31.35.56.56l-.03.38-.53-.31-.5-.01-.01-.31-1.29.22-.39.62-.14-.41c-.17-.02-.34.02-.51-.01-.02 0-.01-.09-.13-.08s-.11.08-.13.08c-.13.04-.23-.01-.36.02-.42.12-.63.24-1.19.21.13-.1.21-.13.52-.11l-.27-.52.78.1c-.22-.14-.12-.21-.01-.36-.28-.15-.57-.17-1.03-.16l-.02-.2h-.78l.01.32c.76-.21 1.4.05.64.19-.31.06-.66-.03-1.02.03-.31.06-.48.23-.92.21l.27.51h.78v-.21l.52-.01-.51.27.51.31-.64.37c-.39-.22-.88-.16-1.44-.25l-.23-.1.21-.11c-.27-.15-.57-.16-1.02-.14.03-.32.18-.48.92-.64.16-.03.73-.06.49-.21l-1 .11-.42-.1c.08.12-.01.5-.52.3-.05-.02-.09-.28-.39-.28l-.64.21-.33-.12c-.25.16-.27.25.07.39l-.6-.03-1.2.21 1.29-.02-.51.43 1.29-.33-.51.47-.77-.04 1.04.41-1.56-.19-.93-.72-.91.12-.27-.51 1.3-.03c-.01.21-.11.35.54.31-.43-.3.1-.48.5-.74l-1.3.23-.01-.31c.53-.05.8-.15 1.3-.03q.01-.1-.01-.21c-.2.06-.52-.08-.62-.07-.46.03-.92.32-1.28.31-.87-.03-.1-.52-.2-.58-.35-.23-.58.1-.63.18-.14.21-.02.34-.65.33l1.05.19-1.83.04c.29.21.67.31 1.31.28-.03.27.11.47.54.67l-.77-.04c.02-.18-.02-.3-.41-.4l-.26.1-.14-.2-1.02.38c.69.18.29-.22.9-.16.39.04.44.25.4.39l-.51.12c.84.1 1.5.08 2.34-.05.01.17-.44.1-.66.23-.19.12-.12.33-.49.42-.8.09-.11-.26-.18-.28-.47-.2-1.13-.26-1.66-.41v.31l-.52-.18c-.28.17-.52.01-.76.03-.51.04-.37.36-.91.41l-.14-.41c-.29.07.1.21-.38.16q-.37-.05-.78-.03c-.04-.3.18-.6-.42-.82l-1.17.29.78-.02-.2.11c.44.17.54.32.49.56l-1.04.03v.21c-.36.06-.64-.05-.93-.07-.39-.02-.51.14-.89.12-.03-.21-.13-.33.5-.33l.25-.63c-.69.02-1.79.28-1.8.58l-.39-.09-.51.33c-.36-.12-.47-.18.02-.31.57-.15 1.02-.12.86-.45-1.08.02-1.11.52-2.14.57-.79.04-.88.17-1.65.27a9 9 0 01-1.75.06c-.52-.05-.78-.25-1.44-.13l-.55-.5.51-.02-.01-.42.65.17c.47-.15.9 0 1.44-.04-.09.21-.63.13-.92.04l-.63.33 1.95.03.64-.54-1.17.04-.41-.3 1.57.15-.02-.52c-.64.02-1.2.12-1.83.07l-.36.54c-.91-.09-.6-.26-.16-.52-.34-.03-.98.17-1.15.25s-.04.17-.14.21c-.52.17-1.18.09-1.66.29l.36-.54 1.3-.1c-.06-.28-.81-.15-1.17-.01l-.14-.2c-.21.01-.4-.02-.51.08-.05.04-.2.18-.19.2.09.24.21.25-.29.45l.26.24-.77.14.24-.33-1.03.21.52-.08-.23.64-.79-.12.51-.13-1.06-.37.24-.27.53.08-.02-.31a7 7 0 00-2.08.1l.02.31-.65-.07-.39.17.53.08-1.15.32-.15-.2-.75.14-.49.55c-.76-.07-.13-.21-.31-.4-.03-.03-.57 0-.49.08l.01.15-.53.03-.02-.21-1.56.08.66.27-.01.01-.98.16c-.23.03-.23 0-.42.02l.24-.27c-.35-.13-.86-.08-.8-.32-.27.04-.55.17-.76.25l-.14-.09c-.11-.01-.1.09-.12.1-.64.18-1.24.05-1.93.12l-.27-.19.16.41-.79.04c.05-.32-.16-.54-.58-.8l1.04-.16-.28-.3-1.06-.04c-.04.13-.23.26-.23.38 0 .13.24.25.42.34.3.15.49.11.01.31l-1.2-.34.01.31-.49.04.01.31c-.49.03-.35-.19-.57-.26s-.55.04-.87.03c-.16-.01-.25-.1-.56-.06-.48.06-1.32.47-1.87.44-.15-.23.49-.51.2-.69l.5-.19c.52-.02.13.25 0 .35-.14.09-.5.21-.47.31.86-.07 1.59-.24 1.51-.63l1.04.04-.3-.5c-.36.02-.62.17-.91.06-.19.09.41.27-.26.22a3 3 0 01-.62-.21c-.14-.25.82-.24.71-.52-.4.01-.12.15-.39.23-.37.11-.68.24-1.11.29l.02.41-.52-.01.23-.38-.51.02-.04-.19c-.57.04-1.5.02-1.77.28-.26.25.92.07 1.18.16l.63-.03.28.24-.23.38-.55-.27-.51.09-.16-.36-.5.35c-.38-.04-.22-.19-.45-.27a4 4 0 00-1.26-.02l-.01.2-.49.05c-.11.21-.09.45-.75.47l-.15-.3-.65-.06 1-.39c-.44.09-.8.28-1.16.39-.46.14-.94.14-.86.4-.41.08-1.1-.07-1.46-.08s-.57.05-.91.06c.39-.18.73-.29 1.28-.32l.01-.2c1.02-.16.83-.5-.19-.4-.21.02-.17.22-.35.28l-.79.12c-.05.19-.26.35-.21.54q-.42.01-.79-.04l.02.31q-.77.07-.74.37l-1.03-.01.19-.28-.82-.82c-.47.02-.78-.09-1.17.09l-.3-.38c-.4.19-.43.2-.08.37.28.14.64.36 1.08.43.26.04.34-.13.53-.04l-.24.28-.69-.15c-.62.03-.82.27-1.4.33l-.01-.15-.79.01.29.29-.78.07.04.41c-.45.07-.12-.24-.43-.16-.56.15-1.3.18-1.74.46-.39-.16-.72-.11-1.3-.1-.45.01-1.16.01-1.57.05-1.32.12-2.37.17-3.65.26-.83.06-1.96.3-2.47-.01-.31-.19.55-.13.46-.31-.83 0-1.2-.24-2.1-.09l1.04-.01-.21.44c-.36.05-.55-.01-.92-.01-.22 0-.48.09-.75.07-.32-.01-.49-.18-.92-.09l.01.2h-.92c-.12.07-.44.16-.22.23.5.15 1.17-.31 1.18.09l-2.99.32c-.47-.09-.45-.25-.45-.47q-.11.12-.25.23c-.69.23-1.41-.06-1.9-.05-.48 0-.46.21-.94.17l.21-.44-.73.35.27.23-.62.06c-.62.06-.82.02-1.4-.02-.18-.01-.66.04-.86-.01q.1.36-.7.61l-.06-.41-1.52.4.5-.27-.45-.37.18.3-2.09.26.04.31-.77.1c.22-.18 0-.25-.06-.41l.66.01.61-.33-.55-.19 1.05-.03-.53-.04-.05-.31c-.71.09-1.26.4-1.93.25l.22.6c-.63.12-.86.02-1.31-.09-.32-.08-.58-.13-.77.11-.21.26.32-.02.53.03-.32.15-.16.25-.35.42-.22.18-.5.21.05.3l1.35-.6c.05.21.17.31-.45.38l.03.31-1.29.17-.03-.21c-.57.04-.43.2-.95.33-.27.06-.79.23-1.24.25s-1.05-.17-1.64.05l.45-.38-.88.33-.92.03.3.17-1.04.15.19-.45-.38.15-.02-.2-1.15.16-.05-.19-.64-.01c-.54.33-1.38.41-2.15.63l.45.25.63-.2.05.31-.64.19-.55-.11-1.38.41.1-.22-.38.05-.1.23c-1.11.2-2.34.18-3.32.62-.87-.14-1.55.1-2.64.25-.26.03-.53.19-.84.12l.02.21H8.9c-.66.44-.98.34-1.82.33-.48 0-.8-.03-1.32.02-.24.03.05.33-.56.3l-.08-.41c-.37.18-.55.18-.77.04.51-.08.82-.1.71-.34l.49-.1c.04-.2.28-.32-.2-.38l-2.13.61c-.16-.23.78-.64.91-.91-.69.11-.88-.01-.88-.26-.3.03-.45.11-.62.22-.34.22-.23.39-.83.48l.08-.33c-.35-.06-.04-.25-.02-.36s-.28-.05-.36-.1c-.21-.13-.15-.2-.64-.09l-.12-.51.39.03-.18-.28a15 15 0 011.88-.47c.2-.04.42-.01.53-.02 1.01-.13 1.15-.22 2.13-.46.19-.05.82-.01 1.25-.14.15-.05.21-.21.56-.29.4-.1 1.21-.11 1.72-.2.42-.07.85-.24 1.28-.32l.04.2c.41-.17.86-.34 1.25-.51l1.66-.18.05.2c.45-.16.71-.1 1.17-.18.47-.08.8-.29 1.28-.31l.56.23-.19-.39c.34-.12.86-.06 1.13-.1.84-.13 1.45-.4 2.25-.36.33.01.7.22.93.21.92-.03.95-.33 1.51-.5.32-.11.32.02.52-.01 1.08-.18 2.06-.55 3.08-.72 1.03-.17 2.14-.02 3.14-.12.8-.09.98-.32 1.7-.22l-.02-.21 1.14-.15c.23-.03.38.03.53.02.45-.06.83-.33 1.26-.34.52 0 .62.19 1.24.05l.02.14.39-.09.27.17.35-.35-.78-.01 1-.18.78-.04.05.2.76-.09c-.08-.25.23-.25.76-.3l.55.14-.3-.27.76-.31.97.31-.16-.29c.28-.07.41.02.63 0s.28-.11.52-.14l1.15-.13.03.21.26-.03-.02-.21a12 12 0 011.92-.31c2.07-.16 3.96-.54 6-.44a9 9 0 012.21-.42l-.55-.26h1.04l.43.27.32-.66c.79.08.29.32.33.6l1.95-.19c.24-.03.39.05.52.03.62-.09 1-.36 1.58-.24l.73-.37c.27.06.4.15.69.2.34.07.6-.02.54.21l1.04.02-.01-.31.5-.05-.02-.31.79.03c.04-.24.73-.56.79-.17l-.53.1.53.01.03.31c.54.02 1.05-.33 1.01-.51l.66.15c.72-.22.96-.36.85-.69l.78.04.04.2.92.14.36-.34-.5.03-.45-.27-1.68.14c.26.28.28.39-.33.65l-.19-.61-.86.49.11-.22c-.7.05-1.19-.06-1.84.16.03-.32-.06-.52-.73-.67l-.89.29.79.04.07.72c-.63 0-1.32.06-1.93.06-.21 0-.27-.09-.42-.11-.43-.05-.59.01-.56-.21l-.75.17c.04.23.11.41-.47.57l-.04-.31-.5.04-.04-.2-.51.04-.05-.2-.77.08v.2l-.89.19c-.47-.09-.58-.37-1.21-.3l.08-.42-.89.19c-.11.35.9.44.86.75-.62-.08-1.15.14-1.8.18l.5-.21-.7-.19-.63.12c.44-.28.72-.52.06-.69l-.07.53-1.06.11-.21.44c-.85-.1-.39-.2-.09-.46-.75-.42.31-.24.69-.13.18-.01.18-.12.1-.16-.38-.18-1.02-.06-1.58 0l.3.29-.77.23.01.11.55.2-1.55.16c-.2-.19.52-.48.98-.52-.05-.26-.46-.29-1.07-.2l.04.31c-.71 0-1.34.16-2.07.22l-.84.83-.95-.21c.24-.05.66.08.78-.04q.21-.19.23-.39a5 5 0 00-1.65.6c-.31-.1-.67-.14-.92-.28-.17-.09-.1-.18-.57-.07l.3.28-.89.2.16.19-.77.09.19-.54-.99.53.08-.43-.26.11-.43-.24 1.06-.12-1.23-.17c-.33.2-.93.28-.88.51l-.49.07.03.31-.53.01.2-.5-1.11.65c-.39.05-.86.15-1.23.15-.24 0-.4-.11-.57-.1-.48.02-.41 0-.89-.02-.4 0-1.68.15-1.92-.03l.45-.47c-.3-.06-.48-.17-.82-.21-.34-.05-.6.04-.55-.19l-.51.06q-.02-.07-.01-.15c.4-.26.66-.38 1.39-.45.5-.04.65.03 1.03-.23m134.26 3.77-.02.21.65-.03-.25-.27 1.04.05.24.43-1.03-.05-.02.31-1.16-.05-.12-.21-.27.13-.78.03.78-.44-.5-.28q.78.03.79-.28zm1.65.65-.13.05-.38-.18.13-.04zm1.56.07c0-.06.25-.05.24.02 0 .06-.24.05-.24-.02m9.05.51c0-.06.25-.05.24.02 0 .06-.24.05-.24-.02m2.32.2-.52-.03v-.11l.52.04zm4.66.27c0-.06.25-.04.24.02 0 .07-.25.05-.24-.02m-23.27-1.4c0-.06.24-.05.24.01 0 .07-.25.06-.24-.01m11.12.52c.01-.06.25-.05.25.02 0 .06-.25.05-.25-.02m-23.04-.94-.52-.01c.05-.13-.15-.2-.26-.32l.78.02zm7-.22.01.2.5.02v.21l-.52-.02-.25-.42zm36.19 2.58c.4-.14.85-.19.77.12l-.38-.13zm-24.28-2c.05.11-.18.33-.52.29l.01-.31zm-22.54-.53-.52-.01v-.1l.52.01zm37.03 1.52c.24-.09.86.19.76.23-.24.09-.86-.19-.76-.23m-32.36-1.63v.2l-.52-.01.39-.2zm.78.22h-.26v-.32l.26.01zm40.86 2.32-.51-.04.02-.31.52.04zm2.59-.11c.16-.04-.06-.29.55-.13-.04.25-.93.48-1.59.37l.03-.41c.34.03.65.28 1.01.17m-34.13-1.91c-.29.01-.51-.05-.77-.08-.26-.04-.54-.05-.52-.18l1.03.04.27-.2zm-17.87-.98c-.19.14-.32.25-.27.42l-.78-.01.01-.42zm4.13.49-.51-.22.52.01zm4.68.04c0-.06.25-.05.25.01 0 .07-.25.06-.25-.01m32.35 1.61c0-.35.97-.12 1.56-.09l-.68.26zm-7.99-.94c-.19.13-.33.23-.28.4l-.26-.02.02-.41zm-31.36-.91c0-.07.25-.06.25 0 0 .07-.25.06-.25 0m3.37.06c0-.07.25-.06.25 0 0 .07-.25.06-.25 0m-16.86-.2-1.3-.2 1.29-.11zm68.32 1.94c-.24-.01-.05.15-.3.18-.15.01-.34.06-.54.04-.52-.04-.68-.24-1.13-.04l.51.1-.06.62h-.51c.29.19.16.32.75.34 0-.08-.28-.16-.12-.22.38-.16.51-.06.77-.3.23-.23 1.38-.37.63-.72m-64.16-1.94c-.29-.05-.45-.13-.78-.11l-.01-.42h.52zm1.29 0h-.26c-.02-.15-.22-.27-.26-.42h.52zm44.82 1.66c0-.07.25-.05.24.01 0 .07-.24.05-.24-.01m2.3-.1c.26.11-.34.32-.45.27-.26-.11.33-.32.45-.27m13.45 1.42q.03-.32-.75-.39zm-53.57-3.01-.51-.01v-.1l.51.01zm3.38 0c0-.06.24-.06.24.01s-.25.06-.24-.01m2.32.1-1.04-.03v-.1l1.05.02zm-24.38-.24c-.45-.11-.67-.07-1.14 0l-1.2-.24c.67-.27 1.31.01 2.07-.18zm1.56-.02-.52.01v-.11h.52zm28.79.1q-.8-.03-.78.29c.51.02.8-.08.78-.29m4.17-.28c.32.02.39.18.51.28.19.18.33.29.24.48-.66.01-.42-.09-.51-.28-.08-.18-.32-.29-.24-.48m-39.45-.15-1.03.33.51-.43zm24.91.35c0-.07.25-.06.25 0 0 .07-.25.06-.25 0m37.04 1.71-.52-.04.02-.21.51.04zm-54.16-2-.52.16v-.31h.13zm25.41.52-.25-.01v-.21l.26.01zm50.45 3.29c.01-.06.25-.04.25.03-.01.06-.25.04-.25-.03m-84.95-3.64-.79-.3.78-.02zm54.45 1.12c.01-.06-.24-.08-.24-.01-.01.06.24.08.24.01m-26.94-1.08c0-.07.24-.06.24 0 0 .07-.24.06-.24 0m1.81.03c.01-.07.25-.06.25 0 0 .07-.25.06-.25 0m3.12.12h-.26v-.21h.26zm-21.28-.37c0-.06.25-.06.25 0 0 .07-.25.07-.25 0m1.04 0c0-.06.24-.06.24 0 0 .07-.24.07-.24 0m29.88.36c.12-.03.69.25.42.33-.12.03-.69-.25-.42-.33m-22.62-.5v.2l.52.01v-.21zm2.59.18c0-.07-.25-.07-.25-.01 0 .07.25.07.25.01m45.89 1.83c.22-.02.55.08.77.12l-.02.2-.51-.04zM93.87 9.19l-.12.05-.4-.13.13-.06zm51.42-1.06.26.26-.39.15-.38-.26zm-15.31.23-.52-.15.38-.16h.13zm-31.94.55c0-.07.25-.08.25-.01s-.24.07-.25.01m25.69-1.18c-.26.08-.2.13 0 .21.39.14.84.11.79.35l-1.3-.09-.01-.51zm77.04 3.25.48.57 1.52.31c-.66-.43-.69-.79-2-.88m-48.47-2.4-.52-.01.01-.1.51.01zm-22.59-.85-.77.01c-.01.08.22.08.2.16-.03.08-.29.14-.2.25l-1.16.12-.66-.36c-.06-.21.15-.14.52-.16l.13.1.9.1.27-.21c.03-.09.24-.12.25-.21h.26zm37.64 1.28-.01.11.52.02.01-.1zm-30.88-1.07v.2c.26.03.84-.06.78-.2zm3.5-2.27c-.18.06-.19.25-.42.29s-.58-.22-.48.06.36.15.74.29c.18.07-.09.28.28.34l-.77.16-.24.57c.55.23.93.49 1.8.48-.05.06-.32.15-.26.21l1.04-.1v.21l1.3.02v-.11l-1.3-.12v-.2c-.34-.03-.49.05-.78.09.06-.18-.04-.3-.39-.42l-.65.05 1.3-.15-.53-.42c.45.02.26.24.69.32.23.03.73.01 1.01.01s.42.04.39-.1c-.83.01-.39-.36-.78-.58l.79-.04-.27-.32-.91-.1c-.34.11-.66.2-.65.4l-.52-.06c.06-.19.55-.26.52-.46-.6.02-.55-.18-.91-.32m42.81 3.92c-.28.07-.45.13-.41.28l.78.06c.05-.15-.11-.23-.37-.34M137.5 7.73v.32h.52v-.31zm30.64.9.64.34.65-.07-.64-.34zm7.11.69-.12-.11.26.01zm8.18.31-.02.21c.5.05.85.05 1.05-.13zm-58.67-2.28c0 .17.09.37.28.52l.77.05zm-29.73 1.1.4.13v.06l-.78.03zm47.67-.67v.21h.52l-.39-.21zm34.24 1.54.78.04v-.05l-.38-.18zm-89.3-.38-.52.03v-.11l.52-.03zm44.14-1.21v.1h-1.03v-.2zM89.72 8.77l-.39.07h-.01l.01-.01zM111 7.99c0-.06-.25-.06-.25.01s.25.06.25-.01m85.88 2.68.51.2.02-.31-.13-.01zm-33.42-2.19c0-.07-.25-.08-.25-.01s.24.07.25.01m-26.48-.7c0-.06-.25-.06-.24 0-.01.07.24.07.24 0m2.08-.14v.21h.26v-.21zm23.93-.38-.54.45.5.33c.18.13.04.15.13.27l.4-.4 1.04.04c.11.28-.58.1-.51.35.02.08.53.08.62.18l.42-.61c.45-.04.59.17.9.23.48.09.76.01 1.17-.04-.02.24.33.42-.02.63l.78.03c-.32-.35-.52-.69-.48-1.06-.67-.02-.84.13-.8.38-.69-.14-1.56-.56-2.33-.52l-.13.31c-.48-.12-.21-.27-.42-.43-.1-.07-.59-.04-.73-.14M99.85 8.28c-.01-.07.24-.08.24-.01 0 .06-.24.07-.24.01m-17.66.88-.52.03.38-.23.13-.01zm67.78-1.47q-.02.32.78.33c.03-.21-.26-.32-.78-.33m6.74.44c0-.06-.24-.07-.24 0-.01.06.24.07.24 0m-22.84-.6c.23-.11.87.13.77.18-.23.1-.87-.13-.77-.18M78.56 9.24c0-.07.24-.08.25-.02 0 .07-.24.08-.25.02m21.53-1.13c-.33 0-.49.08-.77.14l-.01-.21.77-.03zm-36.82 2.26-.26.02-.02-.21.26-.02zm133.42-.51c-.65-.08-.53.06-.55.27l.26.02.23.44zm-.84.61c0-.07-.24-.09-.24-.02-.01.06.23.08.24.02M86.58 8.68c-.1.09-.13.13-.25.02zm74.81-.49c0-.07-.24-.07-.25-.01 0 .07.25.08.25.01m-26.48-.62c0-.07.25-.07.25 0 0 .06-.25.06-.25 0m71.53 3.94c.01-.06-.23-.09-.24-.03-.01.07.24.1.24.03m-63.22-4.04v.21l.53-.2zm32.44 1.4c0-.06-.24-.08-.25-.01 0 .07.25.08.25.01m.8-.26-.77-.2.51.13-.01.31.64.14 1.18-.18-.51-.13-.01.08-.52.04-.49-.45zm3.6.54c.01-.07-.24-.09-.24-.02s.24.08.24.02m-53.47-1.6h-.52l.52-.21zm-21.04.3c-.01-.06-.25-.05-.25.01 0 .07.25.06.25-.01m56.11.09v.21l.52.02v-.21zM71.04 9.57c-.01-.06.24-.08.24-.02.01.07-.24.09-.24.02m2.57-.14-.78.06v-.1l.77-.06zm64.67-2.84c-.82-.03-1.06.27-1.81.31l-.02-.21c-.49-.03-.97-.2-1.26.05-.26.22.49.12.73.16l.04.01c.05.03-.06.09.01.13.3.16.58.26.5.48.79.01 1.3-.26 2.07-.09l.26-.63-.78.1zm-23.91.85c.05-.33-1.01-.25-1.29-.02.24.02.17.24.39.24.77-.01 0-.43.9-.22m-20 .78c0-.07.24-.08.25-.02 0 .07-.24.08-.25.02m-17.9 1.01-.01-.21.52-.04zm27-1.41c-.01-.06.24-.07.24-.01.01.07-.24.08-.24.01M69.33 9.65l-.66-.05-.02-.2 1.05-.09zm41.13-2.11-.51.12c.35-.01.62-.14.91-.03.43-.12.26-.15.17-.27-.14-.19.24-.29.19-.47zm84.64 2.6 1.03.2.01-.21-.37-.03-.26-.24zM72.06 9.39c-.01-.07.23-.08.24-.02 0 .07-.24.09-.24.02m3.6-.52c.06.1-.15.35-.5.34l-.03-.31zM63.24 10c0-.06.25-.08.25-.02.01.07-.24.09-.25.02m22.24-2.3.54.28-1.03.07.02.31 1.82.1c-.06-.12.17-.19.1-.32-.09-.2-.46-.38-.42-.6zm21.09-.2.78.13v-.1l-.65-.08zm-15.41-.84c-.86.11-.83.49-1.8.51l.55.39c-.57-.05-1.1.04-1.67.1-.13.02-.16.09-.33.1-.49.02-.93-.18-.85.17l1.03-.06.04.52c.32-.09.43-.11.77-.05l.02-.2.49-.04v-.3l.49-.04.01-.2.52-.03-.25-.14.37-.18.65.07c-.56-.25-.56-.32-.03-.62zm100.22 2.85c-.1-.03-.35-.04-.37-.03-.21.1.15.26.34.34l.66-.15c-.3 0-.43-.09-.63-.16m5.81.61-.02.21.52.04.02-.2zm-59.69-2.8-.78-.01.01-.1h.77zm-41.61.14c.07.29-.28.51-1.01.57l-.02-.41zm107.76 3.44c0-.06.25-.04.24.03-.01.06-.25.04-.24-.03M83.72 8.44v.1l.77-.2-.13-.05zM63.48 9.82c-.28.02-.45.06-.64.15l-1.2-.19 1.82-.16zm7.79-.58c-.01-.06.24-.08.24-.02.01.07-.24.09-.24.02m128.54.71c-.07.27-.06.49.73.59l.56-.36zm1.25.59c.01-.07-.24-.09-.24-.02-.01.06.24.08.24.02m-86.44-3.32.01.1.51-.01v-.1zm-40 1.82-.52.04-.01-.21h.13zm68.35-1.88v.1l1.04.02v-.11zm1.56-.09-.01.21.26.01v-.21zm10.91.14c.09.37.8.35 1.55.36l.01-.31-.79-.08zm-46.02.05v.1l.52-.02v-.1zm82.87 2.22.5.25.02-.21zM133.34 7.1h-.52v-.21h.52zM5.98 16.82l-.04-.2.51-.09zm50.59-8.05c.47.21.07.28-.17.5-.12.11.15.16-.05.25-.19.08-.61.08-.72.23l.56.32.37-.14c.5.1.2.2.18.4l1.27-.44-.03-.31-.53-.05.76-.23-1.33-.14 1.29-.27-.79.02.25-.24zm65.07-1.79c-.04.09.09.1.28.11zm51.73.88.37.12.13.32.29-.29.51.02.01-.2zm5.17.67c0-.07-.25-.08-.25-.02 0 .07.24.08.25.02M151.81 6.9v.42l.51.01-.25-.42zm33.05.74c-.01.23.37.35.17.6-.13.17-1.13.46-1.03.7.65-.18 1.02-.07 1.81.03.04-.16-.28-.11-.52-.2-.35-.13-.22-.32-.22-.48l.5.35.29-.55zM48.69 11.02l-.77.08-.01-.1.77-.08zm41.75-3.39.02.32c.37-.01.55-.08.77-.2-.24-.1-.42-.15-.79-.12m-.26.28c0-.07-.25-.05-.24.01 0 .07.25.05.24-.01M51.29 10.7c-.01-.06-.26-.04-.25.03 0 .06.25.04.25-.03m146.7-.77.37.19.14-.04-.38-.19zm-144.95.13c.33.17-.06.41.57.46l-.02-.37zm1.78-.39-.74.23.3.44 1.04.01-.81-.29c-.09-.24.38-.15.76-.23-.06-.28.38-.49.71-.75l-1.32-.03zm86.58-2.64c-.31.01-.43-.18-.49-.27-.07-.09-.03-.16-.03-.25l.78.01zm-17.18-.81c-.07.1.13.45.28.49.41.11.58-.04.52.23.66.08 1.29-.43 1.29-.64l-.39.21zm-42.88 2.1c0-.06-.25-.05-.25.02.01.07.25.05.25-.02m42.37-1.58.01.21h.25v-.21zm23.15-.05.27.32 1.03.12c.04-.37-.44-.45-1.3-.44m1.83-.69c.02.1-.14.21-.14.3-.01.11-.13.38-.11.44h.01c.1.21.34.22.23.41l.78-.09-.25-.37.78-.3h-.52zM43.23 11.3l.02.21.26-.03-.02-.21zm3.66-.19-.51.06-.02-.11.51-.05zm107.77-3.82.52.01-.39-.22h-.13zM188.93 9l-.01.21.26.02.01-.21zm3.9.31c.05-.2-.11-.26-.65-.26-.49.01-.91.12-.93.34.63.07.85.1.8-.19zM47.4 11c-.01-.06.23-.09.24-.02s-.24.09-.24.02m20.19-1.83c-.04.03-.01.09-.12.1-.12 0-.13-.05-.14-.08zm44.94-2.63c-.15.33.88.23 1.25.29.36.06.3.13.58.19l-.54-.51zm-99.2 7.87c-.48.23-1.05.26-1.62.37.47.12.83.38 1.36.46.24.03.24-.05.39-.11l.15.18.49-.24-.37-.57zm83.86-6.95c0-.07-.25-.06-.25.01.01.06.25.05.25-.01m23.92-1.2c-.05.37.64.43 1.31.6.03-.36-.56-.48-1.31-.6m-101.05 8c-.01-.06.24-.1.24-.04.02.07-.23.11-.24.04M150.5 7.03c0-.07-.25-.07-.25-.01 0 .07.25.07.25.01m-44-1.24c-.02.21-.11.33.53.29l-.63.42-.38-.07c-.09.32-.75.41-1.29.62.6.23 1.1.08 1.82-.01l-.27-.31c.52.01.8-.07 1.15-.23l.66.07-.27-.2 1.03-.19c-.45-.19-.94-.13-1.55-.11.04-.24-.36-.21-.8-.28m-57.57 4.95c-.01-.07.24-.09.24-.03.01.07-.23.09-.24.03M9.68 15.43l.04.21.75-.24q-.01.13.16.19c.26.1.27-.01.53-.06.27-.04.38.05.68-.04l-.06-.3q-.9.37-1.09-.03zm-.2.41c-.01-.07-.25-.03-.24.04.01.06.25.02.24-.04m156.87-8.28c0-.07-.24-.08-.25-.01 0 .06.25.08.25.01m-85.82.24c.12.07.22.28.41.28.38.02.6-.01.92.06l-.16-.31zm98.03.36v.11l.52.03v-.1zM27.34 12.22c.04.14.09.27-.21.4-.23.1-.15-.01-.4.03-.17.03-.37.16-.61.16l.46.46-.19-.39 1.81-.19-.81-.16h-.01l1.04-.14zm107.29-5.59c0-.07-.24-.07-.24 0 0 .06.24.07.24 0M10.46 13.82c-.6.13-.32.34-.49.49-.18.14-.61.11-.7.3l.57.27-1.3.01.3.26-.75.13.14.72.74-.13-.05-.3-.5.08-.03-.15.71-.29-.02-.2.64-.01q.65-.31.08-.49c.4-.25.77-.43.66-.69m41.83-3.53c-.01-.07-.25-.04-.25.02.01.07.25.04.25-.02m41.25-2.87.13.05.38-.18-.13-.04zm72.57-.39a4 4 0 00-2.33-.1l.5.49.26-.2 1.3.27.01-.42c.17.05.06 0 .3.07s.2-.04-.04-.11m26.76.1c-.41-.11-.44.05-.54.15-.13.13-.15.26-.42.34l.76.32q-1.13-.06-1.27-.52l-.28.18-1.03-.18-.02.2-1.28-.21v-.2l-.77-.06-.31.49-.49-.02q.02.06 0 .12l.5-.04c.15-.08.47.1.5.14.08.14-.04.23-.01.37l-.52.01.76.27c-.18.1-.61.1-.52.28.05.1.4.21.63.09.29-.16.47-.36.42-.59.59 0 1.01.13 1.55.23h.01q.07.08.22.17l-.51.22c.99.07 1.47-.12 1.6-.49.24.05.36.14.64.15l.95-.5-.48-.55.53-.06c-.2-.08-.42-.26-.62-.31m-77.49-.45.01.11 1.03-.13-.13-.21zM59 9.49l.54.16-.02-.21zm120.61-1.37-.01.11.52.03.01-.1zm-114.38.82.01.21.26-.02-.02-.21zM84.71 7.8c-.01-.06-.25-.05-.25.02.01.06.25.05.25-.02m.51-.03c0-.06-.25-.05-.24.02 0 .06.25.05.24-.02m69.45-1.1-.01.31.26.01.01-.32zm34.54 2.14-.01.1.52.05.01-.11zm7.03.28c.07-.11-.12-.36-.51-.24-.08.03-.1.27-.41.26l-.5-.35c-.25.07-.55.19-.65.31-.06.07.06.1.09.17l.15-.21.49.36c.54.07.82.02 1.2-.1l.88.18.29-.29zm-64.21-2.56c0-.07-.25-.07-.25 0 0 .06.25.06.25 0m-80.81 3.5c.07.13-.13.21-.23.34l.79-.08c.04-.11-.21-.32-.56-.26m146.53-.44c0-.06-.24-.08-.25-.02 0 .07.24.09.25.02m3.66-.01c.3.51 1.18.74 1.3.13zM97.42 6.77c-1.47.04-.85.44.29.4zM60.66 9.22h-.39c.34.1.57.22 1.07.16-.3-.12-.04-.17-.03-.31zm1.19.01.01.11.78-.07-.01-.1zm-20.5 1.66.04.31h-.51l.78.07-.05-.41zm137.73-2.85c.01-.07-.24-.08-.24-.02 0 .07.24.08.24.02m-134.9 2.43c-.02-.43-.54-.01-.89.05-.46.09-.33-.06-.65.18-.08.07-.33.3-.22.38l1.3-.04-.31-.44zm84.48-4.19v.21h.26v-.21zm-19.53.26.01.2.52-.01-.4-.2zm1.04-.04.01.21.51-.22zM7.08 14.93c-.24 0-.33-.11-.52.1-.18.21.02.36-.06.58-.06.17-.48.39-.38.55l.76-.19-.15-.76 1.31-.23c-.22-.18-.49-.04-.96-.05m43.36-4.66c0-.07-.25-.04-.25.02.01.07.26.04.25-.02m82.65-4.16.9.36c.17-.1.38-.08.64-.1l.27-.52c-.69.17-.88-.06-1.57-.11zm66.48 3.55c0-.06-.24-.09-.25-.02 0 .06.24.09.25.02m-36.85-2.57c0-.06-.24-.07-.24-.01-.01.07.24.08.24.01M14.44 14.75l.25-.13.4-.02c-.35-.08-.59-.18-1.09-.09zm129.31-8.21c.38-.07.58-.14.91.01l.13-.05c-.33-.13-.54-.28-1.04-.27zm33.02 1.1-.01.2.26.02.01-.21zm-92.85 0c0-.06-.25-.05-.25.02.01.06.25.05.25-.02m66.58-1.03c0-.06-.24-.07-.24 0-.01.06.24.07.24 0m-65.81.98c0-.06-.25-.05-.24.02 0 .06.25.05.24-.02m104.54.91.5.25.02-.21zM70.41 8.47c0-.06-.25-.04-.25.02.01.07.26.05.25-.02m22.55-1.75-.99.52c.63.01.42-.15.76-.3.14-.06.34-.06.51-.08.17-.14-.22-.23-.2-.35.04-.23.51-.4-.35-.35zm115.97 3.82c.01-.06.26-.03.25.03-.01.07-.25.04-.25-.03m-72.21-5 .53.16-.01.47-.94-.2-1.14-.07c.33.11.12.29.67.26.42-.02.7-.07 1.14.01l.01.21c.64.03.55-.1.52-.31l.26.31 1.04.01c-.14-.23-.26-.36 0-.57l-.39-.16-.26.2-.4-.31zM72.99 8.28c-.01-.07-.25-.05-.25.01.01.07.25.05.25-.01m133.61 1.73c-.38.07-.43-.04-.78-.09l-.03.32.79-.03zm-86.8-3.83.01.2c.26.02.85-.08.78-.22zm53.33 1.14v.21l.25.01.02-.2zm-72.33-.65.4.15.12-.06-.39-.14zm23.67-.87c-.58 0-.67.11-.77.32-.23-.01-.59-.1-.78-.04l.78.25c.01-.07-.02-.14 0-.21.52-.02.79-.1.77-.32m-21.32.94-.29-.46-.78-.02zm.77-.24.53.19-.01-.21zm21.86-.67c.41.1.09.24.31.36.09.05.54-.02.6.11l.14-.06-.92-.46zM84.69 7.44l.65.06.13-.06-.79-.11zm1.03-.06 2.08-.02-.28-.35c-.46-.03-.62.03-.82-.15-.1-.08-.18-.27-.51-.24zm44.74-1.16c0-.07-.24-.07-.24 0s.24.06.24 0m-40.88.42c-.67.16-1.27.31-1.27.64.49.11.03-.05.33-.17.29-.12 1.12-.2.94-.47m-84.53 9.4-.99.29-.05-.2 1-.29zm188.84-7.1c0-.07-.24-.09-.25-.03 0 .07.24.09.25.03M54.04 9.7c-.01-.07-.25-.04-.25.02.01.07.25.04.25-.02m-17.35 1.74.02.1.51-.06-.01-.1zm-19.87 2.52.04.2.5-.07-.41-.15zm129.01-7.6h-.26v-.21l.26.01zM80.76 7.47l.02.21.5-.24zm94.71.04c0-.07-.24-.08-.25-.02 0 .07.25.08.25.02m-28.34-1.38.26.26.52-.2-.65-.11zM44.68 10.2l-.23.29.8.06-.31-.38zm83.19-4.07c0-.07-.25-.06-.25 0 0 .07.25.06.25 0m-79.92 4.13c.15-.11-.38-.23-.03-.3.42-.09.78-.06 1.17-.03-.29-.44-1.23-.01-2.09-.09zm1.41-.3.41.11.12-.06-.41-.12zm22.82-2.09.03.31.51-.04-.02-.31zm.8.25.78-.06-.01-.05-.4-.13zm-39.65 3.63.01.11.52-.07-.01-.1zm-22.99 2.94c.01.2.38.22.73.3.42-.22.37-.37.3-.58zm63.93-6.72c-.01-.06-.25-.04-.25.02.01.07.25.05.25-.02m-58.99 6.1c-.36-.14-.42-.37-1.08.04l.98.21.63-.25c-.06-.14-.33.08-.53 0m22.68-2.94-.41-.11-.12.01.04.31zm41.11-3.75-.11.32.76-.16-.29-.4zm-19.23 1.4c-.25.12-.42.21-.36.35l.52-.05-.03-.31zm.66.05.02.21.26-.03-.02-.2zm-38.46 4.03-.9.03.01.2-.48.18 1.27-.18.55.13-.32-.38.75-.26-.54-.08zm61.59-5.51c0-.07-.25-.06-.24.01 0 .07.25.05.24-.01m21.05-1.4-.78-.02.67.44-.01-.31.65-.02-.24.42c1.34-.21.89-.68-.29-.72zm-79.35 6.76.01.1.51-.07-.02-.1zm166.39-4.53c.25.03.15.14.13.22-.54-.04-.78.14-1.31.1h-.01c.02-.19.35-.23.55-.38l-.5-.25zm-60.21-2.33v.21h.52v-.21zm26.68.51-.39.19.52.02v-.21zM50.15 9.93l.5-.21-.41-.11-.13.01zm21.52-1.87c0-.06-.25-.04-.24.02 0 .07.25.05.24-.02m43.95-2.11.01.21.26-.01-.01-.21zm3.43-.18c-.27.1.33.35.45.3.26-.09-.33-.34-.45-.3m-81.14 4.94c.37.1.3.26.32.44l.52-.06c-.27-.15-.3-.35-.72-.44zm-18.27 2.71.02.11.53-.08-.02-.1zm168.83-5.24c.01-.07.26-.05.25.02 0 .06-.25.04-.25-.02m-79.09-1.96.77-.18-.52-.14zm-3.48-2.29c-.47.01-.87-.16-1.3-.01l1.05.12c.03.12-.36.19-.24.32l-.53.02v.06l.54.13-.01-.21h.26l.01.31.77-.08c-.35.15-.22.29-.24.48-.21 0-.4-.03-.51.07q-.3.28-.24.58c.63-.16.68-.39.75-.65.69 0 .64.2 1.04.32.86.26 1.18.08 1.3-.29a3 3 0 002.09-.07c-.1.18.38.25.51.36.12.11-.18.15-.2.22-.02.12.23.17.22.28 0 .06-.22.07-.2.12.05.12.49.16.76.14-.23-.2.33-.4.2-.57-.22-.27-.75-.34-.5-.68.53.12.66-.13 1.17-.05l.9-.26-.52-.08v.14l-1.56.15c-.03-.21-.35-.32-.8-.39v.2l-.78.03.25.15c-.08.09-.15.01-.23.01-.38-.04-.47 0-.8.07l.51-.54-.91.24-.92-.28-.22.37.5.24-1.3-.06.25-.42-1.04-.07zM113.55 6v.1l.52-.01-.01-.11zM54.01 9.39c-.01-.07-.26-.05-.25.02s.25.04.25-.02m-19.67 2.02.02.11.52-.07-.01-.1zm134.14-4.59c0-.06.25-.05.24.02 0 .06-.24.05-.24-.02m-48.95-1.16c.12.12.32.17.27.31l.52-.17c-.24-.1-.41-.17-.79-.14m-92.98 6.56.03.21.49-.28zm161.14-4.21c0-.06-.24-.08-.25-.02 0 .07.25.09.25.02m8.06.51c-.07.13.5.3.76.28l.02-.21zM12.41 14.4c-.02-.07-.25-.03-.24.04.01.06.25.02.24-.04m177-6.62c.48-.08.54-.08.91.13l-1.58.13c-.07-.22.27-.2.67-.26m-120.36.17c-.01-.06-.26-.04-.25.02 0 .07.25.05.25-.02m1.42-.47c-.37.14-.42.26-.36.44l.26-.02.23-.38zm123.46.94c0-.07-.24-.09-.25-.03 0 .07.24.09.25.03m-141.78.57q.02.1.02.21l-.51.05c-.02.2.06.23.54.16q-.02-.1-.02-.21l.51-.05c.03-.2-.06-.22-.54-.16m88.73-3.32v.11h.52v-.1zm-44.02.39.02.32.52-.03c.05-.1-.19-.33-.54-.29M77.37 7.28l.01.11.51-.04v-.1zm66.35-1.49.04.02-.06.01zl-.49-.3.79.01zm-23.41-.46.27.42.77-.02c-.04-.13-.49-.26-.24-.4.08-.04.8.03.35-.12zM40.34 9.95c-.22.12.16.11.12.25-.04.09-.32.28-.17.39.66-.22.61-.49.05-.64m61.47-3.84c-.01-.06-.25-.05-.25.01 0 .07.25.06.25-.01m-17.17.6.01.21.26-.02-.01-.21zm66.67-.81c0-.07.25-.06.25.01s-.25.06-.25-.01m-18.77-.47c-.54-.01-.98.17-1.43 0l-.13.06c.53.22 1.2.22 1.56-.06m-44.89-.41.92.09.65-.12-.23.16.38.13.38-.11c-.05.18.35.2.5.33.04.05-.17.07-.13.12.08.09.26.13.21.25l-.93-.16-.79.35-.64-.07c.15.15-.17.24-.16.38.01.13.35.19.2.35l.53-.08-.28-.24a3 3 0 001.42-.29l.13-.01c-.02.15.4.39.82.38-.12-.32.28-.65-.06-.94l2.07-.11h.01c.02-.28-.64-.26-1.19-.25-.36.03-.64.19-1.03.15-.66-.07-.15-.4-.17-.61.62.02 1.56.2 1.55-.18l-.79-.03.01-.14-.65.24-.4-.19c-.04.14.17.19.28.3q-.27 0-.52.03v.21c-.88.02-.82-.33-1.21-.56zm111.99 3.81c.01-.06-.24-.09-.24-.02-.01.06.24.09.24.02M74.22 7.45c0-.06-.25-.04-.24.02 0 .07.25.05.24-.02M15.6 13.62l-.41.01.43.09.35-.21zM79.79 6.6l-.38.18.01.1.79.21-.3-.5zm22.01-.85 1.58.25-.8-.18.52-.12-.4-.19zM65.89 7.74l.03.31.26-.02-.03-.31zM28.6 11.83c.1-.07-.58-.21-.79-.07-.1.06.58.2.79.07m40.69-4.11c-.01-.06-.25-.04-.25.02.01.07.25.05.25-.02m-64.4 7.5.04.21q.77-.14.69-.45zm110.33-9.99c-.56.01-.81.03-1.35.12-.3.06-.44.04-.33.23l1.29.07-.01-.31 1.04.08c.08-.24-.17-.21-.64-.19m63.68 1.6-1.31.12.01-.31zM50.82 8.81l.02.21.51-.05.04.2.26-.02-.31-.39zm21.06-1.39c-.01-.07-.25-.05-.25.02.01.06.25.05.25-.02m-39.43 3.71.01.1 1.03-.23-.16-.19zm61.78-5.36.28.4.37-.43-.16-.04zM34.8 10.88c0-.06-.26-.03-.25.04.01.06.26.03.25-.04m2.54-.47.03.21.26-.03-.03-.21zm138.2-4.2c.49-.02.39.04.55.16.21.18.52.23.46.42-.25-.03-.61.02-.76-.11q-.29-.24-.25-.47M38.65 10.26l.02.21.79-.1-.01-.05a1.5 1.5 0 00-.8-.06m7.14-.81-.37.25.52-.06-.03-.21zm4.26-.3c0-.06-.25-.04-.24.03 0 .06.25.04.24-.03m148.33-.8-.01.1.52.05.01-.11zm-81.22-3.06.01.1.52-.01v-.1zm-58.8 3.05c-.01-.06-.25-.04-.24.03.01.06.25.04.24-.03m-39.9 4.42.04.2.26-.04-.04-.2zM86 5.79c-.32.1-.32.31-.61.4-.45.14-.87.03-.76.31l1.26-.29zM47.19 9.35c-.01-.07-.25-.04-.24.02.01.07.25.04.24-.02m110.11-3.8-.39.14-.13-.06.39-.14zm-87.25 1.8c-.01-.06-.25-.05-.25.02.01.07.26.05.25-.02m1.8-.29.02.2.26-.02-.02-.2zm-37.09 3.46.03.21.5-.06-.4-.16zm137.38-4.35-.39.14-.26-.01-.38-.23 1.04.05zM16.67 13.09c-.01-.07-.25-.03-.24.03.01.07.25.03.24-.03m67.42-6.71c0-.07-.25-.05-.24.01 0 .07.25.05.24-.01m-55.04 4.77c-.06.15.57.16.81.11-.07-.13.11-.22.2-.35zm129.82-5.5-.13-.01-.39-.22.52.02zm35.11 2.19.26.03.01-.21-.25-.02zM8.93 14.24c-.01-.06-.25-.02-.24.04.01.07.25.02.24-.04m107.82-9.78c-.29 0-.47.11-.78.13-.36.02-.8 0-1.17.02-.07.26.26.21.79.19l-.26.21 1.18.19c.18-.02.3-.18.38-.21.42-.16.8-.2.78-.44-.37.03-.57-.09-.92-.09M77.01 6.48c-.13-.04-.7.26-.42.33.13.04.7-.26.42-.33m43.41-1.67c-.35-.03-1.08-.05-1.17.12l1.57.19c-.15-.08-.15-.28-.4-.31m-20.72.71.01.11.52-.03-.01-.1zm-21.63.84c-.1-.1-.53-.03-.76-.01.12.11.41.2.65.26.36.09.43.06.65-.09-.35-.07-.36.01-.54-.16M51.59 8.53l.02.2.25-.02-.02-.21zm67.37-4.63c-.14.17-.31.3-.44.48-.12.18-.23.44-.31.62-.05.1.46.07.49.05.25-.19.13-.33.81-.33l-.01-.1-.52.01zm-4.15 1.18c0-.07-.25-.06-.25.01s.25.05.25-.01m94.23 4.14-.78-.08.01-.11.78.09zM57.29 7.97l.02.21.26-.02-.02-.21zm113.56-1.92-.52-.02v-.11l.52.03zM16.24 12.78l-.35.27.51-.08-.04-.21zM98.4 5.37l.01.21.26-.01-.01-.21zM59.33 7.58l-.22.43.26-.02.48-.46zm118.03-1.16-.52-.03v-.11l.52.03zm-51.07-1.53c0-.06.25-.07.25 0 0 .06-.25.07-.25 0M67.77 6.85c-.36.15-.41.27-.35.45.44.02.88-.24 1.01-.4zm60.87-1.92h-.26v-.21h.25zM70.56 7.05l.22-.43-.5.14-.56-.27zM49.75 8.77c-.01-.07-.26-.04-.25.02.01.07.25.04.25-.02m83.06-3.91c0-.07.24-.07.24 0 .01.06-.24.06-.24 0m-15.92.12-.52.01v-.21l.52-.01zm-21.37.57c-.01-.06-.25-.05-.25.01 0 .07.25.06.25-.01m-13.29.47.02.21.52-.03-.41-.19zm44.05-1.49v.21l-1.04.11c.01-.27.42-.34 1.04-.32m53.17 1.86c0-.06.25-.05.25.02-.01.06-.25.05-.25-.02m-74.81-1.22c0-.06-.25-.05-.25.01.01.07.26.06.25-.01m77.93 1.43c.01-.07.26-.05.25.01 0 .07-.25.05-.25-.01m-77.14-1.46c0-.06-.25-.05-.25.01.01.07.26.06.25-.01M.97 15.39c-.02-.07.21-.11.23-.05.01.07-.22.11-.23.05m190.18-8.1.52.05c-.02-.12.04-.19.27-.24l-.5-.2zM2.45 15.1c-.01-.07-.26-.02-.24.04.01.07.25.02.24-.04m192.08-7.63-.01.11.52.04.01-.1zm-81.28-2.56c-.01-.07-.25-.06-.25 0 0 .07.25.06.25 0m56.82.9-.26-.02.01-.21.26.02zm-50.3-1.14c.2.13.96 0 1.31.04.03 0 .14.15.38.08q.13-.04.13-.1c-.16.02-.36-.01-.51.02q-.02-.07-.01-.12c.22.05.21-.1.24-.1.2-.04.35.01.54-.02l-.02-.01c-.02-.03.03-.08-.13-.09l-.24.01c-.2.01-.05.07-.15.11s-.3 0-.24.1l-.52.01.51-.27-.52-.25zm51.09 1.12c.01-.06.25-.05.25.02 0 .06-.25.05-.25-.02m-25.8-1.11c.5-.01.85.03 1.04.23-.5.01-.85-.02-1.04-.23m30.75 1.44-.52-.03.01-.21.52.03zm-75.35-.89c0-.07-.25-.06-.24.01 0 .07.24.06.24-.01m75.62.85c0-.07.25-.05.24.01 0 .07-.25.06-.24-.01M40.66 9.55c-.01-.07-.25-.04-.24.03.01.06.25.03.24-.03m116.4-4.43c0-.07.25-.06.24.01 0 .06-.24.06-.24-.01m4.96-.4c.01.11-.03.26-.01.36.05.22.33.15.64.29l-.11-.42.52-.09zm36.92 3.1c.01-.06-.24-.09-.24-.02-.01.06.24.09.24.02m-35.1-2.72-.01.21.65.13.13-.04-.25-.27zm-26.08-.44c0-.06.25-.06.25 0 0 .07-.25.07-.25 0m-42.04-.21.29.4.38-.22 1.74.65h.01l-.3-.4-.51.01.1-.52-.8-.17zm76.71 1.32c0-.06.25-.05.25.01-.01.07-.25.06-.25-.01m-93.34.3.4.13.13-.06-.4-.13zm109.22.58.38.24.4-.13v-.05zm-58.11-2.1c0-.06.24-.07.24 0 .01.07-.24.07-.24 0M48.39 8.33l.03.31.52-.05c-.06-.13.13-.21.23-.34zm85.19-3.94v.21h-.78v-.11c.33.02.49-.06.78-.1m25.56.64v.11l.52.02.01-.11zm1.31.05-.01.1.52.02.01-.1zm-67.33-.4.31.71.23-.43c.46.08.78.12 1.17-.05l.38.14-.23.11.52.03-.27-.36-.79-.01-.02-.31zm1.59.6c0-.07-.24-.06-.24.01s.25.05.24-.01m27.14-.81c-.02.05.03.07 0 .11.09-.02.22.01.24-.06.03-.06-.18-.02-.24-.05M80.13 6c-.01-.06-.26-.05-.25.02 0 .06.25.05.25-.02m2.31-.83c-.03.19.37.24.25.46-.1.16-.46.32.32.24l.19-.48q-.4-.1-.76-.22m21.92-.56c-.38-.01-.55.07-.78.18.25.1.42.16.8.13zm51.92.28c0-.07.25-.06.25.01-.01.06-.25.05-.25-.01m38.26 2.32c.01-.06-.24-.08-.24-.02-.01.07.24.09.24.02m-53.66-2.68v-.21l.53.01zM78.04 5.88l.02.21.26-.02-.02-.21zm22.21-2.26c-.25.07-.12.22-.11.32-.13-.03-.36-.1-.52-.08l-.5.44 1.04-.05-.02-.31c.48.1.59.17.54.39-.79.06-.74.31-1.01.57l1.04.06.12-.22c.4.07-.06.26.67.19l-.81-.44c.59-.28.82-.02.79.23l.78-.19c-.26-.16-.89-.19-1.18-.31-.43-.19-.32-.44-.83-.6m48.98 1.03h-.26v-.21l.27.01zm-65.19 1c0-.07-.25-.05-.24.01 0 .07.25.06.24-.01m41.98-1.28c0-.06.25-.07.25 0s-.25.07-.25 0m-39.4.87.8.26-.02-.31zm69.13-.47-.13.05-.38-.33.26.01zM2.6 14.49l.04.2.52-.1-.04-.2zm190.14-7.54c0-.06-.24-.08-.25-.02-.01.07.24.09.25.02M49.69 8.25c-.01-.07-.26-.04-.25.02.01.07.25.04.25-.02m85.59-3.86-.03-.01.41-.19zm-102.2 5.66c0-.07-.25-.03-.24.03.01.07.25.03.24-.03m171.08-2.03c.01-.06-.24-.09-.24-.02-.01.06.24.09.24.02m-61.7-3.63c0-.07.25-.06.25 0 0 .07-.25.06-.25 0m-44.09.51c-.01-.06-.25-.05-.25.01.01.07.25.06.25-.01m46.44-1.16c-.22.3-.09.68-1.05.72.33-.23.47-.36.27-.62zM44.99 8.38l.02.1.51-.05.04.2.26-.03.22-.33zm2.35.01c-.01-.07-.25-.04-.24.02 0 .07.25.04.24-.02m37.21-3.03c.46-.05.7-.01 1.04.09.24.07.36-.07.51-.13l-.93-.21zm76.68-.51c0-.07-.25-.08-.25-.01 0 .06.25.07.25.01m4.7.19.13.06.39-.14-.13-.06zm-91.04.85.02.21.52-.04-.01-.21zm41.45-2.04.79.03.79.45-.28-.61c-.19-.02-.45.03-.63.01-.31-.03-.01-.18-.29-.2zM78 5.36c-.79.07-.8.3-.73.57.54-.15.81-.31.73-.57m20.62-.73c-.05.13.53.22.79.17l-.01-.2zm44.88-.28h-.26v-.21h.26zM79.59 5.72v.06l1.04-.07c.04-.15-.13-.21-.41-.29zm72.13-1.43.39.22-.52-.01v-.21zm7.56.02a3 3 0 00-1.17.22l2.09.23zm-67.7.71c-.01-.07-.25-.06-.25.01.01.07.25.05.25-.01m76.18.05c.57-.14.82.08 1.43.05.25-.01.82-.23.67-.37l-.92.16-1.16-.47zM60.31 6.96l.01.11.52-.05-.01-.1zM164.1 4.75c0-.06-.25-.07-.25-.01 0 .07.25.08.25.01m-47.76-.64c0-.07-.25-.06-.25 0 0 .07.25.06.25 0M56.92 6.96l.03.31.53-.05-.04-.31zm16.89-1.41c.06.14 0 .54.56.26.03-.02-.01-.21.23-.27.19-.05.58-.06.51-.19l-1.05-.03zm107.51-.03-.01.21.53-.17zm-74.11-1.27c0-.06-.25-.06-.25.01.01.06.25.06.25-.01M68.1 6.09l.02.21.26-.02-.02-.21zM47.3 8.08c0-.07-.25-.04-.24.02.01.07.25.04.24-.02m92.79-4.13c0-.07-.24-.07-.24 0 0 .06.24.06.24 0M78.51 5.22l.02.31.52-.03c.04-.11-.2-.33-.54-.28m96.3-.21-.01.21.53.03.01-.21zm-72.45-1.05c-.21-.02-.44.03-.65.02l.93.38.09-.03c.39-.14.06-.32-.37-.37m24.43-.06h-.52v-.1l.52-.01zm-22.45.35c0-.07-.25-.06-.25 0 0 .07.25.06.25 0m46.22-.14c0-.07.25-.06.24.01 0 .06-.24.06-.24-.01m-64.22.83v.1l.79-.04-.01-.11zm21.65-.77.79-.02-.01-.11c-.33.03-.49-.04-.78-.08zm52.22.17v.1l1.04-.06v-.11zm-23.76-.99c-.55.12-.84.26-.78.52l.27-.21.77.01h.01zm-22.98.61c0-.06-.24-.05-.24.01 0 .07.25.06.24-.01m49.87.39.51.23.01-.2zm-65.25.09.52-.02-.01-.21-.13.01zm21.12-1.07.01.52.79-.01-.09-.06q-.25-.21-.19-.46zm4.17.41c0-.07-.24-.07-.24 0s.25.06.24 0m29.51.28c0-.06-.24-.07-.24 0 0 .06.24.07.24 0M47.27 7.71l.02.21.52-.05-.02-.21zm1.31.02.14.04.37-.19-.14-.04zm62.54-3.96.01.21.52-.02-.01-.21zM63.4 6.17l.02.21.27-.03-.02-.2zm85.83-2.3c.01-.06-.24-.07-.24 0 0 .06.24.07.24 0M93.99 3.8c-.5.29-1.07.23-1.8.3-.26.03-.14.22-.38.28l.78.12-.15-.21.65-.13.02.2.77-.03c.03-.25.7-.35.11-.53M73.52 5.15l-.49.46.78-.06-.03-.41zm91.65-.82-.01.1.53.02v-.1zm4.31.09c-.29.11-.54-.03-.91-.04l.64.24.4-.14zm1.16.21c0-.06-.24-.07-.25-.01 0 .07.25.08.25.01m-28.7-1.08.78.16c.06-.13-.06-.28-.13-.41l-.03-.1c-.03-.11-.07-.21-.36-.22zm-82.2 2.99c0-.06-.25-.04-.24.03 0 .06.25.04.24-.03m19.78-1.8.78.05h.01l.28.29-.03-.41zm2.36.21c0-.07-.25-.05-.24.01 0 .07.25.05.24-.01m71.94-1.23-.4.2.52.01.01-.2zm-47.15-.13.66.29.13-.05c-.24-.07-.3-.14-.27-.26zM50.65 7.31l.14.04.38-.2-.14-.03zm1.44-.09.07-.53-.78.02zm111.77-2.95c.54.03.94.06 1.31-.1l-.39.02-.5-.11zM33.38 9.22l.37-.25-.81-.01zm20.6-2.61-.22.44c.49-.12.55-.27.48-.46zm28.15-2.04.94.25.13-.06-.29-.35zm69.34-1.01-.39.2.52.01.01-.21zM66.24 5.88c-.01-.07-.25-.05-.25.02.01.06.25.04.25-.02m42.77-2.36.01.2h.26l-.01-.21zm.53.08 1.05.08-.01-.21c-.41.03-.69-.01-1.05-.07zm51.73.05-.01.31.65.13.13-.05-.51-.38zm1.3.26-.01.21.53-.19zM50.35 6.98c-.49.02-1.06.36-.36.33.23 0 .48-.27.36-.33m63.37-3.49.01.1.52-.01v-.1zm23.77-.13v.1h.52v-.1zm28.73.8v.11l.52.02v-.1zm-87.87.65-.37.24.52-.04-.02-.2zm19.83-1.1c-.73.24-1.41.04-2.23.1l.67.27 1.7-.17zM21.3 10.65l-.25.04-.04-.21.26-.04zm104.95-7.63 1.05-.07-.25.42 1.04-.11c.11-.47-.53-.54-1.58-.61zM49.26 6.77c-.49.11-.88.14-1.41.27s-.75.22-.61.46c.48-.07.68-.33 1.19-.42s.83.05.83-.31m82.47-3.47c0-.07-.24-.07-.24 0 0 .06.24.06.24 0M69.9 5.53l.26-.02c.04-.2-.05-.34-.56-.37zm21.63-1.35c-.01-.06-.25-.05-.25.02.01.06.25.05.25-.02m43.61-1.04.01.21h.52v-.21zm66.52 3.58c.01-.06-.24-.09-.24-.02-.01.06.24.09.24.02m-80.63-3.43c0-.07-.25-.06-.24 0 0 .07.24.06.24 0m-18.19-.18c-.28-.04-.3.1-.56.1-.46.02-.85.05-.46.25l1.16-.26-.76.55 1.04-.25.01.21.53-.02-.01-.21-.53.02c.05-.15-.03-.34-.42-.39m-19.4 1.38.01.1 1.04-.06-.01-.21zm2.34-.06c.1-.05-.56-.25-.78-.13-.1.06.56.25.78.13m43.49-1.18.64-.1v-.11l-1.04-.1zm-16.61-.46.29.3.51.2-1.31-.18c.67.4 1.59.37 2.08-.1l-.27-.26zM75.6 4.95c0-.06-.25-.05-.25.02.01.07.26.05.25-.02m64.76-1.89v.21l.53.01v-.21zM76.65 4.88c0-.07-.25-.05-.25.02.01.06.26.04.25-.02m65.01-1.65c.01-.06-.24-.06-.24 0 0 .07.25.07.24 0m2.11-.13v.21l.78.01v-.05c-.24-.11-.4-.18-.78-.17M81.06 4.43l.02.2.51-.24zm67.27-1.46c-.73.01-.95.1-.91.4l.53-.3 1.04.12c.05-.23-.12-.23-.66-.22m.65.38c0-.07-.25-.07-.25-.01 0 .07.25.07.25.01m-62.97.51c.35.12.28.28.29.46.67-.05.82-.22.75-.47zM68.29 5.24l.54.17-.02-.21zm20.18-1.67c-.69.31.06.46.7.58l.24-.43c-.2 0-.46.05-.64.04-.31-.02-.01-.18-.3-.19m22.89-.28c-.01-.06-.25-.06-.25.01s.25.06.25-.01M71.68 5.14c0-.07-.25-.05-.24.01.01.07.25.05.24-.01m43.07-2.2.01.32.26-.01-.01-.31zm50.16.91c.01-.07-.24-.08-.24-.01 0 .06.24.07.24.01m1.31.05c.01-.06-.24-.07-.24-.01-.01.07.24.08.24.01M155 3.13c.05.13-.15.19-.26.31l.52.01v-.31zm-19.86-.3.53.21v-.21zm3.13-.09v.31c.35.03.58-.21.53-.31zm28.48 1.08c0-.06-.24-.07-.25-.01 0 .07.25.08.25.01m-90.64.89c0-.07-.25-.05-.25.02.01.06.26.04.25-.02m41.25-1.82.53.19-.01-.2zm2.93-.16c-.27.1.32.34.44.3.26-.09-.32-.34-.44-.3M83.67 3.95c-.36-.01-.56.24-.51.34l.79-.04c-.12-.11-.33-.16-.28-.3m26.11-1.27c-.43-.16-.59.09-.54.2l-.77.03-.12.31.65-.18c.37.19.77.03 1.3.01-.24-.03-.44-.34-.52-.37m26.66.2c0-.06-.24-.06-.24 0 0 .07.25.07.24 0m-15.16-.17.01.21h.26v-.21zm31.11.4c0-.06-.25-.07-.25 0 0 .06.25.07.25 0m-45.48-.05v.11l.52-.02v-.11zM70.36 4.77l.02.2.26-.02-.02-.2zm22.43-1.33c-.46-.56-1.53-.15-.64.24l.28-.23zm3.92-.17c-.24-.1-.88.17-.77.21.24.1.87-.17.77-.21m39.47-.6c0-.06-.24-.06-.24 0 0 .07.25.07.24 0m-57.05.42c-.73.05-.7.34-1.26.5l-.16-.3-.76.14-.94-.13.29.3-2.88.31-.23.38c.75.24 1.25-.08 2.09-.2l.28.24.78-.11.15.2c1-.03.29-.34 1.15-.39l.28.24.39.02 1.01-.47c.62.11 1.44-.01 2.08-.04.57-.04.78-.04 1.34-.09.3-.03.83-.04 1.17-.06.08-.14.17-.08.24-.26s-.29-.16-.82-.19c-.21-.01-.43-.18-.65-.21l-.37.44c-1.11.09-1.75.39-1.86-.2l-1.02.18-.52.24zm63.59-.52.53.21v-.21zm-57.39.97-.37.18.52.12-.02-.31zm-15.82.56.28.19-1.31.21.44.38 2.45-.4.02-.07c.02-.14-.09-.1-.41-.11-.36-.01-.55-.06-.91-.04l-.03-.2zm30.31-1.5.01.15.79.34-.29-.72zm22.24-.06c-.01-.06-.25-.06-.25.01s.25.06.25-.01m-33.19 1 .52-.03-.01-.2h-.13zm-18.09-.06q-.25.25-.48.51l.76-.11.03.2 1.3.01-.23.43.78-.05c.1-.21-.16-.27-.42-.38-.17-.07-.01-.15-.19-.19s-.44.02-.63-.07.01-.21-.19-.3c-.09-.04-.59.02-.73-.05m66.71-1.06v.1l.52.01v-.11zm-47.59.75.01.21.52-.23zm5.47-.38.02.32.78-.04-.01-.31zm7.32-.31.01.31c.35.02.57-.22.51-.33zm32.19-.38c-.66-.01-1.26-.06-1.58.2.55-.03 1-.13 1.58-.1zm-43.42.89.02.21.25-.02-.01-.21zm2.86-.25-1.31-.04.02.42 1.82-.3-.29-.51zm-38.6 2.82c-.01-.07.24-.09.24-.03.01.07-.24.09-.24.03m22.17-1.65-.26.01-.01-.2.26-.02zM98 2.83c0-.06-.25-.05-.25.01.01.07.26.06.25-.01M33.6 7.86c0-.07.25-.1.25-.03.01.06-.24.09-.25.03m26.53-2.71c-.01-.07-.25-.04-.25.02.01.07.25.04.25-.02m23.24-1.7-.65.14-.14-.04.78-.21zm2.83-.59c-.96.02-1.58.24-1.78.63 1.08-.03 1.75-.14 2.31-.56l-1.04.17zm19.63-.7.02.42.26-.01-.02-.42zM50.51 6.02l-.53.05-.02-.21.52-.05zm45.91-3.27.01.1.52-.02v-.11zM32.8 7.85c-.01-.06.24-.09.25-.03.01.07-.24.1-.25.03m4.91-.75.03.21-.53.06.37-.25zm88.78-5.03c0-.06-.25-.06-.24.01 0 .06.25.06.24-.01m-19.61.16v.21l.78-.03V2.2zm5.49-.22.27.26.53-.02-.67-.29zm51.54.75c0-.06-.25-.07-.25-.01 0 .07.24.08.25.01M56.46 5.01l.3.29.77-.23c-.31-.12-.6-.12-1.07-.06m3.63-.21c-.24-.08-.85.21-.74.25.23.08.85-.21.74-.25m41.27-2.68.02.41.52-.17-.01-.11-.4-.14zM46.32 6.19c-.01-.06.23-.09.24-.02s-.23.09-.24.02m41.2-3.15c-.01-.06-.26-.05-.25.02 0 .06.25.05.25-.02m21.96-1.1.01.31.52-.17-.4-.15zm-17.53.5-.23.43.52-.03-.03-.41zm23.8-.77c-.4-.02-1.09.15-1.29.29.3.14.58.16 1.04.13zm-20.41.5-.24.53q.86-.2.76-.55zM77.35 3.58c0-.07.24-.09.25-.02 0 .07-.24.08-.25.02M35.08 7.1l.04.31.26-.03-.04-.31zm139.55-3.92c.01-.07-.24-.08-.25-.02 0 .07.25.08.25.02m-93.8-.3c-.41-.09-.5.04-.92.05.46.26 1.18.05 1.08.46l.5-.3c-.2-.05-.46-.16-.66-.21m23.16-.76.01.21.26-.01-.01-.21zM63.76 4.36l.02.21.51-.05-.4-.17zm44.67-2.29.01.11.78-.03v-.1zm23.56-.39 1.31.21v-.32zm2.36-.1v.31c.38.02.55-.05.79-.16-.24-.1-.42-.17-.79-.15m-23.04.46c0-.06-.25-.06-.25.01s.25.06.25-.01m2.1-.21.53.19-.01-.2zM54.35 5.16l.41.12.12-.06-.41-.12zm89.69-3.41v.21l.52-.2zm-44.77.35c-1.05.03-.27.33.02.31zm-63.4 5.06c-.01-.06-.26-.03-.25.03.01.07.25.04.25-.03m46.15-4c0-.06-.25-.04-.25.02.01.07.26.05.25-.02m24.58-1.08c0-.06-.25-.06-.24.01 0 .07.24.06.24-.01M69.23 3.97c-.01-.07-.26-.05-.25.02 0 .06.25.04.25-.02m42.87-2.05c0-.07-.25-.06-.25 0 0 .07.25.06.25 0m24.09-.34v.21h.26v-.21zm1.03.16c0-.07-.25-.07-.24 0 0 .06.24.07.24 0M33.09 7.03l-1.17.25c.17.16 1.18.27 1.58.11.3-.13-.18-.34-.41-.36m26.47-2.41.01.11.52-.05-.01-.1zm63-3.07.01.2h.52l-.4-.21zm-79.7 4.54.02.21.26-.03-.02-.2zm44.11-3.33c0-.06-.25-.05-.25.02.01.06.26.05.25-.02m.52-.03c0-.06-.25-.05-.24.02 0 .06.25.05.24-.02m23.82-1.05v.2h.27l-.01-.21zm-52.8 2.94.01.1.52-.05-.01-.1zm44.42-2.67v.11l.53-.02-.01-.11zM42.08 6.18l.01.11.52-.06-.01-.11zm95.93-4.8v.21h.26v-.21zM57.98 4.46l.02.2.26-.02-.02-.21zM36.86 6.73c-.01-.07-.25-.04-.25.03.01.06.26.04.25-.03m50.89-4.27.79.06-.01-.21-.8-.06zm43.71-.99h.53l-.4-.2-.13-.01zm-39.52.76v.11l.52-.03v-.1zm-12.84.45c-.62.02-1.02.11-1.01.38.61-.02 1.02-.12 1.01-.38M60.04 4.16l.02.21.5-.25zm40.78-2.44.01.21.52-.02-.4-.19zm24.88-.42v.1h.53l-.01-.1zM84.35 2.6c0-.06-.25-.05-.24.02 0 .06.25.05.24-.02M51.44 4.87l.03.21c.25 0 .83-.15.74-.28zm62.48-3.47v.1l.52-.01v-.1zm4.97-.31v.2c.33-.02.5.05.79.09l-.01-.31zm-19.11.73.13.04.39-.17-.14-.05zM35.8 6.65c-.01-.07-.26-.04-.25.03.01.06.26.03.25-.03m115.58-5.28v.21l.52.01-.39-.22zM67.59 3.52l-.51.04.01.11.79-.07.09-.42zm62.03-2.3c0-.07-.24-.07-.24 0s.24.07.24 0M47.51 5.33c0-.06-.25-.04-.24.03 0 .06.25.04.24-.03m1.05-.11.14.04.37-.2-.14-.04zm43.87-3.43c-.38.09-.56.25-1.02.26v.11l1.04-.06zm19.65-.55.01.21.52-.23zM37.34 6.36c-.01-.07-.25-.04-.25.03.01.06.26.03.25-.03m67.41-4.84c-.01-.07-.26-.06-.25.01 0 .06.25.06.25-.01m27.49-.41c0-.07-.25-.07-.25 0 0 .06.25.06.25 0m-21.74.07.01.21.26-.01-.01-.21zM57.69 4.17l.01.1.51-.05-.01-.1zm43.38-2.62.14.05.38-.17-.13-.05zm1.56-.32c-.29.06-.44.15-.78.14l.4.19c.27-.1.44-.18.38-.33M68.64 3.28c-.01-.06-.26-.04-.25.02 0 .07.25.05.25-.02m4.16-.48.54.17-.01-.2zM54.79 4.39c-.01-.07-.26-.04-.25.02.01.07.25.04.25-.02m21.17-1.66c-.01-.06-.26-.04-.25.02 0 .07.25.05.25-.02M58.71 4.02l.14.04.37-.19-.13-.04zM34.99 6.43c-.01-.06-.26-.04-.25.03.01.06.25.04.25-.03m74.46-5.22.52-.02V.98l-.14.01zm2.09-.11c0-.07-.25-.06-.25 0 0 .07.25.06.25 0M29.48 6.75c.04.12.17.19.3.28l-.51.07-.01-.15-.56-.1zm3.4-.17c-.01-.06-.26-.03-.25.03.01.07.26.04.25-.03M61.3 3.63l.01.11.53-.05-.01-.1zm26.4-1.9.01.21.27-.02-.02-.2zm4.46-.08c-.01-.07-.25-.05-.25.01.01.07.25.05.25-.01m8.11-.38c-.01-.06-.25-.05-.25.02 0 .06.25.05.25-.02M66.25 3.11l-.52.04-.01-.1.53-.05zM31.27 6.47c-.01-.06-.26-.03-.25.03.01.07.26.04.25-.03m34.19-3.4-.77.06-.01-.1.77-.07zm-33.42 3.2c-.01-.07-.26-.04-.25.03s.26.03.25-.03m1.05-.13c-.01-.07-.26-.04-.25.03.01.06.26.03.25-.03M112.33.45c-.01-.07.24-.07.24-.01.01.07-.24.08-.24.01m-.8-.03-.27.01-.01-.21.27-.01z" fill="#E3CDB7"/></svg>