<?xml version="1.0" encoding="UTF-8"?>
<svg fill="none" viewBox="0 0 8 8" xmlns="http://www.w3.org/2000/svg">
<path d="m7.7996 7.3993c0 0.22091-0.17909 0.4-0.4 0.4h-0.39922c-0.22091 0-0.4-0.17909-0.4-0.4v-4.187c0-0.35636-0.43085-0.53483-0.68284-0.28285l-4.5109 4.5109c-0.15621 0.15621-0.40947 0.15621-0.56568 0l-0.28197-0.28197c-0.15621-0.15621-0.15621-0.40947 0-0.56568l4.5109-4.5109c0.25199-0.25199 0.07352-0.68284-0.28284-0.68284h-4.187c-0.22091 0-0.4-0.17909-0.4-0.4v-0.39922c0-0.22091 0.17909-0.4 0.4-0.4h6.7996c0.22091 0 0.4 0.17909 0.4 0.4v6.7996z" fill="#000"/>
</svg>
