<svg width="16" height="16" viewBox="0 0 16 16" fill="none" xmlns="http://www.w3.org/2000/svg">
<path d="M4.28385 13.2274C2.69066 13.2274 0.566406 11.9202 0.566406 8.61123C0.566406 5.3023 2.36385 2.76953 5.95875 2.76953C6.40811 2.76953 7.02087 2.81038 7.38853 2.89208V4.73038C6.81662 4.64868 6.73492 4.64868 5.95875 4.64868C4.97832 4.64868 4.243 5.05719 3.71194 5.66996C3.18087 6.20102 2.89492 6.97719 2.81321 7.79421C3.22173 7.304 3.91619 7.14059 4.48811 7.14059C6.0813 7.14059 7.38853 8.28442 7.38853 10.1227C7.38853 11.961 6.0813 13.2274 4.28385 13.2274ZM12.3315 13.2274C10.7383 13.2274 8.61407 11.9202 8.61407 8.61123C8.61407 5.3023 10.4115 2.76953 14.0064 2.76953C14.4558 2.76953 15.0685 2.81038 15.4362 2.89208V4.73038C14.8643 4.64868 14.7826 4.64868 14.0064 4.64868C13.026 4.64868 12.2907 5.05719 11.7596 5.66996C11.2285 6.20102 10.9426 6.97719 10.8609 7.79421C11.2694 7.304 11.9639 7.14059 12.5358 7.14059C14.129 7.14059 15.4362 8.28442 15.4362 10.1227C15.4362 11.961 14.129 13.2274 12.3315 13.2274Z" fill="#AE8F78"/>
</svg>
